G04 #@! TF.GenerationSoftware,KiCad,Pcbnew,7.0.9+1*
G04 #@! TF.CreationDate,2024-01-15T22:22:16-05:00*
G04 #@! TF.ProjectId,2812-32-mini,32383132-2d33-4322-9d6d-696e692e6b69,rev?*
G04 #@! TF.SameCoordinates,Original*
G04 #@! TF.FileFunction,Legend,Top*
G04 #@! TF.FilePolarity,Positive*
%FSLAX46Y46*%
G04 Gerber Fmt 4.6, Leading zero omitted, Abs format (unit mm)*
G04 Created by KiCad (PCBNEW 7.0.9+1) date 2024-01-15 22:22:16*
%MOMM*%
%LPD*%
G01*
G04 APERTURE LIST*
G04 Aperture macros list*
%AMRoundRect*
0 Rectangle with rounded corners*
0 $1 Rounding radius*
0 $2 $3 $4 $5 $6 $7 $8 $9 X,Y pos of 4 corners*
0 Add a 4 corners polygon primitive as box body*
4,1,4,$2,$3,$4,$5,$6,$7,$8,$9,$2,$3,0*
0 Add four circle primitives for the rounded corners*
1,1,$1+$1,$2,$3*
1,1,$1+$1,$4,$5*
1,1,$1+$1,$6,$7*
1,1,$1+$1,$8,$9*
0 Add four rect primitives between the rounded corners*
20,1,$1+$1,$2,$3,$4,$5,0*
20,1,$1+$1,$4,$5,$6,$7,0*
20,1,$1+$1,$6,$7,$8,$9,0*
20,1,$1+$1,$8,$9,$2,$3,0*%
%AMFreePoly0*
4,1,6,0.725000,-0.725000,-0.725000,-0.725000,-0.725000,0.125000,-0.125000,0.725000,0.725000,0.725000,0.725000,-0.725000,0.725000,-0.725000,$1*%
G04 Aperture macros list end*
%ADD10C,0.150000*%
%ADD11C,0.120000*%
%ADD12C,0.203200*%
%ADD13RoundRect,0.135000X0.185000X-0.135000X0.185000X0.135000X-0.185000X0.135000X-0.185000X-0.135000X0*%
%ADD14RoundRect,0.250000X1.450000X-0.312500X1.450000X0.312500X-1.450000X0.312500X-1.450000X-0.312500X0*%
%ADD15C,5.000000*%
%ADD16R,0.800000X0.400000*%
%ADD17R,0.400000X0.800000*%
%ADD18FreePoly0,0.000000*%
%ADD19R,1.450000X1.450000*%
%ADD20R,0.700000X0.700000*%
%ADD21RoundRect,0.140000X0.140000X0.170000X-0.140000X0.170000X-0.140000X-0.170000X0.140000X-0.170000X0*%
%ADD22RoundRect,0.101600X0.675000X-0.300000X0.675000X0.300000X-0.675000X0.300000X-0.675000X-0.300000X0*%
%ADD23RoundRect,0.101600X1.000000X-0.600000X1.000000X0.600000X-1.000000X0.600000X-1.000000X-0.600000X0*%
%ADD24RoundRect,0.250000X2.050000X0.300000X-2.050000X0.300000X-2.050000X-0.300000X2.050000X-0.300000X0*%
%ADD25RoundRect,0.250002X4.449998X5.149998X-4.449998X5.149998X-4.449998X-5.149998X4.449998X-5.149998X0*%
%ADD26RoundRect,0.225000X0.225000X0.250000X-0.225000X0.250000X-0.225000X-0.250000X0.225000X-0.250000X0*%
%ADD27RoundRect,0.135000X-0.185000X0.135000X-0.185000X-0.135000X0.185000X-0.135000X0.185000X0.135000X0*%
%ADD28RoundRect,0.225000X0.375000X-0.225000X0.375000X0.225000X-0.375000X0.225000X-0.375000X-0.225000X0*%
%ADD29RoundRect,0.250001X1.099999X-1.099999X1.099999X1.099999X-1.099999X1.099999X-1.099999X-1.099999X0*%
%ADD30C,2.700000*%
%ADD31RoundRect,0.225000X-0.225000X-0.250000X0.225000X-0.250000X0.225000X0.250000X-0.225000X0.250000X0*%
%ADD32RoundRect,0.200000X0.275000X-0.200000X0.275000X0.200000X-0.275000X0.200000X-0.275000X-0.200000X0*%
%ADD33RoundRect,0.250000X-0.550000X1.500000X-0.550000X-1.500000X0.550000X-1.500000X0.550000X1.500000X0*%
%ADD34RoundRect,0.135000X0.135000X0.185000X-0.135000X0.185000X-0.135000X-0.185000X0.135000X-0.185000X0*%
%ADD35RoundRect,0.062500X0.350000X0.062500X-0.350000X0.062500X-0.350000X-0.062500X0.350000X-0.062500X0*%
%ADD36R,1.580000X2.350000*%
%ADD37C,0.650000*%
%ADD38R,1.240000X0.600000*%
%ADD39R,1.240000X0.300000*%
%ADD40O,2.100000X1.000000*%
%ADD41O,1.800000X1.000000*%
%ADD42RoundRect,0.250000X-1.500000X-0.550000X1.500000X-0.550000X1.500000X0.550000X-1.500000X0.550000X0*%
%ADD43RoundRect,0.062500X0.362500X0.062500X-0.362500X0.062500X-0.362500X-0.062500X0.362500X-0.062500X0*%
%ADD44R,1.650000X2.380000*%
%ADD45R,1.700000X1.700000*%
%ADD46O,1.700000X1.700000*%
%ADD47C,2.374900*%
%ADD48C,0.990600*%
G04 APERTURE END LIST*
D10*
X92854819Y-61866666D02*
X92378628Y-62199999D01*
X92854819Y-62438094D02*
X91854819Y-62438094D01*
X91854819Y-62438094D02*
X91854819Y-62057142D01*
X91854819Y-62057142D02*
X91902438Y-61961904D01*
X91902438Y-61961904D02*
X91950057Y-61914285D01*
X91950057Y-61914285D02*
X92045295Y-61866666D01*
X92045295Y-61866666D02*
X92188152Y-61866666D01*
X92188152Y-61866666D02*
X92283390Y-61914285D01*
X92283390Y-61914285D02*
X92331009Y-61961904D01*
X92331009Y-61961904D02*
X92378628Y-62057142D01*
X92378628Y-62057142D02*
X92378628Y-62438094D01*
X92854819Y-60866666D02*
X92378628Y-61199999D01*
X92854819Y-61438094D02*
X91854819Y-61438094D01*
X91854819Y-61438094D02*
X91854819Y-61057142D01*
X91854819Y-61057142D02*
X91902438Y-60961904D01*
X91902438Y-60961904D02*
X91950057Y-60914285D01*
X91950057Y-60914285D02*
X92045295Y-60866666D01*
X92045295Y-60866666D02*
X92188152Y-60866666D01*
X92188152Y-60866666D02*
X92283390Y-60914285D01*
X92283390Y-60914285D02*
X92331009Y-60961904D01*
X92331009Y-60961904D02*
X92378628Y-61057142D01*
X92378628Y-61057142D02*
X92378628Y-61438094D01*
X92854819Y-59914285D02*
X92854819Y-60485713D01*
X92854819Y-60199999D02*
X91854819Y-60199999D01*
X91854819Y-60199999D02*
X91997676Y-60295237D01*
X91997676Y-60295237D02*
X92092914Y-60390475D01*
X92092914Y-60390475D02*
X92140533Y-60485713D01*
X92533333Y-40404819D02*
X92057143Y-40404819D01*
X92057143Y-40404819D02*
X92057143Y-39404819D01*
X93390476Y-40404819D02*
X92819048Y-40404819D01*
X93104762Y-40404819D02*
X93104762Y-39404819D01*
X93104762Y-39404819D02*
X93009524Y-39547676D01*
X93009524Y-39547676D02*
X92914286Y-39642914D01*
X92914286Y-39642914D02*
X92819048Y-39690533D01*
X89238095Y-10854819D02*
X89238095Y-11664342D01*
X89238095Y-11664342D02*
X89285714Y-11759580D01*
X89285714Y-11759580D02*
X89333333Y-11807200D01*
X89333333Y-11807200D02*
X89428571Y-11854819D01*
X89428571Y-11854819D02*
X89619047Y-11854819D01*
X89619047Y-11854819D02*
X89714285Y-11807200D01*
X89714285Y-11807200D02*
X89761904Y-11759580D01*
X89761904Y-11759580D02*
X89809523Y-11664342D01*
X89809523Y-11664342D02*
X89809523Y-10854819D01*
X90238095Y-10950057D02*
X90285714Y-10902438D01*
X90285714Y-10902438D02*
X90380952Y-10854819D01*
X90380952Y-10854819D02*
X90619047Y-10854819D01*
X90619047Y-10854819D02*
X90714285Y-10902438D01*
X90714285Y-10902438D02*
X90761904Y-10950057D01*
X90761904Y-10950057D02*
X90809523Y-11045295D01*
X90809523Y-11045295D02*
X90809523Y-11140533D01*
X90809523Y-11140533D02*
X90761904Y-11283390D01*
X90761904Y-11283390D02*
X90190476Y-11854819D01*
X90190476Y-11854819D02*
X90809523Y-11854819D01*
X85238094Y-15219104D02*
X85714284Y-15219104D01*
X85142856Y-15504819D02*
X85476189Y-14504819D01*
X85476189Y-14504819D02*
X85809522Y-15504819D01*
X86142856Y-14838152D02*
X86142856Y-15504819D01*
X86142856Y-14933390D02*
X86190475Y-14885771D01*
X86190475Y-14885771D02*
X86285713Y-14838152D01*
X86285713Y-14838152D02*
X86428570Y-14838152D01*
X86428570Y-14838152D02*
X86523808Y-14885771D01*
X86523808Y-14885771D02*
X86571427Y-14981009D01*
X86571427Y-14981009D02*
X86571427Y-15504819D01*
X86904761Y-14838152D02*
X87285713Y-14838152D01*
X87047618Y-14504819D02*
X87047618Y-15361961D01*
X87047618Y-15361961D02*
X87095237Y-15457200D01*
X87095237Y-15457200D02*
X87190475Y-15504819D01*
X87190475Y-15504819D02*
X87285713Y-15504819D01*
X87999999Y-15457200D02*
X87904761Y-15504819D01*
X87904761Y-15504819D02*
X87714285Y-15504819D01*
X87714285Y-15504819D02*
X87619047Y-15457200D01*
X87619047Y-15457200D02*
X87571428Y-15361961D01*
X87571428Y-15361961D02*
X87571428Y-14981009D01*
X87571428Y-14981009D02*
X87619047Y-14885771D01*
X87619047Y-14885771D02*
X87714285Y-14838152D01*
X87714285Y-14838152D02*
X87904761Y-14838152D01*
X87904761Y-14838152D02*
X87999999Y-14885771D01*
X87999999Y-14885771D02*
X88047618Y-14981009D01*
X88047618Y-14981009D02*
X88047618Y-15076247D01*
X88047618Y-15076247D02*
X87571428Y-15171485D01*
X88476190Y-14838152D02*
X88476190Y-15504819D01*
X88476190Y-14933390D02*
X88523809Y-14885771D01*
X88523809Y-14885771D02*
X88619047Y-14838152D01*
X88619047Y-14838152D02*
X88761904Y-14838152D01*
X88761904Y-14838152D02*
X88857142Y-14885771D01*
X88857142Y-14885771D02*
X88904761Y-14981009D01*
X88904761Y-14981009D02*
X88904761Y-15504819D01*
X89380952Y-14838152D02*
X89380952Y-15504819D01*
X89380952Y-14933390D02*
X89428571Y-14885771D01*
X89428571Y-14885771D02*
X89523809Y-14838152D01*
X89523809Y-14838152D02*
X89666666Y-14838152D01*
X89666666Y-14838152D02*
X89761904Y-14885771D01*
X89761904Y-14885771D02*
X89809523Y-14981009D01*
X89809523Y-14981009D02*
X89809523Y-15504819D01*
X90714285Y-15504819D02*
X90714285Y-14981009D01*
X90714285Y-14981009D02*
X90666666Y-14885771D01*
X90666666Y-14885771D02*
X90571428Y-14838152D01*
X90571428Y-14838152D02*
X90380952Y-14838152D01*
X90380952Y-14838152D02*
X90285714Y-14885771D01*
X90714285Y-15457200D02*
X90619047Y-15504819D01*
X90619047Y-15504819D02*
X90380952Y-15504819D01*
X90380952Y-15504819D02*
X90285714Y-15457200D01*
X90285714Y-15457200D02*
X90238095Y-15361961D01*
X90238095Y-15361961D02*
X90238095Y-15266723D01*
X90238095Y-15266723D02*
X90285714Y-15171485D01*
X90285714Y-15171485D02*
X90380952Y-15123866D01*
X90380952Y-15123866D02*
X90619047Y-15123866D01*
X90619047Y-15123866D02*
X90714285Y-15076247D01*
X91904762Y-15219104D02*
X92380952Y-15219104D01*
X91809524Y-15504819D02*
X92142857Y-14504819D01*
X92142857Y-14504819D02*
X92476190Y-15504819D01*
X92809524Y-15504819D02*
X92809524Y-14838152D01*
X92809524Y-15028628D02*
X92857143Y-14933390D01*
X92857143Y-14933390D02*
X92904762Y-14885771D01*
X92904762Y-14885771D02*
X93000000Y-14838152D01*
X93000000Y-14838152D02*
X93095238Y-14838152D01*
X93809524Y-15457200D02*
X93714286Y-15504819D01*
X93714286Y-15504819D02*
X93523810Y-15504819D01*
X93523810Y-15504819D02*
X93428572Y-15457200D01*
X93428572Y-15457200D02*
X93380953Y-15361961D01*
X93380953Y-15361961D02*
X93380953Y-14981009D01*
X93380953Y-14981009D02*
X93428572Y-14885771D01*
X93428572Y-14885771D02*
X93523810Y-14838152D01*
X93523810Y-14838152D02*
X93714286Y-14838152D01*
X93714286Y-14838152D02*
X93809524Y-14885771D01*
X93809524Y-14885771D02*
X93857143Y-14981009D01*
X93857143Y-14981009D02*
X93857143Y-15076247D01*
X93857143Y-15076247D02*
X93380953Y-15171485D01*
X94714286Y-15504819D02*
X94714286Y-14981009D01*
X94714286Y-14981009D02*
X94666667Y-14885771D01*
X94666667Y-14885771D02*
X94571429Y-14838152D01*
X94571429Y-14838152D02*
X94380953Y-14838152D01*
X94380953Y-14838152D02*
X94285715Y-14885771D01*
X94714286Y-15457200D02*
X94619048Y-15504819D01*
X94619048Y-15504819D02*
X94380953Y-15504819D01*
X94380953Y-15504819D02*
X94285715Y-15457200D01*
X94285715Y-15457200D02*
X94238096Y-15361961D01*
X94238096Y-15361961D02*
X94238096Y-15266723D01*
X94238096Y-15266723D02*
X94285715Y-15171485D01*
X94285715Y-15171485D02*
X94380953Y-15123866D01*
X94380953Y-15123866D02*
X94619048Y-15123866D01*
X94619048Y-15123866D02*
X94714286Y-15076247D01*
X79453333Y-23789580D02*
X79405714Y-23837200D01*
X79405714Y-23837200D02*
X79262857Y-23884819D01*
X79262857Y-23884819D02*
X79167619Y-23884819D01*
X79167619Y-23884819D02*
X79024762Y-23837200D01*
X79024762Y-23837200D02*
X78929524Y-23741961D01*
X78929524Y-23741961D02*
X78881905Y-23646723D01*
X78881905Y-23646723D02*
X78834286Y-23456247D01*
X78834286Y-23456247D02*
X78834286Y-23313390D01*
X78834286Y-23313390D02*
X78881905Y-23122914D01*
X78881905Y-23122914D02*
X78929524Y-23027676D01*
X78929524Y-23027676D02*
X79024762Y-22932438D01*
X79024762Y-22932438D02*
X79167619Y-22884819D01*
X79167619Y-22884819D02*
X79262857Y-22884819D01*
X79262857Y-22884819D02*
X79405714Y-22932438D01*
X79405714Y-22932438D02*
X79453333Y-22980057D01*
X79786667Y-22884819D02*
X80405714Y-22884819D01*
X80405714Y-22884819D02*
X80072381Y-23265771D01*
X80072381Y-23265771D02*
X80215238Y-23265771D01*
X80215238Y-23265771D02*
X80310476Y-23313390D01*
X80310476Y-23313390D02*
X80358095Y-23361009D01*
X80358095Y-23361009D02*
X80405714Y-23456247D01*
X80405714Y-23456247D02*
X80405714Y-23694342D01*
X80405714Y-23694342D02*
X80358095Y-23789580D01*
X80358095Y-23789580D02*
X80310476Y-23837200D01*
X80310476Y-23837200D02*
X80215238Y-23884819D01*
X80215238Y-23884819D02*
X79929524Y-23884819D01*
X79929524Y-23884819D02*
X79834286Y-23837200D01*
X79834286Y-23837200D02*
X79786667Y-23789580D01*
X98366666Y-17654819D02*
X98033333Y-17178628D01*
X97795238Y-17654819D02*
X97795238Y-16654819D01*
X97795238Y-16654819D02*
X98176190Y-16654819D01*
X98176190Y-16654819D02*
X98271428Y-16702438D01*
X98271428Y-16702438D02*
X98319047Y-16750057D01*
X98319047Y-16750057D02*
X98366666Y-16845295D01*
X98366666Y-16845295D02*
X98366666Y-16988152D01*
X98366666Y-16988152D02*
X98319047Y-17083390D01*
X98319047Y-17083390D02*
X98271428Y-17131009D01*
X98271428Y-17131009D02*
X98176190Y-17178628D01*
X98176190Y-17178628D02*
X97795238Y-17178628D01*
X98795238Y-17131009D02*
X99128571Y-17131009D01*
X99271428Y-17654819D02*
X98795238Y-17654819D01*
X98795238Y-17654819D02*
X98795238Y-16654819D01*
X98795238Y-16654819D02*
X99271428Y-16654819D01*
X100033333Y-17131009D02*
X99700000Y-17131009D01*
X99700000Y-17654819D02*
X99700000Y-16654819D01*
X99700000Y-16654819D02*
X100176190Y-16654819D01*
X100700000Y-16654819D02*
X100700000Y-16892914D01*
X100461905Y-16797676D02*
X100700000Y-16892914D01*
X100700000Y-16892914D02*
X100938095Y-16797676D01*
X100557143Y-17083390D02*
X100700000Y-16892914D01*
X100700000Y-16892914D02*
X100842857Y-17083390D01*
X101461905Y-16654819D02*
X101461905Y-16892914D01*
X101223810Y-16797676D02*
X101461905Y-16892914D01*
X101461905Y-16892914D02*
X101700000Y-16797676D01*
X101319048Y-17083390D02*
X101461905Y-16892914D01*
X101461905Y-16892914D02*
X101604762Y-17083390D01*
X82705714Y-71854819D02*
X82705714Y-70854819D01*
X82705714Y-70854819D02*
X83039047Y-71569104D01*
X83039047Y-71569104D02*
X83372380Y-70854819D01*
X83372380Y-70854819D02*
X83372380Y-71854819D01*
X83848571Y-71854819D02*
X83848571Y-70854819D01*
X83848571Y-70854819D02*
X84419999Y-71854819D01*
X84419999Y-71854819D02*
X84419999Y-70854819D01*
X84753333Y-70854819D02*
X85324761Y-70854819D01*
X85039047Y-71854819D02*
X85039047Y-70854819D01*
X86181904Y-71854819D02*
X85610476Y-71854819D01*
X85896190Y-71854819D02*
X85896190Y-70854819D01*
X85896190Y-70854819D02*
X85800952Y-70997676D01*
X85800952Y-70997676D02*
X85705714Y-71092914D01*
X85705714Y-71092914D02*
X85610476Y-71140533D01*
X77338095Y-45154819D02*
X77338095Y-45964342D01*
X77338095Y-45964342D02*
X77385714Y-46059580D01*
X77385714Y-46059580D02*
X77433333Y-46107200D01*
X77433333Y-46107200D02*
X77528571Y-46154819D01*
X77528571Y-46154819D02*
X77719047Y-46154819D01*
X77719047Y-46154819D02*
X77814285Y-46107200D01*
X77814285Y-46107200D02*
X77861904Y-46059580D01*
X77861904Y-46059580D02*
X77909523Y-45964342D01*
X77909523Y-45964342D02*
X77909523Y-45154819D01*
X78290476Y-45154819D02*
X78909523Y-45154819D01*
X78909523Y-45154819D02*
X78576190Y-45535771D01*
X78576190Y-45535771D02*
X78719047Y-45535771D01*
X78719047Y-45535771D02*
X78814285Y-45583390D01*
X78814285Y-45583390D02*
X78861904Y-45631009D01*
X78861904Y-45631009D02*
X78909523Y-45726247D01*
X78909523Y-45726247D02*
X78909523Y-45964342D01*
X78909523Y-45964342D02*
X78861904Y-46059580D01*
X78861904Y-46059580D02*
X78814285Y-46107200D01*
X78814285Y-46107200D02*
X78719047Y-46154819D01*
X78719047Y-46154819D02*
X78433333Y-46154819D01*
X78433333Y-46154819D02*
X78338095Y-46107200D01*
X78338095Y-46107200D02*
X78290476Y-46059580D01*
X78059580Y-23316666D02*
X78107200Y-23364285D01*
X78107200Y-23364285D02*
X78154819Y-23507142D01*
X78154819Y-23507142D02*
X78154819Y-23602380D01*
X78154819Y-23602380D02*
X78107200Y-23745237D01*
X78107200Y-23745237D02*
X78011961Y-23840475D01*
X78011961Y-23840475D02*
X77916723Y-23888094D01*
X77916723Y-23888094D02*
X77726247Y-23935713D01*
X77726247Y-23935713D02*
X77583390Y-23935713D01*
X77583390Y-23935713D02*
X77392914Y-23888094D01*
X77392914Y-23888094D02*
X77297676Y-23840475D01*
X77297676Y-23840475D02*
X77202438Y-23745237D01*
X77202438Y-23745237D02*
X77154819Y-23602380D01*
X77154819Y-23602380D02*
X77154819Y-23507142D01*
X77154819Y-23507142D02*
X77202438Y-23364285D01*
X77202438Y-23364285D02*
X77250057Y-23316666D01*
X77488152Y-22459523D02*
X78154819Y-22459523D01*
X77107200Y-22697618D02*
X77821485Y-22935713D01*
X77821485Y-22935713D02*
X77821485Y-22316666D01*
X84507142Y-58954819D02*
X84173809Y-58478628D01*
X83935714Y-58954819D02*
X83935714Y-57954819D01*
X83935714Y-57954819D02*
X84316666Y-57954819D01*
X84316666Y-57954819D02*
X84411904Y-58002438D01*
X84411904Y-58002438D02*
X84459523Y-58050057D01*
X84459523Y-58050057D02*
X84507142Y-58145295D01*
X84507142Y-58145295D02*
X84507142Y-58288152D01*
X84507142Y-58288152D02*
X84459523Y-58383390D01*
X84459523Y-58383390D02*
X84411904Y-58431009D01*
X84411904Y-58431009D02*
X84316666Y-58478628D01*
X84316666Y-58478628D02*
X83935714Y-58478628D01*
X85459523Y-58954819D02*
X84888095Y-58954819D01*
X85173809Y-58954819D02*
X85173809Y-57954819D01*
X85173809Y-57954819D02*
X85078571Y-58097676D01*
X85078571Y-58097676D02*
X84983333Y-58192914D01*
X84983333Y-58192914D02*
X84888095Y-58240533D01*
X85840476Y-58050057D02*
X85888095Y-58002438D01*
X85888095Y-58002438D02*
X85983333Y-57954819D01*
X85983333Y-57954819D02*
X86221428Y-57954819D01*
X86221428Y-57954819D02*
X86316666Y-58002438D01*
X86316666Y-58002438D02*
X86364285Y-58050057D01*
X86364285Y-58050057D02*
X86411904Y-58145295D01*
X86411904Y-58145295D02*
X86411904Y-58240533D01*
X86411904Y-58240533D02*
X86364285Y-58383390D01*
X86364285Y-58383390D02*
X85792857Y-58954819D01*
X85792857Y-58954819D02*
X86411904Y-58954819D01*
X86814819Y-44838094D02*
X85814819Y-44838094D01*
X85814819Y-44838094D02*
X85814819Y-44599999D01*
X85814819Y-44599999D02*
X85862438Y-44457142D01*
X85862438Y-44457142D02*
X85957676Y-44361904D01*
X85957676Y-44361904D02*
X86052914Y-44314285D01*
X86052914Y-44314285D02*
X86243390Y-44266666D01*
X86243390Y-44266666D02*
X86386247Y-44266666D01*
X86386247Y-44266666D02*
X86576723Y-44314285D01*
X86576723Y-44314285D02*
X86671961Y-44361904D01*
X86671961Y-44361904D02*
X86767200Y-44457142D01*
X86767200Y-44457142D02*
X86814819Y-44599999D01*
X86814819Y-44599999D02*
X86814819Y-44838094D01*
X86814819Y-43314285D02*
X86814819Y-43885713D01*
X86814819Y-43599999D02*
X85814819Y-43599999D01*
X85814819Y-43599999D02*
X85957676Y-43695237D01*
X85957676Y-43695237D02*
X86052914Y-43790475D01*
X86052914Y-43790475D02*
X86100533Y-43885713D01*
X93459523Y-30769580D02*
X93411904Y-30817200D01*
X93411904Y-30817200D02*
X93269047Y-30864819D01*
X93269047Y-30864819D02*
X93173809Y-30864819D01*
X93173809Y-30864819D02*
X93030952Y-30817200D01*
X93030952Y-30817200D02*
X92935714Y-30721961D01*
X92935714Y-30721961D02*
X92888095Y-30626723D01*
X92888095Y-30626723D02*
X92840476Y-30436247D01*
X92840476Y-30436247D02*
X92840476Y-30293390D01*
X92840476Y-30293390D02*
X92888095Y-30102914D01*
X92888095Y-30102914D02*
X92935714Y-30007676D01*
X92935714Y-30007676D02*
X93030952Y-29912438D01*
X93030952Y-29912438D02*
X93173809Y-29864819D01*
X93173809Y-29864819D02*
X93269047Y-29864819D01*
X93269047Y-29864819D02*
X93411904Y-29912438D01*
X93411904Y-29912438D02*
X93459523Y-29960057D01*
X93888095Y-30864819D02*
X93888095Y-29864819D01*
X93888095Y-30341009D02*
X94459523Y-30341009D01*
X94459523Y-30864819D02*
X94459523Y-29864819D01*
X95126190Y-29864819D02*
X95221428Y-29864819D01*
X95221428Y-29864819D02*
X95316666Y-29912438D01*
X95316666Y-29912438D02*
X95364285Y-29960057D01*
X95364285Y-29960057D02*
X95411904Y-30055295D01*
X95411904Y-30055295D02*
X95459523Y-30245771D01*
X95459523Y-30245771D02*
X95459523Y-30483866D01*
X95459523Y-30483866D02*
X95411904Y-30674342D01*
X95411904Y-30674342D02*
X95364285Y-30769580D01*
X95364285Y-30769580D02*
X95316666Y-30817200D01*
X95316666Y-30817200D02*
X95221428Y-30864819D01*
X95221428Y-30864819D02*
X95126190Y-30864819D01*
X95126190Y-30864819D02*
X95030952Y-30817200D01*
X95030952Y-30817200D02*
X94983333Y-30769580D01*
X94983333Y-30769580D02*
X94935714Y-30674342D01*
X94935714Y-30674342D02*
X94888095Y-30483866D01*
X94888095Y-30483866D02*
X94888095Y-30245771D01*
X94888095Y-30245771D02*
X94935714Y-30055295D01*
X94935714Y-30055295D02*
X94983333Y-29960057D01*
X94983333Y-29960057D02*
X95030952Y-29912438D01*
X95030952Y-29912438D02*
X95126190Y-29864819D01*
X80033333Y-19059580D02*
X79985714Y-19107200D01*
X79985714Y-19107200D02*
X79842857Y-19154819D01*
X79842857Y-19154819D02*
X79747619Y-19154819D01*
X79747619Y-19154819D02*
X79604762Y-19107200D01*
X79604762Y-19107200D02*
X79509524Y-19011961D01*
X79509524Y-19011961D02*
X79461905Y-18916723D01*
X79461905Y-18916723D02*
X79414286Y-18726247D01*
X79414286Y-18726247D02*
X79414286Y-18583390D01*
X79414286Y-18583390D02*
X79461905Y-18392914D01*
X79461905Y-18392914D02*
X79509524Y-18297676D01*
X79509524Y-18297676D02*
X79604762Y-18202438D01*
X79604762Y-18202438D02*
X79747619Y-18154819D01*
X79747619Y-18154819D02*
X79842857Y-18154819D01*
X79842857Y-18154819D02*
X79985714Y-18202438D01*
X79985714Y-18202438D02*
X80033333Y-18250057D01*
X80938095Y-18154819D02*
X80461905Y-18154819D01*
X80461905Y-18154819D02*
X80414286Y-18631009D01*
X80414286Y-18631009D02*
X80461905Y-18583390D01*
X80461905Y-18583390D02*
X80557143Y-18535771D01*
X80557143Y-18535771D02*
X80795238Y-18535771D01*
X80795238Y-18535771D02*
X80890476Y-18583390D01*
X80890476Y-18583390D02*
X80938095Y-18631009D01*
X80938095Y-18631009D02*
X80985714Y-18726247D01*
X80985714Y-18726247D02*
X80985714Y-18964342D01*
X80985714Y-18964342D02*
X80938095Y-19059580D01*
X80938095Y-19059580D02*
X80890476Y-19107200D01*
X80890476Y-19107200D02*
X80795238Y-19154819D01*
X80795238Y-19154819D02*
X80557143Y-19154819D01*
X80557143Y-19154819D02*
X80461905Y-19107200D01*
X80461905Y-19107200D02*
X80414286Y-19059580D01*
X90257142Y-65754819D02*
X89923809Y-65278628D01*
X89685714Y-65754819D02*
X89685714Y-64754819D01*
X89685714Y-64754819D02*
X90066666Y-64754819D01*
X90066666Y-64754819D02*
X90161904Y-64802438D01*
X90161904Y-64802438D02*
X90209523Y-64850057D01*
X90209523Y-64850057D02*
X90257142Y-64945295D01*
X90257142Y-64945295D02*
X90257142Y-65088152D01*
X90257142Y-65088152D02*
X90209523Y-65183390D01*
X90209523Y-65183390D02*
X90161904Y-65231009D01*
X90161904Y-65231009D02*
X90066666Y-65278628D01*
X90066666Y-65278628D02*
X89685714Y-65278628D01*
X90638095Y-65707200D02*
X90780952Y-65754819D01*
X90780952Y-65754819D02*
X91019047Y-65754819D01*
X91019047Y-65754819D02*
X91114285Y-65707200D01*
X91114285Y-65707200D02*
X91161904Y-65659580D01*
X91161904Y-65659580D02*
X91209523Y-65564342D01*
X91209523Y-65564342D02*
X91209523Y-65469104D01*
X91209523Y-65469104D02*
X91161904Y-65373866D01*
X91161904Y-65373866D02*
X91114285Y-65326247D01*
X91114285Y-65326247D02*
X91019047Y-65278628D01*
X91019047Y-65278628D02*
X90828571Y-65231009D01*
X90828571Y-65231009D02*
X90733333Y-65183390D01*
X90733333Y-65183390D02*
X90685714Y-65135771D01*
X90685714Y-65135771D02*
X90638095Y-65040533D01*
X90638095Y-65040533D02*
X90638095Y-64945295D01*
X90638095Y-64945295D02*
X90685714Y-64850057D01*
X90685714Y-64850057D02*
X90733333Y-64802438D01*
X90733333Y-64802438D02*
X90828571Y-64754819D01*
X90828571Y-64754819D02*
X91066666Y-64754819D01*
X91066666Y-64754819D02*
X91209523Y-64802438D01*
X92161904Y-65754819D02*
X91590476Y-65754819D01*
X91876190Y-65754819D02*
X91876190Y-64754819D01*
X91876190Y-64754819D02*
X91780952Y-64897676D01*
X91780952Y-64897676D02*
X91685714Y-64992914D01*
X91685714Y-64992914D02*
X91590476Y-65040533D01*
X90733333Y-58454819D02*
X90400000Y-57978628D01*
X90161905Y-58454819D02*
X90161905Y-57454819D01*
X90161905Y-57454819D02*
X90542857Y-57454819D01*
X90542857Y-57454819D02*
X90638095Y-57502438D01*
X90638095Y-57502438D02*
X90685714Y-57550057D01*
X90685714Y-57550057D02*
X90733333Y-57645295D01*
X90733333Y-57645295D02*
X90733333Y-57788152D01*
X90733333Y-57788152D02*
X90685714Y-57883390D01*
X90685714Y-57883390D02*
X90638095Y-57931009D01*
X90638095Y-57931009D02*
X90542857Y-57978628D01*
X90542857Y-57978628D02*
X90161905Y-57978628D01*
X91733333Y-58454819D02*
X91400000Y-57978628D01*
X91161905Y-58454819D02*
X91161905Y-57454819D01*
X91161905Y-57454819D02*
X91542857Y-57454819D01*
X91542857Y-57454819D02*
X91638095Y-57502438D01*
X91638095Y-57502438D02*
X91685714Y-57550057D01*
X91685714Y-57550057D02*
X91733333Y-57645295D01*
X91733333Y-57645295D02*
X91733333Y-57788152D01*
X91733333Y-57788152D02*
X91685714Y-57883390D01*
X91685714Y-57883390D02*
X91638095Y-57931009D01*
X91638095Y-57931009D02*
X91542857Y-57978628D01*
X91542857Y-57978628D02*
X91161905Y-57978628D01*
X92114286Y-57550057D02*
X92161905Y-57502438D01*
X92161905Y-57502438D02*
X92257143Y-57454819D01*
X92257143Y-57454819D02*
X92495238Y-57454819D01*
X92495238Y-57454819D02*
X92590476Y-57502438D01*
X92590476Y-57502438D02*
X92638095Y-57550057D01*
X92638095Y-57550057D02*
X92685714Y-57645295D01*
X92685714Y-57645295D02*
X92685714Y-57740533D01*
X92685714Y-57740533D02*
X92638095Y-57883390D01*
X92638095Y-57883390D02*
X92066667Y-58454819D01*
X92066667Y-58454819D02*
X92685714Y-58454819D01*
X92509580Y-31641666D02*
X92557200Y-31689285D01*
X92557200Y-31689285D02*
X92604819Y-31832142D01*
X92604819Y-31832142D02*
X92604819Y-31927380D01*
X92604819Y-31927380D02*
X92557200Y-32070237D01*
X92557200Y-32070237D02*
X92461961Y-32165475D01*
X92461961Y-32165475D02*
X92366723Y-32213094D01*
X92366723Y-32213094D02*
X92176247Y-32260713D01*
X92176247Y-32260713D02*
X92033390Y-32260713D01*
X92033390Y-32260713D02*
X91842914Y-32213094D01*
X91842914Y-32213094D02*
X91747676Y-32165475D01*
X91747676Y-32165475D02*
X91652438Y-32070237D01*
X91652438Y-32070237D02*
X91604819Y-31927380D01*
X91604819Y-31927380D02*
X91604819Y-31832142D01*
X91604819Y-31832142D02*
X91652438Y-31689285D01*
X91652438Y-31689285D02*
X91700057Y-31641666D01*
X91604819Y-30784523D02*
X91604819Y-30974999D01*
X91604819Y-30974999D02*
X91652438Y-31070237D01*
X91652438Y-31070237D02*
X91700057Y-31117856D01*
X91700057Y-31117856D02*
X91842914Y-31213094D01*
X91842914Y-31213094D02*
X92033390Y-31260713D01*
X92033390Y-31260713D02*
X92414342Y-31260713D01*
X92414342Y-31260713D02*
X92509580Y-31213094D01*
X92509580Y-31213094D02*
X92557200Y-31165475D01*
X92557200Y-31165475D02*
X92604819Y-31070237D01*
X92604819Y-31070237D02*
X92604819Y-30879761D01*
X92604819Y-30879761D02*
X92557200Y-30784523D01*
X92557200Y-30784523D02*
X92509580Y-30736904D01*
X92509580Y-30736904D02*
X92414342Y-30689285D01*
X92414342Y-30689285D02*
X92176247Y-30689285D01*
X92176247Y-30689285D02*
X92081009Y-30736904D01*
X92081009Y-30736904D02*
X92033390Y-30784523D01*
X92033390Y-30784523D02*
X91985771Y-30879761D01*
X91985771Y-30879761D02*
X91985771Y-31070237D01*
X91985771Y-31070237D02*
X92033390Y-31165475D01*
X92033390Y-31165475D02*
X92081009Y-31213094D01*
X92081009Y-31213094D02*
X92176247Y-31260713D01*
X87933333Y-65654819D02*
X87600000Y-65178628D01*
X87361905Y-65654819D02*
X87361905Y-64654819D01*
X87361905Y-64654819D02*
X87742857Y-64654819D01*
X87742857Y-64654819D02*
X87838095Y-64702438D01*
X87838095Y-64702438D02*
X87885714Y-64750057D01*
X87885714Y-64750057D02*
X87933333Y-64845295D01*
X87933333Y-64845295D02*
X87933333Y-64988152D01*
X87933333Y-64988152D02*
X87885714Y-65083390D01*
X87885714Y-65083390D02*
X87838095Y-65131009D01*
X87838095Y-65131009D02*
X87742857Y-65178628D01*
X87742857Y-65178628D02*
X87361905Y-65178628D01*
X88838095Y-64654819D02*
X88361905Y-64654819D01*
X88361905Y-64654819D02*
X88314286Y-65131009D01*
X88314286Y-65131009D02*
X88361905Y-65083390D01*
X88361905Y-65083390D02*
X88457143Y-65035771D01*
X88457143Y-65035771D02*
X88695238Y-65035771D01*
X88695238Y-65035771D02*
X88790476Y-65083390D01*
X88790476Y-65083390D02*
X88838095Y-65131009D01*
X88838095Y-65131009D02*
X88885714Y-65226247D01*
X88885714Y-65226247D02*
X88885714Y-65464342D01*
X88885714Y-65464342D02*
X88838095Y-65559580D01*
X88838095Y-65559580D02*
X88790476Y-65607200D01*
X88790476Y-65607200D02*
X88695238Y-65654819D01*
X88695238Y-65654819D02*
X88457143Y-65654819D01*
X88457143Y-65654819D02*
X88361905Y-65607200D01*
X88361905Y-65607200D02*
X88314286Y-65559580D01*
X95119580Y-42990476D02*
X95167200Y-43038095D01*
X95167200Y-43038095D02*
X95214819Y-43180952D01*
X95214819Y-43180952D02*
X95214819Y-43276190D01*
X95214819Y-43276190D02*
X95167200Y-43419047D01*
X95167200Y-43419047D02*
X95071961Y-43514285D01*
X95071961Y-43514285D02*
X94976723Y-43561904D01*
X94976723Y-43561904D02*
X94786247Y-43609523D01*
X94786247Y-43609523D02*
X94643390Y-43609523D01*
X94643390Y-43609523D02*
X94452914Y-43561904D01*
X94452914Y-43561904D02*
X94357676Y-43514285D01*
X94357676Y-43514285D02*
X94262438Y-43419047D01*
X94262438Y-43419047D02*
X94214819Y-43276190D01*
X94214819Y-43276190D02*
X94214819Y-43180952D01*
X94214819Y-43180952D02*
X94262438Y-43038095D01*
X94262438Y-43038095D02*
X94310057Y-42990476D01*
X95214819Y-42561904D02*
X94214819Y-42561904D01*
X94691009Y-42561904D02*
X94691009Y-41990476D01*
X95214819Y-41990476D02*
X94214819Y-41990476D01*
X95214819Y-40990476D02*
X95214819Y-41561904D01*
X95214819Y-41276190D02*
X94214819Y-41276190D01*
X94214819Y-41276190D02*
X94357676Y-41371428D01*
X94357676Y-41371428D02*
X94452914Y-41466666D01*
X94452914Y-41466666D02*
X94500533Y-41561904D01*
X89333333Y-63881009D02*
X89000000Y-63881009D01*
X89000000Y-64404819D02*
X89000000Y-63404819D01*
X89000000Y-63404819D02*
X89476190Y-63404819D01*
X89857143Y-63881009D02*
X90190476Y-63881009D01*
X90333333Y-64404819D02*
X89857143Y-64404819D01*
X89857143Y-64404819D02*
X89857143Y-63404819D01*
X89857143Y-63404819D02*
X90333333Y-63404819D01*
X90619048Y-63404819D02*
X91190476Y-63404819D01*
X90904762Y-64404819D02*
X90904762Y-63404819D01*
X91476191Y-63500057D02*
X91523810Y-63452438D01*
X91523810Y-63452438D02*
X91619048Y-63404819D01*
X91619048Y-63404819D02*
X91857143Y-63404819D01*
X91857143Y-63404819D02*
X91952381Y-63452438D01*
X91952381Y-63452438D02*
X92000000Y-63500057D01*
X92000000Y-63500057D02*
X92047619Y-63595295D01*
X92047619Y-63595295D02*
X92047619Y-63690533D01*
X92047619Y-63690533D02*
X92000000Y-63833390D01*
X92000000Y-63833390D02*
X91428572Y-64404819D01*
X91428572Y-64404819D02*
X92047619Y-64404819D01*
X85933333Y-65559580D02*
X85885714Y-65607200D01*
X85885714Y-65607200D02*
X85742857Y-65654819D01*
X85742857Y-65654819D02*
X85647619Y-65654819D01*
X85647619Y-65654819D02*
X85504762Y-65607200D01*
X85504762Y-65607200D02*
X85409524Y-65511961D01*
X85409524Y-65511961D02*
X85361905Y-65416723D01*
X85361905Y-65416723D02*
X85314286Y-65226247D01*
X85314286Y-65226247D02*
X85314286Y-65083390D01*
X85314286Y-65083390D02*
X85361905Y-64892914D01*
X85361905Y-64892914D02*
X85409524Y-64797676D01*
X85409524Y-64797676D02*
X85504762Y-64702438D01*
X85504762Y-64702438D02*
X85647619Y-64654819D01*
X85647619Y-64654819D02*
X85742857Y-64654819D01*
X85742857Y-64654819D02*
X85885714Y-64702438D01*
X85885714Y-64702438D02*
X85933333Y-64750057D01*
X86504762Y-65083390D02*
X86409524Y-65035771D01*
X86409524Y-65035771D02*
X86361905Y-64988152D01*
X86361905Y-64988152D02*
X86314286Y-64892914D01*
X86314286Y-64892914D02*
X86314286Y-64845295D01*
X86314286Y-64845295D02*
X86361905Y-64750057D01*
X86361905Y-64750057D02*
X86409524Y-64702438D01*
X86409524Y-64702438D02*
X86504762Y-64654819D01*
X86504762Y-64654819D02*
X86695238Y-64654819D01*
X86695238Y-64654819D02*
X86790476Y-64702438D01*
X86790476Y-64702438D02*
X86838095Y-64750057D01*
X86838095Y-64750057D02*
X86885714Y-64845295D01*
X86885714Y-64845295D02*
X86885714Y-64892914D01*
X86885714Y-64892914D02*
X86838095Y-64988152D01*
X86838095Y-64988152D02*
X86790476Y-65035771D01*
X86790476Y-65035771D02*
X86695238Y-65083390D01*
X86695238Y-65083390D02*
X86504762Y-65083390D01*
X86504762Y-65083390D02*
X86409524Y-65131009D01*
X86409524Y-65131009D02*
X86361905Y-65178628D01*
X86361905Y-65178628D02*
X86314286Y-65273866D01*
X86314286Y-65273866D02*
X86314286Y-65464342D01*
X86314286Y-65464342D02*
X86361905Y-65559580D01*
X86361905Y-65559580D02*
X86409524Y-65607200D01*
X86409524Y-65607200D02*
X86504762Y-65654819D01*
X86504762Y-65654819D02*
X86695238Y-65654819D01*
X86695238Y-65654819D02*
X86790476Y-65607200D01*
X86790476Y-65607200D02*
X86838095Y-65559580D01*
X86838095Y-65559580D02*
X86885714Y-65464342D01*
X86885714Y-65464342D02*
X86885714Y-65273866D01*
X86885714Y-65273866D02*
X86838095Y-65178628D01*
X86838095Y-65178628D02*
X86790476Y-65131009D01*
X86790476Y-65131009D02*
X86695238Y-65083390D01*
X98641666Y-64634819D02*
X98641666Y-65349104D01*
X98641666Y-65349104D02*
X98594047Y-65491961D01*
X98594047Y-65491961D02*
X98498809Y-65587200D01*
X98498809Y-65587200D02*
X98355952Y-65634819D01*
X98355952Y-65634819D02*
X98260714Y-65634819D01*
X99641666Y-65634819D02*
X99070238Y-65634819D01*
X99355952Y-65634819D02*
X99355952Y-64634819D01*
X99355952Y-64634819D02*
X99260714Y-64777676D01*
X99260714Y-64777676D02*
X99165476Y-64872914D01*
X99165476Y-64872914D02*
X99070238Y-64920533D01*
X82254819Y-20016666D02*
X81778628Y-20349999D01*
X82254819Y-20588094D02*
X81254819Y-20588094D01*
X81254819Y-20588094D02*
X81254819Y-20207142D01*
X81254819Y-20207142D02*
X81302438Y-20111904D01*
X81302438Y-20111904D02*
X81350057Y-20064285D01*
X81350057Y-20064285D02*
X81445295Y-20016666D01*
X81445295Y-20016666D02*
X81588152Y-20016666D01*
X81588152Y-20016666D02*
X81683390Y-20064285D01*
X81683390Y-20064285D02*
X81731009Y-20111904D01*
X81731009Y-20111904D02*
X81778628Y-20207142D01*
X81778628Y-20207142D02*
X81778628Y-20588094D01*
X81254819Y-19683332D02*
X81254819Y-19064285D01*
X81254819Y-19064285D02*
X81635771Y-19397618D01*
X81635771Y-19397618D02*
X81635771Y-19254761D01*
X81635771Y-19254761D02*
X81683390Y-19159523D01*
X81683390Y-19159523D02*
X81731009Y-19111904D01*
X81731009Y-19111904D02*
X81826247Y-19064285D01*
X81826247Y-19064285D02*
X82064342Y-19064285D01*
X82064342Y-19064285D02*
X82159580Y-19111904D01*
X82159580Y-19111904D02*
X82207200Y-19159523D01*
X82207200Y-19159523D02*
X82254819Y-19254761D01*
X82254819Y-19254761D02*
X82254819Y-19540475D01*
X82254819Y-19540475D02*
X82207200Y-19635713D01*
X82207200Y-19635713D02*
X82159580Y-19683332D01*
X94445714Y-71914819D02*
X94445714Y-70914819D01*
X94445714Y-70914819D02*
X94779047Y-71629104D01*
X94779047Y-71629104D02*
X95112380Y-70914819D01*
X95112380Y-70914819D02*
X95112380Y-71914819D01*
X95588571Y-71914819D02*
X95588571Y-70914819D01*
X95588571Y-70914819D02*
X96159999Y-71914819D01*
X96159999Y-71914819D02*
X96159999Y-70914819D01*
X96493333Y-70914819D02*
X97064761Y-70914819D01*
X96779047Y-71914819D02*
X96779047Y-70914819D01*
X97588571Y-70914819D02*
X97683809Y-70914819D01*
X97683809Y-70914819D02*
X97779047Y-70962438D01*
X97779047Y-70962438D02*
X97826666Y-71010057D01*
X97826666Y-71010057D02*
X97874285Y-71105295D01*
X97874285Y-71105295D02*
X97921904Y-71295771D01*
X97921904Y-71295771D02*
X97921904Y-71533866D01*
X97921904Y-71533866D02*
X97874285Y-71724342D01*
X97874285Y-71724342D02*
X97826666Y-71819580D01*
X97826666Y-71819580D02*
X97779047Y-71867200D01*
X97779047Y-71867200D02*
X97683809Y-71914819D01*
X97683809Y-71914819D02*
X97588571Y-71914819D01*
X97588571Y-71914819D02*
X97493333Y-71867200D01*
X97493333Y-71867200D02*
X97445714Y-71819580D01*
X97445714Y-71819580D02*
X97398095Y-71724342D01*
X97398095Y-71724342D02*
X97350476Y-71533866D01*
X97350476Y-71533866D02*
X97350476Y-71295771D01*
X97350476Y-71295771D02*
X97398095Y-71105295D01*
X97398095Y-71105295D02*
X97445714Y-71010057D01*
X97445714Y-71010057D02*
X97493333Y-70962438D01*
X97493333Y-70962438D02*
X97588571Y-70914819D01*
X77733333Y-38759580D02*
X77685714Y-38807200D01*
X77685714Y-38807200D02*
X77542857Y-38854819D01*
X77542857Y-38854819D02*
X77447619Y-38854819D01*
X77447619Y-38854819D02*
X77304762Y-38807200D01*
X77304762Y-38807200D02*
X77209524Y-38711961D01*
X77209524Y-38711961D02*
X77161905Y-38616723D01*
X77161905Y-38616723D02*
X77114286Y-38426247D01*
X77114286Y-38426247D02*
X77114286Y-38283390D01*
X77114286Y-38283390D02*
X77161905Y-38092914D01*
X77161905Y-38092914D02*
X77209524Y-37997676D01*
X77209524Y-37997676D02*
X77304762Y-37902438D01*
X77304762Y-37902438D02*
X77447619Y-37854819D01*
X77447619Y-37854819D02*
X77542857Y-37854819D01*
X77542857Y-37854819D02*
X77685714Y-37902438D01*
X77685714Y-37902438D02*
X77733333Y-37950057D01*
X78066667Y-37854819D02*
X78733333Y-37854819D01*
X78733333Y-37854819D02*
X78304762Y-38854819D01*
X86788095Y-58604819D02*
X86788095Y-59414342D01*
X86788095Y-59414342D02*
X86835714Y-59509580D01*
X86835714Y-59509580D02*
X86883333Y-59557200D01*
X86883333Y-59557200D02*
X86978571Y-59604819D01*
X86978571Y-59604819D02*
X87169047Y-59604819D01*
X87169047Y-59604819D02*
X87264285Y-59557200D01*
X87264285Y-59557200D02*
X87311904Y-59509580D01*
X87311904Y-59509580D02*
X87359523Y-59414342D01*
X87359523Y-59414342D02*
X87359523Y-58604819D01*
X88264285Y-58938152D02*
X88264285Y-59604819D01*
X88026190Y-58557200D02*
X87788095Y-59271485D01*
X87788095Y-59271485D02*
X88407142Y-59271485D01*
X78054819Y-64600000D02*
X78054819Y-65076190D01*
X78054819Y-65076190D02*
X78531009Y-65123809D01*
X78531009Y-65123809D02*
X78483390Y-65076190D01*
X78483390Y-65076190D02*
X78435771Y-64980952D01*
X78435771Y-64980952D02*
X78435771Y-64742857D01*
X78435771Y-64742857D02*
X78483390Y-64647619D01*
X78483390Y-64647619D02*
X78531009Y-64600000D01*
X78531009Y-64600000D02*
X78626247Y-64552381D01*
X78626247Y-64552381D02*
X78864342Y-64552381D01*
X78864342Y-64552381D02*
X78959580Y-64600000D01*
X78959580Y-64600000D02*
X79007200Y-64647619D01*
X79007200Y-64647619D02*
X79054819Y-64742857D01*
X79054819Y-64742857D02*
X79054819Y-64980952D01*
X79054819Y-64980952D02*
X79007200Y-65076190D01*
X79007200Y-65076190D02*
X78959580Y-65123809D01*
X78388152Y-64219047D02*
X79054819Y-63980952D01*
X79054819Y-63980952D02*
X78388152Y-63742857D01*
X79054819Y-59790475D02*
X79054819Y-60361903D01*
X79054819Y-60076189D02*
X78054819Y-60076189D01*
X78054819Y-60076189D02*
X78197676Y-60171427D01*
X78197676Y-60171427D02*
X78292914Y-60266665D01*
X78292914Y-60266665D02*
X78340533Y-60361903D01*
X78150057Y-59409522D02*
X78102438Y-59361903D01*
X78102438Y-59361903D02*
X78054819Y-59266665D01*
X78054819Y-59266665D02*
X78054819Y-59028570D01*
X78054819Y-59028570D02*
X78102438Y-58933332D01*
X78102438Y-58933332D02*
X78150057Y-58885713D01*
X78150057Y-58885713D02*
X78245295Y-58838094D01*
X78245295Y-58838094D02*
X78340533Y-58838094D01*
X78340533Y-58838094D02*
X78483390Y-58885713D01*
X78483390Y-58885713D02*
X79054819Y-59457141D01*
X79054819Y-59457141D02*
X79054819Y-58838094D01*
X78388152Y-58504760D02*
X79054819Y-58266665D01*
X79054819Y-58266665D02*
X78388152Y-58028570D01*
X83943333Y-65704819D02*
X83610000Y-65228628D01*
X83371905Y-65704819D02*
X83371905Y-64704819D01*
X83371905Y-64704819D02*
X83752857Y-64704819D01*
X83752857Y-64704819D02*
X83848095Y-64752438D01*
X83848095Y-64752438D02*
X83895714Y-64800057D01*
X83895714Y-64800057D02*
X83943333Y-64895295D01*
X83943333Y-64895295D02*
X83943333Y-65038152D01*
X83943333Y-65038152D02*
X83895714Y-65133390D01*
X83895714Y-65133390D02*
X83848095Y-65181009D01*
X83848095Y-65181009D02*
X83752857Y-65228628D01*
X83752857Y-65228628D02*
X83371905Y-65228628D01*
X84800476Y-65038152D02*
X84800476Y-65704819D01*
X84562381Y-64657200D02*
X84324286Y-65371485D01*
X84324286Y-65371485D02*
X84943333Y-65371485D01*
D11*
X92970000Y-61643641D02*
X92970000Y-61336359D01*
X93730000Y-61643641D02*
X93730000Y-61336359D01*
X89820000Y-44903752D02*
X89820000Y-42131248D01*
X93240000Y-44903752D02*
X93240000Y-42131248D01*
X83200000Y-28600000D02*
X83200000Y-29400000D01*
X83200000Y-29400000D02*
X84000000Y-29400000D01*
X83400000Y-12600000D02*
X96600000Y-12600000D01*
X83400000Y-18000000D02*
X96600000Y-18000000D01*
X83400000Y-29200000D02*
X83400000Y-12600000D01*
X84075000Y-12400000D02*
X83225000Y-12400000D01*
X96050000Y-12400000D02*
X96800000Y-12400000D01*
X96600000Y-12600000D02*
X96600000Y-29200000D01*
X96600000Y-29200000D02*
X83400000Y-29200000D01*
X96800000Y-12400000D02*
X96800000Y-13000000D01*
X96800000Y-28600000D02*
X96800000Y-29400000D01*
X96800000Y-29400000D02*
X96000000Y-29400000D01*
X79277836Y-23060000D02*
X79062164Y-23060000D01*
X79277836Y-22340000D02*
X79062164Y-22340000D01*
D12*
X98605000Y-28900000D02*
X98605000Y-28150000D01*
X100255000Y-28900000D02*
X98605000Y-28900000D01*
X102855000Y-27400000D02*
X102855000Y-24400000D01*
X98605000Y-23650000D02*
X98605000Y-22900000D01*
X98605000Y-22900000D02*
X100255000Y-22900000D01*
X98122600Y-28435000D02*
G75*
G03*
X98122600Y-28435000I-101600J0D01*
G01*
D11*
X88175000Y-57375000D02*
X88175000Y-56425000D01*
X88175000Y-56425000D02*
X93300000Y-56425000D01*
X88175000Y-47925000D02*
X89275000Y-47925000D01*
X88175000Y-46975000D02*
X88175000Y-47925000D01*
X86675000Y-57375000D02*
X88175000Y-57375000D01*
X86675000Y-46975000D02*
X88175000Y-46975000D01*
X79265580Y-21985000D02*
X78984420Y-21985000D01*
X79265580Y-20965000D02*
X78984420Y-20965000D01*
X83720000Y-58616359D02*
X83720000Y-58923641D01*
X82960000Y-58616359D02*
X82960000Y-58923641D01*
X87360000Y-46460000D02*
X89360000Y-46460000D01*
X87360000Y-46460000D02*
X87360000Y-42450000D01*
X89360000Y-46460000D02*
X89360000Y-42450000D01*
X97450000Y-42697500D02*
X97750000Y-42097500D01*
X98050000Y-42697500D02*
X97450000Y-42697500D01*
X97750000Y-42097500D02*
X98050000Y-42697500D01*
X95640000Y-41897500D02*
X95640000Y-40697500D01*
X102660000Y-41897500D02*
X95640000Y-41897500D01*
X93940000Y-40697500D02*
X93940000Y-31057500D01*
X95640000Y-40697500D02*
X93940000Y-40697500D01*
X93940000Y-31057500D02*
X95640000Y-31057500D01*
X95640000Y-31057500D02*
X95640000Y-29857500D01*
X95640000Y-29857500D02*
X102660000Y-29857500D01*
X102660000Y-29857500D02*
X102660000Y-41897500D01*
X78984420Y-19440000D02*
X79265580Y-19440000D01*
X78984420Y-20460000D02*
X79265580Y-20460000D01*
X92217500Y-64342258D02*
X92217500Y-63867742D01*
X93262500Y-64342258D02*
X93262500Y-63867742D01*
X93730000Y-58696359D02*
X93730000Y-59003641D01*
X92970000Y-58696359D02*
X92970000Y-59003641D01*
X90887500Y-31172500D02*
X90887500Y-31960000D01*
X91281250Y-31566250D02*
X90493750Y-31566250D01*
X91385563Y-32200000D02*
X90100000Y-32200000D01*
X91385563Y-32200000D02*
X92450000Y-33264437D01*
X86694437Y-32200000D02*
X87980000Y-32200000D01*
X86694437Y-32200000D02*
X85630000Y-33264437D01*
X92450000Y-33264437D02*
X92450000Y-39020000D01*
X85630000Y-33264437D02*
X85630000Y-39020000D01*
X92450000Y-39020000D02*
X90100000Y-39020000D01*
X85630000Y-39020000D02*
X87980000Y-39020000D01*
X88093641Y-64180000D02*
X87786359Y-64180000D01*
X88093641Y-63420000D02*
X87786359Y-63420000D01*
X97460000Y-55560000D02*
X97760000Y-54960000D01*
X98060000Y-55560000D02*
X97460000Y-55560000D01*
X97760000Y-54960000D02*
X98060000Y-55560000D01*
X95650000Y-54760000D02*
X95650000Y-53560000D01*
X102670000Y-54760000D02*
X95650000Y-54760000D01*
X93950000Y-53560000D02*
X93950000Y-43920000D01*
X95650000Y-53560000D02*
X93950000Y-53560000D01*
X93950000Y-43920000D02*
X95650000Y-43920000D01*
X95650000Y-43920000D02*
X95650000Y-42720000D01*
X95650000Y-42720000D02*
X102670000Y-42720000D01*
X102670000Y-42720000D02*
X102670000Y-54760000D01*
X91295000Y-59900000D02*
X88295000Y-59900000D01*
X89795000Y-63120000D02*
X88295000Y-63120000D01*
X86127836Y-64160000D02*
X85912164Y-64160000D01*
X86127836Y-63440000D02*
X85912164Y-63440000D01*
X99935000Y-56020000D02*
X98015000Y-56020000D01*
X94300000Y-56020000D02*
X96005000Y-56020000D01*
X98015000Y-65180000D02*
X99935000Y-65180000D01*
X96005000Y-65180000D02*
X94300000Y-65180000D01*
X94300000Y-65180000D02*
X94300000Y-56020000D01*
X80877500Y-22462258D02*
X80877500Y-21987742D01*
X81922500Y-22462258D02*
X81922500Y-21987742D01*
X77362500Y-39652500D02*
X78150000Y-39652500D01*
X77756250Y-39258750D02*
X77756250Y-40046250D01*
X78390000Y-39154437D02*
X78390000Y-40440000D01*
X78390000Y-39154437D02*
X79454437Y-38090000D01*
X78390000Y-43845563D02*
X78390000Y-42560000D01*
X78390000Y-43845563D02*
X79454437Y-44910000D01*
X79454437Y-38090000D02*
X85210000Y-38090000D01*
X79454437Y-44910000D02*
X85210000Y-44910000D01*
X85210000Y-38090000D02*
X85210000Y-40440000D01*
X85210000Y-44910000D02*
X85210000Y-42560000D01*
X86510000Y-59895000D02*
X83510000Y-59895000D01*
X85010000Y-63115000D02*
X83510000Y-63115000D01*
X82330000Y-66010000D02*
X81000000Y-66010000D01*
X82330000Y-64680000D02*
X82330000Y-66010000D01*
X82330000Y-63410000D02*
X82330000Y-58270000D01*
X82330000Y-63410000D02*
X79670000Y-63410000D01*
X82330000Y-58270000D02*
X79670000Y-58270000D01*
X79670000Y-63410000D02*
X79670000Y-58270000D01*
X84263641Y-64180000D02*
X83956359Y-64180000D01*
X84263641Y-63420000D02*
X83956359Y-63420000D01*
%LPC*%
D13*
X93350000Y-62000000D03*
X93350000Y-60980000D03*
D14*
X91530000Y-45655000D03*
X91530000Y-41380000D03*
D15*
X79800000Y-26500000D03*
D16*
X84100000Y-19600000D03*
X84100000Y-20400000D03*
X84100000Y-21200000D03*
X84100000Y-22000000D03*
X84100000Y-22800000D03*
X84100000Y-23600000D03*
X84100000Y-24400000D03*
X84100000Y-25200000D03*
X84100000Y-26000000D03*
X84100000Y-26800000D03*
X84100000Y-27600000D03*
D17*
X85200000Y-28500000D03*
X86000000Y-28500000D03*
X86800000Y-28500000D03*
X87600000Y-28500000D03*
X88400000Y-28500000D03*
X89200000Y-28500000D03*
X90000000Y-28500000D03*
X90800000Y-28500000D03*
X91600000Y-28500000D03*
X92400000Y-28500000D03*
X93200000Y-28500000D03*
X94000000Y-28500000D03*
X94800000Y-28500000D03*
D16*
X95900000Y-27600000D03*
X95900000Y-26800000D03*
X95900000Y-26000000D03*
X95900000Y-25200000D03*
X95900000Y-24400000D03*
X95900000Y-23600000D03*
X95900000Y-22800000D03*
X95900000Y-22000000D03*
X95900000Y-21200000D03*
X95900000Y-20400000D03*
X95900000Y-19600000D03*
D17*
X94800000Y-18700000D03*
X94000000Y-18700000D03*
X93200000Y-18700000D03*
X92400000Y-18700000D03*
X91600000Y-18700000D03*
X90800000Y-18700000D03*
X90000000Y-18700000D03*
X89200000Y-18700000D03*
X88400000Y-18700000D03*
X87600000Y-18700000D03*
X86800000Y-18700000D03*
X86000000Y-18700000D03*
X85200000Y-18700000D03*
D18*
X88025000Y-21625000D03*
D19*
X88025000Y-23600000D03*
X88025000Y-25575000D03*
X90000000Y-21625000D03*
X90000000Y-23600000D03*
X90000000Y-25575000D03*
X91975000Y-21625000D03*
X91975000Y-23600000D03*
X91975000Y-25575000D03*
D20*
X95950000Y-18650000D03*
X95950000Y-28550000D03*
X84050000Y-28550000D03*
X84050000Y-18650000D03*
D21*
X79650000Y-22700000D03*
X78690000Y-22700000D03*
D15*
X99700000Y-20700000D03*
D22*
X98255000Y-27400000D03*
X98255000Y-26400000D03*
X98255000Y-25400000D03*
X98255000Y-24400000D03*
D23*
X101930000Y-23100000D03*
X101930000Y-28700000D03*
D15*
X79900000Y-69300000D03*
D24*
X91000000Y-55575000D03*
X91000000Y-53875000D03*
X91000000Y-52175000D03*
D25*
X81850000Y-52175000D03*
D24*
X91000000Y-50475000D03*
X91000000Y-48775000D03*
D26*
X79900000Y-21475000D03*
X78350000Y-21475000D03*
D27*
X83340000Y-58260000D03*
X83340000Y-59280000D03*
D28*
X88360000Y-45750000D03*
X88360000Y-42450000D03*
D29*
X97750000Y-39837500D03*
D30*
X97750000Y-35877500D03*
X97750000Y-31917500D03*
D31*
X78350000Y-19950000D03*
X79900000Y-19950000D03*
D32*
X92740000Y-64930000D03*
X92740000Y-63280000D03*
D27*
X93350000Y-58340000D03*
X93350000Y-59360000D03*
D33*
X89040000Y-32810000D03*
X89040000Y-38410000D03*
D34*
X88450000Y-63800000D03*
X87430000Y-63800000D03*
D29*
X97760000Y-52700000D03*
D30*
X97760000Y-48740000D03*
X97760000Y-44780000D03*
D35*
X91232500Y-62510000D03*
X91232500Y-62010000D03*
X91232500Y-61510000D03*
X91232500Y-61010000D03*
X91232500Y-60510000D03*
X88357500Y-60510000D03*
X88357500Y-61010000D03*
X88357500Y-61510000D03*
X88357500Y-62010000D03*
X88357500Y-62510000D03*
D36*
X89795000Y-61510000D03*
D21*
X86500000Y-63800000D03*
X85540000Y-63800000D03*
D37*
X100690000Y-57710000D03*
X100690000Y-63490000D03*
D38*
X101810000Y-57400000D03*
X101810000Y-58200000D03*
D39*
X101810000Y-59350000D03*
X101810000Y-60350000D03*
X101810000Y-60850000D03*
X101810000Y-61850000D03*
D38*
X101810000Y-63000000D03*
X101810000Y-63800000D03*
X101810000Y-63800000D03*
X101810000Y-63000000D03*
D39*
X101810000Y-62350000D03*
X101810000Y-61350000D03*
X101810000Y-59850000D03*
X101810000Y-58850000D03*
D38*
X101810000Y-58200000D03*
X101810000Y-57400000D03*
D40*
X101210000Y-56280000D03*
D41*
X97010000Y-56280000D03*
D40*
X101210000Y-64920000D03*
D41*
X97010000Y-64920000D03*
D32*
X81400000Y-23050000D03*
X81400000Y-21400000D03*
D15*
X100400000Y-69300000D03*
D42*
X79100000Y-41500000D03*
X84500000Y-41500000D03*
D43*
X86460000Y-62505000D03*
X86460000Y-62005000D03*
X86460000Y-61505000D03*
X86460000Y-61005000D03*
X86460000Y-60505000D03*
X83560000Y-60505000D03*
X83560000Y-61005000D03*
X83560000Y-61505000D03*
X83560000Y-62005000D03*
X83560000Y-62505000D03*
D44*
X85010000Y-61505000D03*
D45*
X81000000Y-64680000D03*
D46*
X81000000Y-62140000D03*
X81000000Y-59600000D03*
D34*
X84620000Y-63800000D03*
X83600000Y-63800000D03*
D47*
X79025000Y-31120000D03*
D48*
X79025000Y-33660000D03*
D47*
X79025000Y-36200000D03*
X82200000Y-31120000D03*
X82200000Y-36200000D03*
D48*
X84105000Y-32644000D03*
X84105000Y-34676000D03*
%LPD*%
M02*
