M48
; DRILL file {KiCad 7.0.9+1} date Mon 15 Jan 2024 10:22:24 PM EST
; FORMAT={-:-/ absolute / metric / decimal}
; #@! TF.CreationDate,2024-01-15T22:22:24-05:00
; #@! TF.GenerationSoftware,Kicad,Pcbnew,7.0.9+1
; #@! TF.FileFunction,Plated,1,2,PTH
FMAT,2
METRIC
; #@! TA.AperFunction,Plated,PTH,ViaDrill
T1C0.200
; #@! TA.AperFunction,Plated,PTH,ViaDrill
T2C0.400
; #@! TA.AperFunction,Plated,PTH,ViaDrill
T3C0.600
; #@! TA.AperFunction,Plated,PTH,ComponentDrill
T4C0.600
; #@! TA.AperFunction,Plated,PTH,ComponentDrill
T5C1.000
; #@! TA.AperFunction,Plated,PTH,ComponentDrill
T6C1.700
; #@! TA.AperFunction,Plated,PTH,ComponentDrill
T7C2.500
%
G90
G05
T1
X77.475Y-20.625
X78.0Y-34.6
X82.7Y-21.2
X83.4Y-59.4
X85.2Y-34.5
X85.45Y-63.45
X87.65Y-59.3
X88.4Y-29.9
X89.1Y-63.8
X89.2Y-19.9
X90.0Y-59.3
X90.8Y-28.5
X91.6Y-27.8
X92.45Y-61.2
X93.45Y-58.3
X93.64Y-62.42
X95.9Y-22.8
X95.9Y-23.6
X97.95Y-57.8
X98.255Y-24.5
X98.255Y-25.4
X98.255Y-26.4
X98.255Y-27.4
X98.6Y-55.7
X99.3Y-55.7
X99.5Y-59.3
X99.5Y-60.8
X99.5Y-62.3
X101.81Y-57.4
X101.81Y-63.0
X102.046Y-58.275
X102.6Y-64.0
X102.636Y-56.7
T2
X84.07Y-28.48
X92.05Y-56.825
X92.304Y-60.287
X95.95Y-28.54
X97.35Y-18.63
T3
X84.47Y-41.52
X87.4Y-50.5
X87.4Y-54.0
X89.0Y-22.6
X89.1Y-24.5
X91.0Y-22.6
X91.0Y-24.5
T5
X81.0Y-59.6
X81.0Y-62.14
X81.0Y-64.68
T6
X97.75Y-31.917
X97.75Y-35.877
X97.75Y-39.837
X97.76Y-44.78
X97.76Y-48.74
X97.76Y-52.7
T7
X79.8Y-26.5
X79.9Y-69.3
X99.7Y-20.7
X100.4Y-69.3
T4
X97.41Y-56.28G85X96.61Y-56.28
G05
X97.41Y-64.92G85X96.61Y-64.92
G05
X101.76Y-56.28G85X100.66Y-56.28
G05
X101.76Y-64.92G85X100.66Y-64.92
G05
T0
M30
