G04 #@! TF.GenerationSoftware,KiCad,Pcbnew,7.0.9+1*
G04 #@! TF.CreationDate,2024-01-15T22:22:17-05:00*
G04 #@! TF.ProjectId,2812-32-mini,32383132-2d33-4322-9d6d-696e692e6b69,rev?*
G04 #@! TF.SameCoordinates,Original*
G04 #@! TF.FileFunction,Legend,Bot*
G04 #@! TF.FilePolarity,Positive*
%FSLAX46Y46*%
G04 Gerber Fmt 4.6, Leading zero omitted, Abs format (unit mm)*
G04 Created by KiCad (PCBNEW 7.0.9+1) date 2024-01-15 22:22:17*
%MOMM*%
%LPD*%
G01*
G04 APERTURE LIST*
G04 Aperture macros list*
%AMRoundRect*
0 Rectangle with rounded corners*
0 $1 Rounding radius*
0 $2 $3 $4 $5 $6 $7 $8 $9 X,Y pos of 4 corners*
0 Add a 4 corners polygon primitive as box body*
4,1,4,$2,$3,$4,$5,$6,$7,$8,$9,$2,$3,0*
0 Add four circle primitives for the rounded corners*
1,1,$1+$1,$2,$3*
1,1,$1+$1,$4,$5*
1,1,$1+$1,$6,$7*
1,1,$1+$1,$8,$9*
0 Add four rect primitives between the rounded corners*
20,1,$1+$1,$2,$3,$4,$5,0*
20,1,$1+$1,$4,$5,$6,$7,0*
20,1,$1+$1,$6,$7,$8,$9,0*
20,1,$1+$1,$8,$9,$2,$3,0*%
G04 Aperture macros list end*
%ADD10C,0.120000*%
%ADD11C,0.600000*%
%ADD12C,1.000000*%
%ADD13C,0.150000*%
%ADD14C,5.000000*%
%ADD15RoundRect,0.250001X1.099999X-1.099999X1.099999X1.099999X-1.099999X1.099999X-1.099999X-1.099999X0*%
%ADD16C,2.700000*%
%ADD17C,0.650000*%
%ADD18O,2.100000X1.000000*%
%ADD19O,1.800000X1.000000*%
%ADD20R,1.700000X1.700000*%
%ADD21O,1.700000X1.700000*%
%ADD22RoundRect,0.225000X0.225000X0.250000X-0.225000X0.250000X-0.225000X-0.250000X0.225000X-0.250000X0*%
%ADD23RoundRect,0.200000X0.200000X0.275000X-0.200000X0.275000X-0.200000X-0.275000X0.200000X-0.275000X0*%
%ADD24C,2.374900*%
%ADD25C,0.990600*%
%ADD26C,0.787400*%
G04 APERTURE END LIST*
D10*
X88587161Y-40774509D02*
X87087161Y-38074509D01*
X90287161Y-38074509D01*
X88587161Y-40774509D01*
G36*
X88587161Y-40774509D02*
G01*
X87087161Y-38074509D01*
X90287161Y-38074509D01*
X88587161Y-40774509D01*
G37*
X86890000Y-41260000D02*
X84190000Y-39560000D01*
X86890000Y-38060000D01*
X86890000Y-41260000D01*
G36*
X86890000Y-41260000D02*
G01*
X84190000Y-39560000D01*
X86890000Y-38060000D01*
X86890000Y-41260000D01*
G37*
D11*
G36*
X86086994Y-64111764D02*
G01*
X86130952Y-64112703D01*
X86173622Y-64114580D01*
X86215004Y-64117397D01*
X86255098Y-64121152D01*
X86293904Y-64125846D01*
X86331422Y-64131479D01*
X86367652Y-64138050D01*
X86402594Y-64145561D01*
X86436248Y-64154010D01*
X86468614Y-64163398D01*
X86499692Y-64173725D01*
X86529482Y-64184991D01*
X86557984Y-64197195D01*
X86585198Y-64210339D01*
X86623604Y-64231814D01*
X86647881Y-64247402D01*
X86682601Y-64273252D01*
X86715286Y-64302064D01*
X86735946Y-64322918D01*
X86755701Y-64345089D01*
X86774552Y-64368577D01*
X86792498Y-64393381D01*
X86809539Y-64419501D01*
X86825677Y-64446938D01*
X86840909Y-64475692D01*
X86855238Y-64505763D01*
X86868661Y-64537150D01*
X86881181Y-64569854D01*
X86892796Y-64603874D01*
X86903506Y-64639211D01*
X86913444Y-64676059D01*
X86922740Y-64714796D01*
X86931396Y-64755423D01*
X86939410Y-64797938D01*
X86946783Y-64842343D01*
X86953515Y-64888636D01*
X86959606Y-64936819D01*
X86965055Y-64986891D01*
X86969864Y-65038851D01*
X86974031Y-65092701D01*
X86977558Y-65148440D01*
X86980443Y-65206068D01*
X86981645Y-65235590D01*
X86982687Y-65265585D01*
X86983568Y-65296052D01*
X86984289Y-65326991D01*
X86984850Y-65358403D01*
X86985251Y-65390286D01*
X86985492Y-65422642D01*
X86985572Y-65455471D01*
X86985572Y-66110530D01*
X84125000Y-66110530D01*
X84125000Y-65573440D01*
X85156681Y-65573440D01*
X85625628Y-65573440D01*
X86552529Y-65573440D01*
X86552529Y-65384396D01*
X86552366Y-65348644D01*
X86551877Y-65313928D01*
X86551061Y-65280248D01*
X86549919Y-65247605D01*
X86548450Y-65215997D01*
X86546656Y-65185426D01*
X86544535Y-65155890D01*
X86540742Y-65113530D01*
X86536214Y-65073501D01*
X86530953Y-65035804D01*
X86524957Y-65000438D01*
X86518228Y-64967402D01*
X86510764Y-64936699D01*
X86508145Y-64926941D01*
X86499647Y-64898734D01*
X86486813Y-64863609D01*
X86472261Y-64831323D01*
X86455992Y-64801877D01*
X86438006Y-64775269D01*
X86418302Y-64751502D01*
X86396882Y-64730573D01*
X86373743Y-64712484D01*
X86355149Y-64700437D01*
X86328072Y-64686217D01*
X86298385Y-64674104D01*
X86266088Y-64664098D01*
X86231180Y-64656198D01*
X86193662Y-64650405D01*
X86163811Y-64647443D01*
X86132491Y-64645665D01*
X86099703Y-64645073D01*
X86065429Y-64645588D01*
X86032675Y-64647134D01*
X86001441Y-64649710D01*
X85971727Y-64653316D01*
X85934473Y-64659727D01*
X85899920Y-64667971D01*
X85868069Y-64678046D01*
X85838920Y-64689952D01*
X85812473Y-64703691D01*
X85794278Y-64715423D01*
X85766128Y-64738267D01*
X85745566Y-64759504D01*
X85726744Y-64783375D01*
X85709662Y-64809879D01*
X85694321Y-64839017D01*
X85680720Y-64870788D01*
X85668859Y-64905191D01*
X85661133Y-64933019D01*
X85654167Y-64962920D01*
X85647961Y-64994894D01*
X85642515Y-65028942D01*
X85637828Y-65065064D01*
X85633902Y-65103260D01*
X85630736Y-65143529D01*
X85628329Y-65185872D01*
X85627147Y-65215253D01*
X85626303Y-65245555D01*
X85625796Y-65276779D01*
X85625628Y-65308925D01*
X85625628Y-65573440D01*
X85156681Y-65573440D01*
X85156681Y-65266427D01*
X85157002Y-65210536D01*
X85157964Y-65156254D01*
X85159566Y-65103581D01*
X85161810Y-65052516D01*
X85164696Y-65003059D01*
X85168222Y-64955212D01*
X85172389Y-64908972D01*
X85177198Y-64864342D01*
X85182647Y-64821320D01*
X85188738Y-64779906D01*
X85195470Y-64740101D01*
X85202843Y-64701905D01*
X85210857Y-64665317D01*
X85219513Y-64630338D01*
X85228809Y-64596967D01*
X85238747Y-64565205D01*
X85249440Y-64534814D01*
X85261004Y-64505557D01*
X85273437Y-64477432D01*
X85286741Y-64450442D01*
X85308327Y-64412081D01*
X85331872Y-64376270D01*
X85357374Y-64343010D01*
X85384835Y-64312300D01*
X85414253Y-64284140D01*
X85445628Y-64258530D01*
X85478962Y-64235470D01*
X85514253Y-64214961D01*
X85526502Y-64208605D01*
X85565166Y-64190747D01*
X85592537Y-64179850D01*
X85621185Y-64169761D01*
X85651110Y-64160479D01*
X85682311Y-64152004D01*
X85714789Y-64144336D01*
X85748543Y-64137475D01*
X85783573Y-64131421D01*
X85819881Y-64126175D01*
X85857465Y-64121736D01*
X85896325Y-64118104D01*
X85936462Y-64115279D01*
X85977875Y-64113261D01*
X86020565Y-64112050D01*
X86064532Y-64111646D01*
X86086994Y-64111764D01*
G37*
G36*
X84078105Y-62547271D02*
G01*
X84078623Y-62602154D01*
X84080177Y-62655429D01*
X84082767Y-62707095D01*
X84086394Y-62757152D01*
X84091056Y-62805601D01*
X84096755Y-62852441D01*
X84103490Y-62897673D01*
X84111261Y-62941296D01*
X84120068Y-62983310D01*
X84129911Y-63023716D01*
X84140790Y-63062514D01*
X84152706Y-63099702D01*
X84165657Y-63135283D01*
X84179645Y-63169254D01*
X84194669Y-63201618D01*
X84210729Y-63232372D01*
X84228100Y-63261693D01*
X84246873Y-63289937D01*
X84267049Y-63317105D01*
X84288627Y-63343197D01*
X84311608Y-63368213D01*
X84335991Y-63392153D01*
X84361777Y-63415016D01*
X84388965Y-63436803D01*
X84417556Y-63457514D01*
X84447549Y-63477149D01*
X84478945Y-63495708D01*
X84511743Y-63513190D01*
X84545943Y-63529597D01*
X84581547Y-63544927D01*
X84618552Y-63559181D01*
X84656960Y-63572358D01*
X84697109Y-63584514D01*
X84739335Y-63595886D01*
X84783639Y-63606473D01*
X84830022Y-63616276D01*
X84878482Y-63625295D01*
X84929020Y-63633530D01*
X84981636Y-63640980D01*
X85036331Y-63647646D01*
X85093103Y-63653528D01*
X85151953Y-63658626D01*
X85182157Y-63660880D01*
X85212881Y-63662939D01*
X85244124Y-63664801D01*
X85275887Y-63666468D01*
X85308169Y-63667938D01*
X85340971Y-63669213D01*
X85374292Y-63670291D01*
X85408133Y-63671174D01*
X85442493Y-63671860D01*
X85477373Y-63672350D01*
X85512772Y-63672644D01*
X85548691Y-63672742D01*
X85584885Y-63672644D01*
X85620559Y-63672350D01*
X85655713Y-63671860D01*
X85690348Y-63671174D01*
X85724464Y-63670291D01*
X85758060Y-63669213D01*
X85791136Y-63667938D01*
X85823693Y-63666468D01*
X85855731Y-63664801D01*
X85887249Y-63662939D01*
X85918247Y-63660880D01*
X85948726Y-63658626D01*
X85978686Y-63656175D01*
X86008126Y-63653528D01*
X86065448Y-63647646D01*
X86120692Y-63640980D01*
X86173857Y-63633530D01*
X86224945Y-63625295D01*
X86273955Y-63616276D01*
X86320887Y-63606473D01*
X86365741Y-63595886D01*
X86408517Y-63584514D01*
X86449214Y-63572358D01*
X86488152Y-63559181D01*
X86525647Y-63544927D01*
X86561700Y-63529597D01*
X86596310Y-63513190D01*
X86629477Y-63495708D01*
X86661202Y-63477149D01*
X86691484Y-63457514D01*
X86720324Y-63436803D01*
X86747721Y-63415016D01*
X86773676Y-63392153D01*
X86798188Y-63368213D01*
X86821257Y-63343197D01*
X86842884Y-63317105D01*
X86863069Y-63289937D01*
X86881810Y-63261693D01*
X86899110Y-63232372D01*
X86915258Y-63201618D01*
X86930365Y-63169254D01*
X86944430Y-63135283D01*
X86957453Y-63099702D01*
X86969435Y-63062514D01*
X86980374Y-63023716D01*
X86990271Y-62983310D01*
X86999127Y-62941296D01*
X87006941Y-62897673D01*
X87013713Y-62852441D01*
X87019443Y-62805601D01*
X87024132Y-62757152D01*
X87027778Y-62707095D01*
X87030383Y-62655429D01*
X87031945Y-62602154D01*
X87032466Y-62547271D01*
X87032166Y-62501215D01*
X87031264Y-62456470D01*
X87029762Y-62413036D01*
X87027658Y-62370912D01*
X87024953Y-62330100D01*
X87021647Y-62290598D01*
X87017740Y-62252408D01*
X87013232Y-62215528D01*
X87008123Y-62179959D01*
X87002413Y-62145701D01*
X86996102Y-62112754D01*
X86989190Y-62081118D01*
X86981676Y-62050793D01*
X86973562Y-62021779D01*
X86960263Y-61980715D01*
X86955530Y-61967683D01*
X86940327Y-61930075D01*
X86923296Y-61894464D01*
X86904435Y-61860850D01*
X86883745Y-61829231D01*
X86861227Y-61799609D01*
X86836879Y-61771984D01*
X86810703Y-61746355D01*
X86782698Y-61722722D01*
X86752863Y-61701086D01*
X86721200Y-61681446D01*
X86699075Y-61669462D01*
X86663945Y-61652853D01*
X86626148Y-61637649D01*
X86585686Y-61623848D01*
X86557230Y-61615427D01*
X86527588Y-61607630D01*
X86496762Y-61600458D01*
X86464751Y-61593909D01*
X86431555Y-61587984D01*
X86397174Y-61582683D01*
X86361608Y-61578006D01*
X86324857Y-61573953D01*
X86286922Y-61570524D01*
X86247801Y-61567720D01*
X86207495Y-61565539D01*
X86186898Y-61564682D01*
X86186898Y-62089316D01*
X86216161Y-62094840D01*
X86257823Y-62103920D01*
X86296807Y-62113954D01*
X86333111Y-62124940D01*
X86366737Y-62136880D01*
X86397683Y-62149773D01*
X86425950Y-62163619D01*
X86451539Y-62178418D01*
X86481489Y-62199633D01*
X86506676Y-62222542D01*
X86512229Y-62228534D01*
X86532665Y-62254512D01*
X86550377Y-62284450D01*
X86565363Y-62318351D01*
X86574815Y-62346375D01*
X86582734Y-62376628D01*
X86589121Y-62409109D01*
X86593974Y-62443819D01*
X86597295Y-62480757D01*
X86599083Y-62519922D01*
X86599424Y-62547271D01*
X86598599Y-62589627D01*
X86596127Y-62630141D01*
X86592005Y-62668813D01*
X86586235Y-62705643D01*
X86578816Y-62740632D01*
X86569748Y-62773779D01*
X86559032Y-62805083D01*
X86546667Y-62834546D01*
X86532654Y-62862167D01*
X86516992Y-62887947D01*
X86505635Y-62904110D01*
X86487021Y-62927096D01*
X86466076Y-62948795D01*
X86442799Y-62969205D01*
X86417192Y-62988328D01*
X86389253Y-63006162D01*
X86358983Y-63022709D01*
X86326382Y-63037967D01*
X86291449Y-63051938D01*
X86254185Y-63064620D01*
X86214590Y-63076015D01*
X86186898Y-63082896D01*
X86157958Y-63089284D01*
X86127558Y-63095260D01*
X86095699Y-63100824D01*
X86062380Y-63105976D01*
X86027601Y-63110716D01*
X85991362Y-63115044D01*
X85953664Y-63118960D01*
X85914506Y-63122463D01*
X85873888Y-63125554D01*
X85831810Y-63128233D01*
X85788273Y-63130500D01*
X85743276Y-63132355D01*
X85696820Y-63133797D01*
X85648903Y-63134828D01*
X85599527Y-63135446D01*
X85548691Y-63135652D01*
X85498405Y-63135446D01*
X85449578Y-63134828D01*
X85402211Y-63133797D01*
X85356304Y-63132355D01*
X85311857Y-63130500D01*
X85268869Y-63128233D01*
X85227341Y-63125554D01*
X85187273Y-63122463D01*
X85148664Y-63118960D01*
X85111515Y-63115044D01*
X85075826Y-63110716D01*
X85041597Y-63105976D01*
X85008828Y-63100824D01*
X84977518Y-63095260D01*
X84947668Y-63089284D01*
X84919277Y-63082896D01*
X84878907Y-63072360D01*
X84840778Y-63060536D01*
X84804890Y-63047424D01*
X84771243Y-63033024D01*
X84739837Y-63017336D01*
X84710673Y-63000361D01*
X84683749Y-62982097D01*
X84659067Y-62962545D01*
X84636626Y-62941705D01*
X84616426Y-62919577D01*
X84604204Y-62904110D01*
X84587574Y-62879558D01*
X84572579Y-62853165D01*
X84559221Y-62824930D01*
X84547498Y-62794853D01*
X84537410Y-62762934D01*
X84528959Y-62729174D01*
X84522143Y-62693571D01*
X84516963Y-62656127D01*
X84513419Y-62616841D01*
X84511511Y-62575713D01*
X84511147Y-62547271D01*
X84511459Y-62516888D01*
X84513097Y-62473472D01*
X84516139Y-62432645D01*
X84520585Y-62394406D01*
X84526435Y-62358757D01*
X84533688Y-62325696D01*
X84542346Y-62295224D01*
X84552407Y-62267341D01*
X84568006Y-62234191D01*
X84586101Y-62205643D01*
X84591015Y-62199225D01*
X84613432Y-62174999D01*
X84640382Y-62152880D01*
X84671867Y-62132867D01*
X84698455Y-62119240D01*
X84727594Y-62106798D01*
X84759283Y-62095541D01*
X84793523Y-62085469D01*
X84830312Y-62076582D01*
X84869652Y-62068879D01*
X84897295Y-62064403D01*
X84897295Y-61539036D01*
X84857568Y-61541987D01*
X84818985Y-61545528D01*
X84781547Y-61549658D01*
X84745254Y-61554378D01*
X84710106Y-61559687D01*
X84676103Y-61565586D01*
X84643245Y-61572075D01*
X84611531Y-61579153D01*
X84580963Y-61586821D01*
X84551539Y-61595079D01*
X84523260Y-61603926D01*
X84482989Y-61618302D01*
X84445293Y-61634005D01*
X84410174Y-61651034D01*
X84399040Y-61657006D01*
X84366975Y-61676120D01*
X84336727Y-61697191D01*
X84308294Y-61720221D01*
X84281677Y-61745208D01*
X84256877Y-61772153D01*
X84233893Y-61801056D01*
X84212724Y-61831916D01*
X84193372Y-61864734D01*
X84175836Y-61899510D01*
X84160116Y-61936244D01*
X84150645Y-61961821D01*
X84137681Y-62002202D01*
X84129747Y-62030790D01*
X84122380Y-62060711D01*
X84115579Y-62091967D01*
X84109345Y-62124556D01*
X84103678Y-62158479D01*
X84098578Y-62193736D01*
X84094044Y-62230327D01*
X84090077Y-62268251D01*
X84086677Y-62307509D01*
X84083843Y-62348101D01*
X84081576Y-62390027D01*
X84079876Y-62433287D01*
X84078742Y-62477880D01*
X84078176Y-62523807D01*
X84078105Y-62547271D01*
G37*
G36*
X84942385Y-59076722D02*
G01*
X84982856Y-59077881D01*
X85021640Y-59079813D01*
X85058736Y-59082518D01*
X85094145Y-59085996D01*
X85127867Y-59090246D01*
X85159902Y-59095269D01*
X85190249Y-59101065D01*
X85228088Y-59109996D01*
X85262927Y-59120300D01*
X85295350Y-59132287D01*
X85325942Y-59146266D01*
X85354701Y-59162237D01*
X85381629Y-59180200D01*
X85406725Y-59200156D01*
X85429989Y-59222103D01*
X85451421Y-59246043D01*
X85471022Y-59271974D01*
X85480293Y-59285699D01*
X85497855Y-59315260D01*
X85514113Y-59347637D01*
X85529065Y-59382831D01*
X85539422Y-59411075D01*
X85549046Y-59440903D01*
X85557935Y-59472315D01*
X85566090Y-59505311D01*
X85573512Y-59539892D01*
X85580198Y-59576057D01*
X85605111Y-59576057D01*
X85614475Y-59537099D01*
X85625255Y-59500460D01*
X85637453Y-59466139D01*
X85651067Y-59434136D01*
X85666098Y-59404452D01*
X85682546Y-59377087D01*
X85700410Y-59352039D01*
X85719692Y-59329310D01*
X85747604Y-59302612D01*
X85778035Y-59280034D01*
X85786110Y-59274985D01*
X85812164Y-59260800D01*
X85840962Y-59248058D01*
X85872503Y-59236758D01*
X85906787Y-59226900D01*
X85943815Y-59218485D01*
X85983586Y-59211513D01*
X86026101Y-59205983D01*
X86055968Y-59203098D01*
X86087055Y-59200854D01*
X86119361Y-59199251D01*
X86152886Y-59198289D01*
X86187630Y-59197969D01*
X86226096Y-59198421D01*
X86263456Y-59199778D01*
X86299712Y-59202039D01*
X86334863Y-59205204D01*
X86368909Y-59209275D01*
X86401850Y-59214249D01*
X86433687Y-59220128D01*
X86464419Y-59226912D01*
X86494045Y-59234599D01*
X86522567Y-59243192D01*
X86563279Y-59257776D01*
X86601505Y-59274396D01*
X86637244Y-59293050D01*
X86670498Y-59313740D01*
X86701771Y-59336701D01*
X86731292Y-59362443D01*
X86759061Y-59390968D01*
X86785079Y-59422275D01*
X86809345Y-59456364D01*
X86831859Y-59493235D01*
X86845895Y-59519362D01*
X86859153Y-59546725D01*
X86871632Y-59575324D01*
X86883333Y-59605160D01*
X86894255Y-59636232D01*
X86904399Y-59668541D01*
X86913764Y-59702086D01*
X86918182Y-59719392D01*
X86926597Y-59755353D01*
X86934451Y-59793112D01*
X86941744Y-59832668D01*
X86948476Y-59874021D01*
X86954647Y-59917172D01*
X86960257Y-59962120D01*
X86965306Y-60008866D01*
X86969794Y-60057409D01*
X86973721Y-60107750D01*
X86977087Y-60159888D01*
X86979892Y-60213824D01*
X86982136Y-60269557D01*
X86983819Y-60327088D01*
X86984450Y-60356527D01*
X86984941Y-60386416D01*
X86985291Y-60416754D01*
X86985502Y-60447541D01*
X86985572Y-60478778D01*
X86985572Y-61155087D01*
X84119138Y-61155087D01*
X84114169Y-61098721D01*
X84109521Y-61043014D01*
X84105193Y-60987965D01*
X84101186Y-60933574D01*
X84097499Y-60879841D01*
X84094133Y-60826767D01*
X84091088Y-60774351D01*
X84088363Y-60722594D01*
X84085959Y-60671494D01*
X84084082Y-60626057D01*
X84547051Y-60626057D01*
X85344260Y-60626057D01*
X85813206Y-60626057D01*
X86552529Y-60626057D01*
X86552529Y-60487571D01*
X86552478Y-60463540D01*
X86552207Y-60428051D01*
X86551705Y-60393232D01*
X86550971Y-60359083D01*
X86550005Y-60325604D01*
X86548807Y-60292794D01*
X86547377Y-60260654D01*
X86545716Y-60229184D01*
X86543822Y-60198384D01*
X86541697Y-60168253D01*
X86539340Y-60138792D01*
X86536369Y-60109443D01*
X86531075Y-60067673D01*
X86524777Y-60028608D01*
X86517474Y-59992248D01*
X86509167Y-59958593D01*
X86499854Y-59927642D01*
X86489537Y-59899396D01*
X86474219Y-59865942D01*
X86457114Y-59837297D01*
X86438224Y-59813461D01*
X86416574Y-59793196D01*
X86391191Y-59775634D01*
X86362077Y-59760773D01*
X86329230Y-59748614D01*
X86292651Y-59739158D01*
X86262767Y-59733838D01*
X86230784Y-59730038D01*
X86196701Y-59727759D01*
X86160519Y-59726999D01*
X86148006Y-59727062D01*
X86111988Y-59728018D01*
X86078248Y-59730119D01*
X86046789Y-59733367D01*
X86008389Y-59739481D01*
X85974043Y-59747633D01*
X85943749Y-59757822D01*
X85911581Y-59773425D01*
X85885746Y-59792212D01*
X85864848Y-59815417D01*
X85847493Y-59844275D01*
X85836158Y-59871432D01*
X85827091Y-59902207D01*
X85820290Y-59936599D01*
X85815756Y-59974610D01*
X85813844Y-60005491D01*
X85813206Y-60038408D01*
X85813206Y-60626057D01*
X85344260Y-60626057D01*
X85344260Y-60143189D01*
X85344225Y-60130142D01*
X85343710Y-60092161D01*
X85342577Y-60055919D01*
X85340825Y-60021415D01*
X85338455Y-59988651D01*
X85335467Y-59957625D01*
X85330521Y-59918962D01*
X85324476Y-59883391D01*
X85317332Y-59850910D01*
X85309089Y-59821521D01*
X85304581Y-59807848D01*
X85291533Y-59775845D01*
X85275944Y-59746954D01*
X85257816Y-59721176D01*
X85237147Y-59698511D01*
X85213938Y-59678959D01*
X85188189Y-59662519D01*
X85171327Y-59653876D01*
X85140332Y-59641361D01*
X85105724Y-59631207D01*
X85075436Y-59624785D01*
X85042836Y-59619873D01*
X85007922Y-59616473D01*
X84970696Y-59614584D01*
X84941259Y-59614159D01*
X84931575Y-59614216D01*
X84894240Y-59615590D01*
X84859149Y-59618795D01*
X84826302Y-59623833D01*
X84795699Y-59630702D01*
X84760601Y-59641865D01*
X84729010Y-59655890D01*
X84700924Y-59672777D01*
X84695706Y-59676517D01*
X84671051Y-59697515D01*
X84648794Y-59722341D01*
X84628934Y-59750996D01*
X84614771Y-59776676D01*
X84602143Y-59804805D01*
X84591049Y-59835385D01*
X84581489Y-59868415D01*
X84579371Y-59877050D01*
X84571568Y-59913921D01*
X84566423Y-59944024D01*
X84561882Y-59976226D01*
X84557948Y-60010528D01*
X84554618Y-60046929D01*
X84551894Y-60085429D01*
X84549775Y-60126029D01*
X84548262Y-60168728D01*
X84547589Y-60198361D01*
X84547186Y-60228926D01*
X84547051Y-60260425D01*
X84547051Y-60281603D01*
X84547051Y-60313788D01*
X84547051Y-60346475D01*
X84547051Y-60379665D01*
X84547051Y-60413357D01*
X84547051Y-60447551D01*
X84547051Y-60482247D01*
X84547051Y-60517446D01*
X84547051Y-60553147D01*
X84547051Y-60589351D01*
X84547051Y-60626057D01*
X84084082Y-60626057D01*
X84083875Y-60621054D01*
X84082112Y-60571271D01*
X84080669Y-60522147D01*
X84079547Y-60473681D01*
X84078746Y-60425873D01*
X84078265Y-60378724D01*
X84078105Y-60332233D01*
X84078176Y-60301453D01*
X84078388Y-60271121D01*
X84078742Y-60241238D01*
X84079238Y-60211802D01*
X84080655Y-60154274D01*
X84082639Y-60098538D01*
X84085189Y-60044594D01*
X84088306Y-59992441D01*
X84091990Y-59942080D01*
X84096240Y-59893511D01*
X84101057Y-59846734D01*
X84106441Y-59801749D01*
X84112391Y-59758555D01*
X84118909Y-59717153D01*
X84125993Y-59677542D01*
X84133643Y-59639724D01*
X84141861Y-59603697D01*
X84150645Y-59569462D01*
X84155324Y-59552943D01*
X84165279Y-59520806D01*
X84176029Y-59489871D01*
X84187576Y-59460138D01*
X84199917Y-59431608D01*
X84213055Y-59404279D01*
X84234253Y-59365540D01*
X84257242Y-59329506D01*
X84282021Y-59296177D01*
X84308590Y-59265553D01*
X84336950Y-59237633D01*
X84367100Y-59212419D01*
X84399040Y-59189909D01*
X84410177Y-59182921D01*
X84445339Y-59163290D01*
X84483129Y-59145655D01*
X84523547Y-59130017D01*
X84551951Y-59120700D01*
X84581524Y-59112271D01*
X84612264Y-59104729D01*
X84644172Y-59098074D01*
X84677248Y-59092307D01*
X84711491Y-59087427D01*
X84746903Y-59083434D01*
X84783482Y-59080329D01*
X84821229Y-59078110D01*
X84860144Y-59076780D01*
X84900226Y-59076336D01*
X84942385Y-59076722D01*
G37*
G36*
X84875314Y-58016078D02*
G01*
X84875314Y-57218136D01*
X84125000Y-57218136D01*
X84125000Y-58016078D01*
X84875314Y-58016078D01*
G37*
G36*
X84078105Y-54994305D02*
G01*
X84078623Y-55051721D01*
X84080177Y-55107466D01*
X84082767Y-55161539D01*
X84086394Y-55213941D01*
X84091056Y-55264671D01*
X84096755Y-55313729D01*
X84103490Y-55361116D01*
X84111261Y-55406831D01*
X84120068Y-55450875D01*
X84129911Y-55493247D01*
X84140790Y-55533948D01*
X84152706Y-55572978D01*
X84165657Y-55610335D01*
X84179645Y-55646021D01*
X84194669Y-55680036D01*
X84210729Y-55712379D01*
X84228108Y-55743323D01*
X84246907Y-55773138D01*
X84267126Y-55801826D01*
X84288764Y-55829387D01*
X84311822Y-55855819D01*
X84336300Y-55881124D01*
X84362197Y-55905301D01*
X84389515Y-55928351D01*
X84418251Y-55950273D01*
X84448408Y-55971067D01*
X84479984Y-55990733D01*
X84512979Y-56009272D01*
X84547395Y-56026682D01*
X84583230Y-56042966D01*
X84620484Y-56058121D01*
X84659159Y-56072149D01*
X84699573Y-56085103D01*
X84742049Y-56097222D01*
X84786585Y-56108505D01*
X84833182Y-56118952D01*
X84881839Y-56128563D01*
X84932558Y-56137339D01*
X84985337Y-56145279D01*
X85040177Y-56152383D01*
X85097078Y-56158651D01*
X85126302Y-56161472D01*
X85156040Y-56164083D01*
X85186294Y-56166486D01*
X85217063Y-56168680D01*
X85248347Y-56170665D01*
X85280146Y-56172441D01*
X85312461Y-56174008D01*
X85345290Y-56175366D01*
X85378635Y-56176515D01*
X85412495Y-56177456D01*
X85446870Y-56178187D01*
X85481761Y-56178709D01*
X85517167Y-56179023D01*
X85553087Y-56179127D01*
X85589279Y-56179028D01*
X85624946Y-56178732D01*
X85660090Y-56178238D01*
X85694710Y-56177547D01*
X85728806Y-56176659D01*
X85762379Y-56175572D01*
X85795427Y-56174289D01*
X85827952Y-56172807D01*
X85859953Y-56171129D01*
X85891431Y-56169253D01*
X85922384Y-56167179D01*
X85952814Y-56164908D01*
X85982720Y-56162439D01*
X86012102Y-56159773D01*
X86069295Y-56153848D01*
X86124392Y-56147133D01*
X86177395Y-56139629D01*
X86228303Y-56131334D01*
X86277115Y-56122249D01*
X86323832Y-56112374D01*
X86368454Y-56101710D01*
X86410981Y-56090255D01*
X86451413Y-56078011D01*
X86490084Y-56064842D01*
X86527330Y-56050613D01*
X86563151Y-56035326D01*
X86597546Y-56018980D01*
X86630516Y-56001575D01*
X86662061Y-55983111D01*
X86692180Y-55963588D01*
X86720874Y-55943005D01*
X86748142Y-55921364D01*
X86773985Y-55898664D01*
X86798403Y-55874905D01*
X86821395Y-55850086D01*
X86842962Y-55824209D01*
X86863103Y-55797273D01*
X86881819Y-55769277D01*
X86899110Y-55740223D01*
X86915258Y-55709769D01*
X86930365Y-55677758D01*
X86944430Y-55644190D01*
X86957453Y-55609064D01*
X86969435Y-55572382D01*
X86980374Y-55534143D01*
X86990271Y-55494347D01*
X86999127Y-55452993D01*
X87006941Y-55410083D01*
X87013713Y-55365615D01*
X87019443Y-55319591D01*
X87024132Y-55272009D01*
X87027778Y-55222871D01*
X87030383Y-55172175D01*
X87031945Y-55119922D01*
X87032466Y-55066113D01*
X87032166Y-55017878D01*
X87031264Y-54970995D01*
X87029762Y-54925463D01*
X87027658Y-54881282D01*
X87024953Y-54838452D01*
X87021647Y-54796972D01*
X87017740Y-54756844D01*
X87013232Y-54718066D01*
X87008123Y-54680640D01*
X87002413Y-54644565D01*
X86996102Y-54609840D01*
X86989190Y-54576467D01*
X86981676Y-54544444D01*
X86973562Y-54513773D01*
X86964846Y-54484452D01*
X86955530Y-54456482D01*
X86940203Y-54416597D01*
X86923072Y-54378825D01*
X86904139Y-54343164D01*
X86883402Y-54309616D01*
X86860862Y-54278180D01*
X86836519Y-54248857D01*
X86810372Y-54221646D01*
X86782423Y-54196547D01*
X86752670Y-54173560D01*
X86721114Y-54152686D01*
X86699075Y-54139944D01*
X86664063Y-54122118D01*
X86626346Y-54105734D01*
X86585924Y-54090794D01*
X86557474Y-54081635D01*
X86527821Y-54073117D01*
X86496966Y-54065240D01*
X86464909Y-54058004D01*
X86431650Y-54051409D01*
X86397189Y-54045456D01*
X86361526Y-54040144D01*
X86324661Y-54035473D01*
X86286593Y-54031443D01*
X86247323Y-54028054D01*
X86206852Y-54025306D01*
X86186165Y-54024173D01*
X86186165Y-54545143D01*
X86222607Y-54548852D01*
X86256827Y-54553752D01*
X86288827Y-54559843D01*
X86318606Y-54567124D01*
X86352705Y-54577901D01*
X86383335Y-54590537D01*
X86410494Y-54605035D01*
X86415509Y-54608157D01*
X86443613Y-54629100D01*
X86464633Y-54649583D01*
X86483469Y-54672821D01*
X86500124Y-54698813D01*
X86514596Y-54727560D01*
X86526886Y-54759063D01*
X86529082Y-54765694D01*
X86539003Y-54801128D01*
X86545729Y-54832361D01*
X86551379Y-54866158D01*
X86555953Y-54902519D01*
X86559451Y-54941446D01*
X86561368Y-54972323D01*
X86562679Y-55004643D01*
X86563386Y-55038406D01*
X86563520Y-55061716D01*
X86562702Y-55104072D01*
X86560249Y-55144586D01*
X86556159Y-55183258D01*
X86550434Y-55220089D01*
X86543073Y-55255077D01*
X86534076Y-55288224D01*
X86523444Y-55319529D01*
X86511176Y-55348992D01*
X86497272Y-55376613D01*
X86481732Y-55402392D01*
X86470464Y-55418555D01*
X86452039Y-55441541D01*
X86431386Y-55463240D01*
X86408504Y-55483650D01*
X86383395Y-55502773D01*
X86356057Y-55520607D01*
X86326491Y-55537154D01*
X86294697Y-55552412D01*
X86260674Y-55566383D01*
X86224423Y-55579065D01*
X86185944Y-55590460D01*
X86159054Y-55597341D01*
X86116516Y-55606638D01*
X86086382Y-55612328D01*
X86054829Y-55617612D01*
X86021856Y-55622489D01*
X85987464Y-55626960D01*
X85951652Y-55631024D01*
X85914420Y-55634682D01*
X85875768Y-55637933D01*
X85835697Y-55640779D01*
X85794207Y-55643217D01*
X85751296Y-55645249D01*
X85706966Y-55646875D01*
X85661216Y-55648094D01*
X85614047Y-55648907D01*
X85565458Y-55649314D01*
X85540631Y-55649364D01*
X85492417Y-55649135D01*
X85445594Y-55648449D01*
X85400162Y-55647304D01*
X85356121Y-55645701D01*
X85313471Y-55643640D01*
X85272212Y-55641121D01*
X85232344Y-55638145D01*
X85193867Y-55634710D01*
X85156781Y-55630817D01*
X85121087Y-55626467D01*
X85086783Y-55621658D01*
X85053870Y-55616392D01*
X85022349Y-55610667D01*
X84992218Y-55604485D01*
X84963479Y-55597844D01*
X84936130Y-55590746D01*
X84897376Y-55579073D01*
X84860799Y-55566034D01*
X84826399Y-55551630D01*
X84794175Y-55535860D01*
X84764128Y-55518726D01*
X84736258Y-55500226D01*
X84710565Y-55480360D01*
X84687048Y-55459130D01*
X84665708Y-55436534D01*
X84646545Y-55412573D01*
X84634979Y-55395840D01*
X84619265Y-55369138D01*
X84605097Y-55340413D01*
X84592475Y-55309667D01*
X84581398Y-55276898D01*
X84571867Y-55242107D01*
X84563881Y-55205294D01*
X84557441Y-55166458D01*
X84552547Y-55125601D01*
X84549198Y-55082721D01*
X84547824Y-55053011D01*
X84547137Y-55022403D01*
X84547051Y-55006762D01*
X84547219Y-54977352D01*
X84547963Y-54939823D01*
X84549302Y-54904217D01*
X84551237Y-54870534D01*
X84553767Y-54838775D01*
X84556893Y-54808939D01*
X84561637Y-54774349D01*
X84566102Y-54748841D01*
X84572717Y-54717679D01*
X84580656Y-54686015D01*
X84589919Y-54653851D01*
X84600506Y-54621186D01*
X84612416Y-54588020D01*
X84625651Y-54554353D01*
X84631315Y-54540746D01*
X85286374Y-54540746D01*
X85286374Y-55132791D01*
X85719417Y-55132791D01*
X85719417Y-54032233D01*
X84300122Y-54032233D01*
X84284236Y-54067180D01*
X84269004Y-54101498D01*
X84254423Y-54135187D01*
X84240496Y-54168245D01*
X84227221Y-54200674D01*
X84214598Y-54232474D01*
X84202629Y-54263643D01*
X84191311Y-54294183D01*
X84180647Y-54324093D01*
X84170635Y-54353374D01*
X84161275Y-54382025D01*
X84152568Y-54410046D01*
X84140732Y-54450897D01*
X84130363Y-54490331D01*
X84124267Y-54515833D01*
X84116017Y-54554278D01*
X84108579Y-54594049D01*
X84101952Y-54635147D01*
X84096137Y-54677572D01*
X84091133Y-54721323D01*
X84088248Y-54751227D01*
X84085723Y-54781722D01*
X84083560Y-54812805D01*
X84081756Y-54844479D01*
X84080314Y-54876742D01*
X84079232Y-54909594D01*
X84078511Y-54943036D01*
X84078150Y-54977068D01*
X84078105Y-54994305D01*
G37*
G36*
X86985572Y-53694445D02*
G01*
X86985572Y-53060635D01*
X85625628Y-52602679D01*
X85625628Y-52556517D01*
X86985572Y-52090502D01*
X86985572Y-51464752D01*
X84125000Y-51464752D01*
X84125000Y-51960076D01*
X85572871Y-51960076D01*
X86317323Y-51909518D01*
X86317323Y-51926371D01*
X85109787Y-52367473D01*
X85109787Y-52791723D01*
X86317323Y-53232826D01*
X86317323Y-53249678D01*
X85572871Y-53199120D01*
X84125000Y-53199120D01*
X84125000Y-53694445D01*
X86985572Y-53694445D01*
G37*
G36*
X86086994Y-49005832D02*
G01*
X86130952Y-49006771D01*
X86173622Y-49008649D01*
X86215004Y-49011465D01*
X86255098Y-49015220D01*
X86293904Y-49019914D01*
X86331422Y-49025547D01*
X86367652Y-49032119D01*
X86402594Y-49039629D01*
X86436248Y-49048079D01*
X86468614Y-49057467D01*
X86499692Y-49067793D01*
X86529482Y-49079059D01*
X86557984Y-49091264D01*
X86585198Y-49104407D01*
X86623604Y-49125882D01*
X86647881Y-49141470D01*
X86682601Y-49167320D01*
X86715286Y-49196133D01*
X86735946Y-49216987D01*
X86755701Y-49239158D01*
X86774552Y-49262645D01*
X86792498Y-49287449D01*
X86809539Y-49313570D01*
X86825677Y-49341007D01*
X86840909Y-49369761D01*
X86855238Y-49399831D01*
X86868661Y-49431218D01*
X86881181Y-49463922D01*
X86892796Y-49497942D01*
X86903506Y-49533279D01*
X86913444Y-49570128D01*
X86922740Y-49608865D01*
X86931396Y-49649491D01*
X86939410Y-49692007D01*
X86946783Y-49736411D01*
X86953515Y-49782705D01*
X86959606Y-49830887D01*
X86965055Y-49880959D01*
X86969864Y-49932920D01*
X86974031Y-49986770D01*
X86977558Y-50042508D01*
X86980443Y-50100136D01*
X86981645Y-50129659D01*
X86982687Y-50159653D01*
X86983568Y-50190120D01*
X86984289Y-50221060D01*
X86984850Y-50252471D01*
X86985251Y-50284355D01*
X86985492Y-50316711D01*
X86985572Y-50349539D01*
X86985572Y-51004598D01*
X84125000Y-51004598D01*
X84125000Y-50467508D01*
X85156681Y-50467508D01*
X85625628Y-50467508D01*
X86552529Y-50467508D01*
X86552529Y-50278464D01*
X86552366Y-50242712D01*
X86551877Y-50207996D01*
X86551061Y-50174317D01*
X86549919Y-50141673D01*
X86548450Y-50110065D01*
X86546656Y-50079494D01*
X86544535Y-50049959D01*
X86540742Y-50007599D01*
X86536214Y-49967570D01*
X86530953Y-49929872D01*
X86524957Y-49894506D01*
X86518228Y-49861471D01*
X86510764Y-49830767D01*
X86508145Y-49821010D01*
X86499647Y-49792803D01*
X86486813Y-49757677D01*
X86472261Y-49725392D01*
X86455992Y-49695945D01*
X86438006Y-49669338D01*
X86418302Y-49645570D01*
X86396882Y-49624641D01*
X86373743Y-49606552D01*
X86355149Y-49594505D01*
X86328072Y-49580286D01*
X86298385Y-49568173D01*
X86266088Y-49558166D01*
X86231180Y-49550267D01*
X86193662Y-49544473D01*
X86163811Y-49541511D01*
X86132491Y-49539734D01*
X86099703Y-49539141D01*
X86065429Y-49539656D01*
X86032675Y-49541202D01*
X86001441Y-49543778D01*
X85971727Y-49547384D01*
X85934473Y-49553796D01*
X85899920Y-49562039D01*
X85868069Y-49572114D01*
X85838920Y-49584021D01*
X85812473Y-49597759D01*
X85794278Y-49609491D01*
X85766128Y-49632335D01*
X85745566Y-49653573D01*
X85726744Y-49677444D01*
X85709662Y-49703948D01*
X85694321Y-49733085D01*
X85680720Y-49764856D01*
X85668859Y-49799260D01*
X85661133Y-49827087D01*
X85654167Y-49856988D01*
X85647961Y-49888963D01*
X85642515Y-49923011D01*
X85637828Y-49959133D01*
X85633902Y-49997328D01*
X85630736Y-50037598D01*
X85628329Y-50079941D01*
X85627147Y-50109321D01*
X85626303Y-50139624D01*
X85625796Y-50170848D01*
X85625628Y-50202993D01*
X85625628Y-50467508D01*
X85156681Y-50467508D01*
X85156681Y-50160495D01*
X85157002Y-50104604D01*
X85157964Y-50050322D01*
X85159566Y-49997649D01*
X85161810Y-49946584D01*
X85164696Y-49897128D01*
X85168222Y-49849280D01*
X85172389Y-49803041D01*
X85177198Y-49758410D01*
X85182647Y-49715388D01*
X85188738Y-49673975D01*
X85195470Y-49634170D01*
X85202843Y-49595973D01*
X85210857Y-49559386D01*
X85219513Y-49524406D01*
X85228809Y-49491036D01*
X85238747Y-49459274D01*
X85249440Y-49428883D01*
X85261004Y-49399625D01*
X85273437Y-49371501D01*
X85286741Y-49344510D01*
X85308327Y-49306149D01*
X85331872Y-49270339D01*
X85357374Y-49237078D01*
X85384835Y-49206368D01*
X85414253Y-49178208D01*
X85445628Y-49152598D01*
X85478962Y-49129539D01*
X85514253Y-49109030D01*
X85526502Y-49102673D01*
X85565166Y-49084815D01*
X85592537Y-49073919D01*
X85621185Y-49063829D01*
X85651110Y-49054547D01*
X85682311Y-49046072D01*
X85714789Y-49038404D01*
X85748543Y-49031543D01*
X85783573Y-49025490D01*
X85819881Y-49020243D01*
X85857465Y-49015804D01*
X85896325Y-49012172D01*
X85936462Y-49009347D01*
X85977875Y-49007329D01*
X86020565Y-49006118D01*
X86064532Y-49005715D01*
X86086994Y-49005832D01*
G37*
G36*
X84875314Y-47945457D02*
G01*
X84875314Y-47147515D01*
X84125000Y-47147515D01*
X84125000Y-47945457D01*
X84875314Y-47945457D01*
G37*
G36*
X84593946Y-45818346D02*
G01*
X84593946Y-45293712D01*
X86516625Y-45293712D01*
X86516625Y-45789036D01*
X86985572Y-45789036D01*
X86985572Y-44273021D01*
X86516625Y-44273021D01*
X86516625Y-44768346D01*
X84593946Y-44768346D01*
X84593946Y-44243712D01*
X84125000Y-44243712D01*
X84125000Y-45818346D01*
X84593946Y-45818346D01*
G37*
G36*
X85581446Y-41402287D02*
G01*
X85617339Y-41402577D01*
X85652704Y-41403060D01*
X85687543Y-41403736D01*
X85721855Y-41404606D01*
X85755641Y-41405668D01*
X85788900Y-41406924D01*
X85821632Y-41408373D01*
X85853838Y-41410015D01*
X85885517Y-41411851D01*
X85916670Y-41413879D01*
X85947295Y-41416101D01*
X85977394Y-41418516D01*
X86006967Y-41421124D01*
X86064532Y-41426920D01*
X86119990Y-41433489D01*
X86173342Y-41440831D01*
X86224587Y-41448945D01*
X86273726Y-41457832D01*
X86320758Y-41467492D01*
X86365683Y-41477925D01*
X86408502Y-41489131D01*
X86449214Y-41501109D01*
X86488152Y-41514015D01*
X86525647Y-41528002D01*
X86561700Y-41543072D01*
X86596310Y-41559224D01*
X86629477Y-41576457D01*
X86661202Y-41594772D01*
X86691484Y-41614170D01*
X86720324Y-41634649D01*
X86747721Y-41656210D01*
X86773676Y-41678853D01*
X86798188Y-41702578D01*
X86821257Y-41727385D01*
X86842884Y-41753274D01*
X86863069Y-41780244D01*
X86881810Y-41808297D01*
X86899110Y-41837431D01*
X86915258Y-41867797D01*
X86930365Y-41899725D01*
X86944430Y-41933216D01*
X86957453Y-41968269D01*
X86969435Y-42004886D01*
X86980374Y-42043065D01*
X86990271Y-42082807D01*
X86999127Y-42124112D01*
X87006941Y-42166979D01*
X87013713Y-42211409D01*
X87019443Y-42257402D01*
X87024132Y-42304958D01*
X87027778Y-42354077D01*
X87030383Y-42404758D01*
X87031945Y-42457002D01*
X87032466Y-42510809D01*
X87031945Y-42564707D01*
X87030383Y-42617043D01*
X87027778Y-42667816D01*
X87024132Y-42717026D01*
X87019443Y-42764674D01*
X87013713Y-42810758D01*
X87006941Y-42855280D01*
X86999127Y-42898239D01*
X86990271Y-42939636D01*
X86980374Y-42979469D01*
X86969435Y-43017740D01*
X86957453Y-43054448D01*
X86944430Y-43089593D01*
X86930365Y-43123175D01*
X86915258Y-43155195D01*
X86899110Y-43185652D01*
X86881810Y-43214698D01*
X86863069Y-43242667D01*
X86842884Y-43269561D01*
X86821257Y-43295378D01*
X86798188Y-43320119D01*
X86773676Y-43343784D01*
X86747721Y-43366373D01*
X86720324Y-43387885D01*
X86691484Y-43408321D01*
X86661202Y-43427681D01*
X86629477Y-43445965D01*
X86596310Y-43463173D01*
X86561700Y-43479304D01*
X86525647Y-43494360D01*
X86488152Y-43508339D01*
X86449214Y-43521242D01*
X86408502Y-43533220D01*
X86365683Y-43544426D01*
X86320758Y-43554858D01*
X86273726Y-43564518D01*
X86224587Y-43573406D01*
X86173342Y-43581520D01*
X86119990Y-43588862D01*
X86064532Y-43595430D01*
X86006967Y-43601226D01*
X85977394Y-43603835D01*
X85947295Y-43606250D01*
X85916670Y-43608471D01*
X85885517Y-43610500D01*
X85853838Y-43612335D01*
X85821632Y-43613978D01*
X85788900Y-43615427D01*
X85755641Y-43616682D01*
X85721855Y-43617745D01*
X85687543Y-43618614D01*
X85652704Y-43619291D01*
X85617339Y-43619774D01*
X85581446Y-43620063D01*
X85545027Y-43620160D01*
X85509064Y-43620063D01*
X85473621Y-43619774D01*
X85438699Y-43619291D01*
X85404298Y-43618614D01*
X85370418Y-43617745D01*
X85337058Y-43616682D01*
X85304220Y-43615427D01*
X85271903Y-43613978D01*
X85240106Y-43612335D01*
X85208831Y-43610500D01*
X85178076Y-43608471D01*
X85147843Y-43606250D01*
X85088938Y-43601226D01*
X85032117Y-43595430D01*
X84977380Y-43588862D01*
X84924727Y-43581520D01*
X84874157Y-43573406D01*
X84825671Y-43564518D01*
X84779269Y-43554858D01*
X84734950Y-43544426D01*
X84692715Y-43533220D01*
X84652564Y-43521242D01*
X84614253Y-43508339D01*
X84577356Y-43494360D01*
X84541873Y-43479304D01*
X84507804Y-43463173D01*
X84475149Y-43445965D01*
X84443908Y-43427681D01*
X84414081Y-43408321D01*
X84385668Y-43387885D01*
X84358668Y-43366373D01*
X84333083Y-43343784D01*
X84308912Y-43320119D01*
X84286154Y-43295378D01*
X84264810Y-43269561D01*
X84244881Y-43242667D01*
X84226365Y-43214698D01*
X84209263Y-43185652D01*
X84193381Y-43155195D01*
X84178523Y-43123175D01*
X84164690Y-43089593D01*
X84151881Y-43054448D01*
X84140098Y-43017740D01*
X84129339Y-42979469D01*
X84119604Y-42939636D01*
X84110894Y-42898239D01*
X84103209Y-42855280D01*
X84096549Y-42810758D01*
X84090913Y-42764674D01*
X84086302Y-42717026D01*
X84082716Y-42667816D01*
X84080154Y-42617043D01*
X84078617Y-42564707D01*
X84078105Y-42510809D01*
X84547051Y-42510809D01*
X84547139Y-42524905D01*
X84548459Y-42565981D01*
X84551364Y-42605242D01*
X84555852Y-42642686D01*
X84561925Y-42678314D01*
X84569583Y-42712126D01*
X84578824Y-42744122D01*
X84589650Y-42774302D01*
X84602059Y-42802666D01*
X84616054Y-42829214D01*
X84637177Y-42861786D01*
X84642974Y-42869456D01*
X84668540Y-42898748D01*
X84690208Y-42919259D01*
X84714015Y-42938521D01*
X84739959Y-42956534D01*
X84768042Y-42973297D01*
X84798263Y-42988811D01*
X84830621Y-43003076D01*
X84865118Y-43016091D01*
X84901753Y-43027857D01*
X84940526Y-43038374D01*
X84953982Y-43041574D01*
X84996454Y-43050567D01*
X85026522Y-43056053D01*
X85057992Y-43061134D01*
X85090865Y-43065808D01*
X85125140Y-43070075D01*
X85160817Y-43073937D01*
X85197897Y-43077391D01*
X85236380Y-43080440D01*
X85276265Y-43083081D01*
X85317552Y-43085317D01*
X85360242Y-43087146D01*
X85404335Y-43088568D01*
X85449830Y-43089584D01*
X85496727Y-43090194D01*
X85545027Y-43090397D01*
X85569810Y-43090346D01*
X85618319Y-43089940D01*
X85665420Y-43089127D01*
X85711112Y-43087908D01*
X85755396Y-43086282D01*
X85798272Y-43084250D01*
X85839740Y-43081811D01*
X85879800Y-43078966D01*
X85918451Y-43075715D01*
X85955695Y-43072057D01*
X85991530Y-43067993D01*
X86025956Y-43063522D01*
X86058975Y-43058645D01*
X86090585Y-43053361D01*
X86120787Y-43047671D01*
X86163450Y-43038374D01*
X86177017Y-43035007D01*
X86216207Y-43024074D01*
X86253129Y-43011892D01*
X86287785Y-42998460D01*
X86320174Y-42983779D01*
X86350296Y-42967848D01*
X86378151Y-42950669D01*
X86403739Y-42932240D01*
X86427061Y-42912561D01*
X86448115Y-42891633D01*
X86472662Y-42861786D01*
X86483664Y-42845903D01*
X86498837Y-42820566D01*
X86512412Y-42793413D01*
X86524391Y-42764444D01*
X86534772Y-42733659D01*
X86543556Y-42701057D01*
X86550743Y-42666640D01*
X86556333Y-42630406D01*
X86560326Y-42592357D01*
X86562722Y-42552491D01*
X86563520Y-42510809D01*
X86563431Y-42496760D01*
X86562100Y-42455843D01*
X86559172Y-42416767D01*
X86554647Y-42379533D01*
X86548525Y-42344141D01*
X86540806Y-42310591D01*
X86531489Y-42278883D01*
X86520575Y-42249016D01*
X86508065Y-42220991D01*
X86493957Y-42194808D01*
X86472662Y-42162763D01*
X86466905Y-42155184D01*
X86441403Y-42126241D01*
X86419676Y-42105976D01*
X86395722Y-42086948D01*
X86369539Y-42069157D01*
X86341128Y-42052602D01*
X86310488Y-42037283D01*
X86277621Y-42023201D01*
X86242525Y-42010355D01*
X86205201Y-41998746D01*
X86165648Y-41988374D01*
X86137808Y-41981985D01*
X86108507Y-41976009D01*
X86077747Y-41970445D01*
X86045527Y-41965293D01*
X86011847Y-41960553D01*
X85976708Y-41956225D01*
X85940108Y-41952310D01*
X85902049Y-41948806D01*
X85862531Y-41945715D01*
X85821552Y-41943036D01*
X85779114Y-41940769D01*
X85735216Y-41938914D01*
X85689859Y-41937472D01*
X85643041Y-41936441D01*
X85594764Y-41935823D01*
X85545027Y-41935617D01*
X85520702Y-41935669D01*
X85473103Y-41936081D01*
X85426907Y-41936905D01*
X85382113Y-41938142D01*
X85338722Y-41939790D01*
X85296733Y-41941851D01*
X85256147Y-41944324D01*
X85216963Y-41947209D01*
X85179182Y-41950506D01*
X85142803Y-41954216D01*
X85107827Y-41958337D01*
X85074253Y-41962871D01*
X85042082Y-41967817D01*
X85011313Y-41973175D01*
X84981946Y-41978945D01*
X84940526Y-41988374D01*
X84927364Y-41991694D01*
X84889304Y-42002479D01*
X84853382Y-42014500D01*
X84819598Y-42027758D01*
X84787951Y-42042252D01*
X84758443Y-42057983D01*
X84731073Y-42074950D01*
X84705841Y-42093154D01*
X84682748Y-42112594D01*
X84661792Y-42133271D01*
X84637177Y-42162763D01*
X84631632Y-42170467D01*
X84611213Y-42203331D01*
X84597747Y-42230128D01*
X84585865Y-42258767D01*
X84575567Y-42289247D01*
X84566854Y-42321570D01*
X84559725Y-42355734D01*
X84554180Y-42391740D01*
X84550220Y-42429588D01*
X84547843Y-42469277D01*
X84547051Y-42510809D01*
X84078105Y-42510809D01*
X84078617Y-42457002D01*
X84080154Y-42404758D01*
X84082716Y-42354077D01*
X84086302Y-42304958D01*
X84090913Y-42257402D01*
X84096549Y-42211409D01*
X84103209Y-42166979D01*
X84110894Y-42124112D01*
X84119604Y-42082807D01*
X84129339Y-42043065D01*
X84140098Y-42004886D01*
X84151881Y-41968269D01*
X84164690Y-41933216D01*
X84178523Y-41899725D01*
X84193381Y-41867797D01*
X84209263Y-41837431D01*
X84226365Y-41808297D01*
X84244881Y-41780244D01*
X84264810Y-41753274D01*
X84286154Y-41727385D01*
X84308912Y-41702578D01*
X84333083Y-41678853D01*
X84358668Y-41656210D01*
X84385668Y-41634649D01*
X84414081Y-41614170D01*
X84443908Y-41594772D01*
X84475149Y-41576457D01*
X84507804Y-41559224D01*
X84541873Y-41543072D01*
X84577356Y-41528002D01*
X84614253Y-41514015D01*
X84652564Y-41501109D01*
X84672379Y-41495023D01*
X84713572Y-41483431D01*
X84756849Y-41472612D01*
X84802210Y-41462566D01*
X84849654Y-41453292D01*
X84899182Y-41444791D01*
X84950793Y-41437063D01*
X85004488Y-41430108D01*
X85060267Y-41423926D01*
X85118130Y-41418516D01*
X85147843Y-41416101D01*
X85178076Y-41413879D01*
X85208831Y-41411851D01*
X85240106Y-41410015D01*
X85271903Y-41408373D01*
X85304220Y-41406924D01*
X85337058Y-41405668D01*
X85370418Y-41404606D01*
X85404298Y-41403736D01*
X85438699Y-41403060D01*
X85473621Y-41402577D01*
X85509064Y-41402287D01*
X85545027Y-41402191D01*
X85581446Y-41402287D01*
G37*
G36*
X89750572Y-29400676D02*
G01*
X89750572Y-28780788D01*
X88390628Y-28615924D01*
X88390628Y-28570495D01*
X89750572Y-27831905D01*
X89750572Y-27220076D01*
X86890000Y-27815052D01*
X86890000Y-28299385D01*
X88337871Y-27998234D01*
X89082323Y-27794535D01*
X89082323Y-27810655D01*
X87874787Y-28493558D01*
X87874787Y-28908283D01*
X89082323Y-29088534D01*
X89082323Y-29105387D01*
X88337871Y-29210167D01*
X86890000Y-29511318D01*
X86890000Y-29995652D01*
X89750572Y-29400676D01*
G37*
G36*
X87358946Y-27064738D02*
G01*
X87358946Y-26551828D01*
X89281625Y-26151758D01*
X89281625Y-26636092D01*
X89750572Y-26538639D01*
X89750572Y-25055596D01*
X89281625Y-25153049D01*
X89281625Y-25637383D01*
X87358946Y-26037452D01*
X87358946Y-25524542D01*
X86890000Y-25621995D01*
X86890000Y-27162191D01*
X87358946Y-27064738D01*
G37*
G36*
X89750572Y-24329462D02*
G01*
X89750572Y-23688325D01*
X87498897Y-23154166D01*
X87498897Y-23141709D01*
X88087278Y-23076496D01*
X89750572Y-22730648D01*
X89750572Y-22225799D01*
X86890000Y-22820774D01*
X86890000Y-23461179D01*
X89096978Y-24005596D01*
X89096978Y-24017320D01*
X88509330Y-24082533D01*
X86890000Y-24418855D01*
X86890000Y-24924438D01*
X89750572Y-24329462D01*
G37*
G36*
X87358946Y-22029427D02*
G01*
X87358946Y-21516517D01*
X89281625Y-21116448D01*
X89281625Y-21600781D01*
X89750572Y-21503328D01*
X89750572Y-20020286D01*
X89281625Y-20117739D01*
X89281625Y-20602072D01*
X87358946Y-21002142D01*
X87358946Y-20489232D01*
X86890000Y-20586685D01*
X86890000Y-22126880D01*
X87358946Y-22029427D01*
G37*
G36*
X88128928Y-64259441D02*
G01*
X88159402Y-64267942D01*
X88188726Y-64276592D01*
X88216899Y-64285390D01*
X88257001Y-64298867D01*
X88294514Y-64312679D01*
X88329438Y-64326825D01*
X88361773Y-64341306D01*
X88391519Y-64356123D01*
X88418677Y-64371274D01*
X88450859Y-64391996D01*
X88478440Y-64413314D01*
X88496899Y-64430187D01*
X88519528Y-64455168D01*
X88539890Y-64482989D01*
X88557985Y-64513649D01*
X88573813Y-64547149D01*
X88587374Y-64583488D01*
X88596057Y-64612605D01*
X88603465Y-64643319D01*
X88609598Y-64675631D01*
X88646967Y-64675631D01*
X88648833Y-64663628D01*
X88654833Y-64628656D01*
X88661438Y-64595243D01*
X88668649Y-64563389D01*
X88676465Y-64533093D01*
X88684886Y-64504356D01*
X88697056Y-64468463D01*
X88710303Y-64435342D01*
X88724625Y-64404991D01*
X88740024Y-64377411D01*
X88757048Y-64351994D01*
X88775882Y-64328501D01*
X88796524Y-64306931D01*
X88818975Y-64287285D01*
X88843236Y-64269562D01*
X88869305Y-64253763D01*
X88897183Y-64239887D01*
X88926870Y-64227934D01*
X88950599Y-64220077D01*
X88984682Y-64210804D01*
X89021559Y-64202904D01*
X89051050Y-64197881D01*
X89082112Y-64193630D01*
X89114746Y-64190153D01*
X89148951Y-64187448D01*
X89184727Y-64185516D01*
X89222075Y-64184357D01*
X89260994Y-64183970D01*
X89300464Y-64184388D01*
X89338823Y-64185642D01*
X89376072Y-64187731D01*
X89412211Y-64190656D01*
X89447239Y-64194417D01*
X89481156Y-64199014D01*
X89513963Y-64204447D01*
X89545659Y-64210715D01*
X89576245Y-64217819D01*
X89605720Y-64225759D01*
X89647850Y-64239235D01*
X89687482Y-64254593D01*
X89724615Y-64271830D01*
X89759249Y-64290949D01*
X89770325Y-64297779D01*
X89802377Y-64319994D01*
X89832665Y-64344799D01*
X89861187Y-64372193D01*
X89887946Y-64402175D01*
X89912939Y-64434747D01*
X89936168Y-64469907D01*
X89957633Y-64507656D01*
X89970962Y-64534260D01*
X89983507Y-64562015D01*
X89995268Y-64590921D01*
X90006245Y-64620977D01*
X90016437Y-64652184D01*
X90026020Y-64684776D01*
X90034984Y-64718988D01*
X90043330Y-64754820D01*
X90051058Y-64792272D01*
X90058168Y-64831344D01*
X90064660Y-64872037D01*
X90070533Y-64914349D01*
X90075788Y-64958281D01*
X90080425Y-65003833D01*
X90084443Y-65051006D01*
X90087844Y-65099798D01*
X90090626Y-65150210D01*
X90092790Y-65202242D01*
X90094335Y-65255895D01*
X90095263Y-65311167D01*
X90095572Y-65368060D01*
X90095572Y-65377974D01*
X90095572Y-65416241D01*
X90095572Y-65452288D01*
X90095572Y-65486114D01*
X90095572Y-65517719D01*
X90095572Y-65554101D01*
X90095572Y-65587013D01*
X90095572Y-65616454D01*
X90095572Y-66116175D01*
X87235000Y-66116175D01*
X87235000Y-65582749D01*
X88407365Y-65582749D01*
X88876311Y-65582749D01*
X89635418Y-65582749D01*
X89632885Y-65562874D01*
X89630060Y-65529821D01*
X89628308Y-65496633D01*
X89627321Y-65465553D01*
X89626763Y-65431360D01*
X89626625Y-65401765D01*
X89626625Y-65377999D01*
X89626625Y-65343326D01*
X89626625Y-65305242D01*
X89626625Y-65274439D01*
X89626625Y-65241718D01*
X89626625Y-65207077D01*
X89626625Y-65170517D01*
X89626625Y-65132038D01*
X89626625Y-65091640D01*
X89626625Y-65049323D01*
X89626553Y-65037352D01*
X89625469Y-65002874D01*
X89623084Y-64970548D01*
X89619398Y-64940372D01*
X89612460Y-64903484D01*
X89603210Y-64870419D01*
X89591646Y-64841179D01*
X89573940Y-64810006D01*
X89552620Y-64784808D01*
X89547931Y-64780390D01*
X89521201Y-64760404D01*
X89488998Y-64743925D01*
X89459294Y-64733266D01*
X89426086Y-64724851D01*
X89389375Y-64718680D01*
X89359543Y-64715525D01*
X89327740Y-64713631D01*
X89293967Y-64713000D01*
X89264952Y-64713272D01*
X89223567Y-64714700D01*
X89184744Y-64717351D01*
X89148485Y-64721226D01*
X89114789Y-64726324D01*
X89083656Y-64732646D01*
X89055086Y-64740191D01*
X89020980Y-64752155D01*
X88991430Y-64766295D01*
X88966437Y-64782609D01*
X88955523Y-64791688D01*
X88931320Y-64818493D01*
X88915125Y-64844161D01*
X88901747Y-64873585D01*
X88891186Y-64906764D01*
X88883441Y-64943698D01*
X88879480Y-64973863D01*
X88877104Y-65006140D01*
X88876311Y-65040530D01*
X88876311Y-65582749D01*
X88407365Y-65582749D01*
X88407365Y-65313838D01*
X88407110Y-65281912D01*
X88406346Y-65251166D01*
X88405073Y-65221600D01*
X88402207Y-65179461D01*
X88398195Y-65139975D01*
X88393036Y-65103142D01*
X88386731Y-65068963D01*
X88379280Y-65037437D01*
X88370683Y-65008565D01*
X88357437Y-64974195D01*
X88342152Y-64944542D01*
X88323960Y-64918290D01*
X88301990Y-64894122D01*
X88276241Y-64872037D01*
X88246714Y-64852035D01*
X88213410Y-64834118D01*
X88185952Y-64822047D01*
X88156368Y-64811149D01*
X88124660Y-64801422D01*
X88090826Y-64792868D01*
X87235000Y-64595764D01*
X87235000Y-64019839D01*
X88128928Y-64259441D01*
G37*
G36*
X90095572Y-63489344D02*
G01*
X90095572Y-61716873D01*
X89626625Y-61716873D01*
X89626625Y-62951521D01*
X88970101Y-62951521D01*
X88970101Y-61884668D01*
X88501154Y-61884668D01*
X88501154Y-62951521D01*
X87703946Y-62951521D01*
X87703946Y-61632609D01*
X87235000Y-61632609D01*
X87235000Y-63489344D01*
X90095572Y-63489344D01*
G37*
G36*
X90095572Y-61294822D02*
G01*
X90095572Y-60770188D01*
X87856353Y-60127585D01*
X87856353Y-60106336D01*
X90095572Y-59463733D01*
X90095572Y-58938367D01*
X87235000Y-59786866D01*
X87235000Y-60446322D01*
X90095572Y-61294822D01*
G37*
G36*
X87926695Y-56058011D02*
G01*
X87953735Y-56023127D01*
X87980356Y-55988816D01*
X88006560Y-55955080D01*
X88032346Y-55921918D01*
X88057713Y-55889329D01*
X88082663Y-55857315D01*
X88107195Y-55825874D01*
X88131310Y-55795007D01*
X88155006Y-55764714D01*
X88178284Y-55734995D01*
X88201145Y-55705849D01*
X88223588Y-55677278D01*
X88245612Y-55649281D01*
X88267219Y-55621857D01*
X88288408Y-55595007D01*
X88309180Y-55568731D01*
X88329533Y-55543029D01*
X88349468Y-55517901D01*
X88368986Y-55493347D01*
X88388085Y-55469366D01*
X88406767Y-55445960D01*
X88442877Y-55400868D01*
X88477315Y-55358072D01*
X88510082Y-55317572D01*
X88541177Y-55279367D01*
X88570600Y-55243458D01*
X88584685Y-55226364D01*
X88612309Y-55193162D01*
X88639491Y-55160785D01*
X88666233Y-55129231D01*
X88692534Y-55098503D01*
X88718394Y-55068598D01*
X88743814Y-55039518D01*
X88768792Y-55011262D01*
X88793330Y-54983831D01*
X88817427Y-54957223D01*
X88841083Y-54931441D01*
X88864299Y-54906482D01*
X88887073Y-54882348D01*
X88909407Y-54859038D01*
X88931300Y-54836552D01*
X88952753Y-54814891D01*
X88973764Y-54794054D01*
X89000340Y-54770330D01*
X89026486Y-54749074D01*
X89052203Y-54730287D01*
X89077491Y-54713969D01*
X89107270Y-54697646D01*
X89136430Y-54684877D01*
X89166801Y-54674668D01*
X89200212Y-54666571D01*
X89230376Y-54661437D01*
X89262651Y-54657769D01*
X89297037Y-54655569D01*
X89333534Y-54654836D01*
X89369804Y-54655465D01*
X89403876Y-54657354D01*
X89435750Y-54660503D01*
X89465425Y-54664911D01*
X89499428Y-54672191D01*
X89529997Y-54681440D01*
X89557131Y-54692656D01*
X89562145Y-54695136D01*
X89590224Y-54711983D01*
X89615108Y-54732848D01*
X89636798Y-54757732D01*
X89655293Y-54786635D01*
X89668266Y-54813790D01*
X89674986Y-54831423D01*
X89684907Y-54863598D01*
X89691633Y-54892146D01*
X89697283Y-54923189D01*
X89701857Y-54956729D01*
X89705354Y-54992764D01*
X89707776Y-55031296D01*
X89708886Y-55061832D01*
X89709390Y-55093772D01*
X89709424Y-55104731D01*
X89709102Y-55137158D01*
X89708136Y-55168221D01*
X89706526Y-55197918D01*
X89703377Y-55235390D01*
X89699084Y-55270435D01*
X89693646Y-55303053D01*
X89687063Y-55333243D01*
X89677224Y-55367569D01*
X89672787Y-55380237D01*
X89660405Y-55409650D01*
X89645696Y-55436522D01*
X89628663Y-55460855D01*
X89605152Y-55486701D01*
X89578293Y-55508889D01*
X89553353Y-55524584D01*
X89525743Y-55538187D01*
X89494663Y-55550144D01*
X89460112Y-55560455D01*
X89429973Y-55567519D01*
X89397613Y-55573530D01*
X89363031Y-55578487D01*
X89326229Y-55582391D01*
X89316681Y-55583203D01*
X89316681Y-56121025D01*
X89356850Y-56118615D01*
X89395839Y-56115599D01*
X89433649Y-56111975D01*
X89470280Y-56107745D01*
X89505731Y-56102907D01*
X89540003Y-56097464D01*
X89573096Y-56091413D01*
X89605010Y-56084755D01*
X89635744Y-56077491D01*
X89665300Y-56069620D01*
X89693676Y-56061142D01*
X89734029Y-56047287D01*
X89771729Y-56032067D01*
X89806775Y-56015482D01*
X89817868Y-56009651D01*
X89849945Y-55990897D01*
X89880233Y-55970083D01*
X89908730Y-55947208D01*
X89935436Y-55922273D01*
X89960353Y-55895276D01*
X89983479Y-55866219D01*
X90004814Y-55835101D01*
X90024360Y-55801922D01*
X90042115Y-55766682D01*
X90058079Y-55729382D01*
X90067728Y-55703370D01*
X90081085Y-55662040D01*
X90089259Y-55632834D01*
X90096850Y-55602306D01*
X90103856Y-55570455D01*
X90110279Y-55537282D01*
X90116118Y-55502786D01*
X90121373Y-55466968D01*
X90126044Y-55429828D01*
X90130132Y-55391366D01*
X90133635Y-55351581D01*
X90136554Y-55310474D01*
X90138890Y-55268044D01*
X90140642Y-55224292D01*
X90141809Y-55179218D01*
X90142393Y-55132821D01*
X90142466Y-55109127D01*
X90142177Y-55061468D01*
X90141310Y-55015212D01*
X90139865Y-54970358D01*
X90137841Y-54926907D01*
X90135239Y-54884858D01*
X90132059Y-54844211D01*
X90128301Y-54804968D01*
X90123965Y-54767126D01*
X90119051Y-54730687D01*
X90113558Y-54695651D01*
X90107487Y-54662017D01*
X90100838Y-54629785D01*
X90093611Y-54598956D01*
X90085806Y-54569530D01*
X90073014Y-54528020D01*
X90068461Y-54514884D01*
X90053657Y-54476923D01*
X90036999Y-54441073D01*
X90018486Y-54407336D01*
X89998119Y-54375712D01*
X89975897Y-54346199D01*
X89951820Y-54318799D01*
X89925888Y-54293512D01*
X89898101Y-54270336D01*
X89868460Y-54249273D01*
X89836964Y-54230322D01*
X89814937Y-54218862D01*
X89780094Y-54203017D01*
X89742611Y-54188731D01*
X89702488Y-54176004D01*
X89659724Y-54164835D01*
X89629748Y-54158254D01*
X89598599Y-54152367D01*
X89566276Y-54147172D01*
X89532779Y-54142670D01*
X89498109Y-54138860D01*
X89462265Y-54135743D01*
X89425248Y-54133319D01*
X89387058Y-54131587D01*
X89347693Y-54130548D01*
X89307156Y-54130202D01*
X89265955Y-54130756D01*
X89226158Y-54132417D01*
X89187765Y-54135186D01*
X89150776Y-54139063D01*
X89115190Y-54144048D01*
X89081009Y-54150140D01*
X89048231Y-54157340D01*
X89016858Y-54165648D01*
X88986888Y-54175063D01*
X88958323Y-54185586D01*
X88940059Y-54193217D01*
X88912841Y-54206030D01*
X88885044Y-54220840D01*
X88856667Y-54237646D01*
X88827711Y-54256449D01*
X88798175Y-54277248D01*
X88768059Y-54300043D01*
X88737364Y-54324835D01*
X88706089Y-54351623D01*
X88674235Y-54380408D01*
X88652677Y-54400707D01*
X88630861Y-54421893D01*
X88619856Y-54432819D01*
X88591981Y-54460599D01*
X88564410Y-54488437D01*
X88537141Y-54516333D01*
X88510176Y-54544285D01*
X88483515Y-54572295D01*
X88457156Y-54600362D01*
X88431102Y-54628486D01*
X88405350Y-54656667D01*
X88379902Y-54684906D01*
X88354758Y-54713202D01*
X88329916Y-54741555D01*
X88305379Y-54769965D01*
X88281144Y-54798433D01*
X88257213Y-54826958D01*
X88233585Y-54855540D01*
X88210261Y-54884180D01*
X88186708Y-54913440D01*
X88162393Y-54944069D01*
X88137317Y-54976065D01*
X88111480Y-55009430D01*
X88084882Y-55044163D01*
X88057522Y-55080265D01*
X88029400Y-55117734D01*
X88000518Y-55156571D01*
X87970874Y-55196777D01*
X87940468Y-55238351D01*
X87909302Y-55281293D01*
X87877373Y-55325603D01*
X87844684Y-55371281D01*
X87811233Y-55418327D01*
X87794222Y-55442363D01*
X87777021Y-55466742D01*
X87759630Y-55491462D01*
X87742048Y-55516524D01*
X87703946Y-55516524D01*
X87703946Y-54092100D01*
X87235000Y-54092100D01*
X87235000Y-56058011D01*
X87926695Y-56058011D01*
G37*
G36*
X88671391Y-51515913D02*
G01*
X88702804Y-51516173D01*
X88733879Y-51516606D01*
X88764616Y-51517212D01*
X88795016Y-51517991D01*
X88825078Y-51518943D01*
X88854802Y-51520069D01*
X88884188Y-51521368D01*
X88941948Y-51524485D01*
X88998357Y-51528294D01*
X89053414Y-51532797D01*
X89107121Y-51537991D01*
X89159477Y-51543879D01*
X89210481Y-51550459D01*
X89260135Y-51557732D01*
X89308438Y-51565698D01*
X89355390Y-51574356D01*
X89400991Y-51583707D01*
X89445241Y-51593750D01*
X89488140Y-51604487D01*
X89522383Y-51613480D01*
X89555505Y-51622690D01*
X89587505Y-51632118D01*
X89618382Y-51641764D01*
X89648138Y-51651627D01*
X89676772Y-51661708D01*
X89704283Y-51672006D01*
X89743447Y-51687862D01*
X89780086Y-51704206D01*
X89814201Y-51721041D01*
X89845791Y-51738364D01*
X89874857Y-51756177D01*
X89901399Y-51774480D01*
X89918020Y-51787059D01*
X89941738Y-51807077D01*
X89964001Y-51828473D01*
X89984809Y-51851247D01*
X90004161Y-51875399D01*
X90022058Y-51900929D01*
X90038499Y-51927837D01*
X90053485Y-51956124D01*
X90067015Y-51985789D01*
X90079090Y-52016832D01*
X90089710Y-52049253D01*
X90099138Y-52083760D01*
X90107639Y-52121063D01*
X90115212Y-52161161D01*
X90121858Y-52204053D01*
X90125774Y-52234201D01*
X90129277Y-52265591D01*
X90132368Y-52298223D01*
X90135047Y-52332097D01*
X90137314Y-52367214D01*
X90139169Y-52403573D01*
X90140612Y-52441174D01*
X90141642Y-52480017D01*
X90142260Y-52520102D01*
X90142466Y-52561430D01*
X90142260Y-52602855D01*
X90141642Y-52643049D01*
X90140612Y-52682013D01*
X90139169Y-52719745D01*
X90137314Y-52756247D01*
X90135047Y-52791518D01*
X90132368Y-52825559D01*
X90129277Y-52858368D01*
X90125774Y-52889947D01*
X90121858Y-52920295D01*
X90115212Y-52963510D01*
X90107639Y-53003955D01*
X90099138Y-53041631D01*
X90089710Y-53076538D01*
X90082786Y-53098486D01*
X90071166Y-53130248D01*
X90058065Y-53160619D01*
X90043483Y-53189599D01*
X90027419Y-53217188D01*
X90009875Y-53243386D01*
X89990849Y-53268193D01*
X89970342Y-53291608D01*
X89948353Y-53313633D01*
X89924884Y-53334267D01*
X89899933Y-53353510D01*
X89872993Y-53371812D01*
X89843553Y-53389625D01*
X89811615Y-53406949D01*
X89777178Y-53423783D01*
X89740243Y-53440128D01*
X89700808Y-53455983D01*
X89673131Y-53466281D01*
X89644343Y-53476362D01*
X89614444Y-53486225D01*
X89583435Y-53495871D01*
X89551315Y-53505299D01*
X89518084Y-53514510D01*
X89483743Y-53523503D01*
X89463029Y-53528912D01*
X89420685Y-53539216D01*
X89377122Y-53548833D01*
X89332340Y-53557763D01*
X89286338Y-53566007D01*
X89239117Y-53573563D01*
X89190677Y-53580432D01*
X89141017Y-53586615D01*
X89090139Y-53592110D01*
X89038041Y-53596919D01*
X88984723Y-53601040D01*
X88930186Y-53604475D01*
X88874430Y-53607223D01*
X88817455Y-53609283D01*
X88759260Y-53610657D01*
X88729706Y-53611087D01*
X88699846Y-53611344D01*
X88669682Y-53611430D01*
X88611562Y-53611118D01*
X88554438Y-53610182D01*
X88498309Y-53608622D01*
X88443177Y-53606438D01*
X88389041Y-53603631D01*
X88335901Y-53600199D01*
X88283757Y-53596143D01*
X88232609Y-53591463D01*
X88182458Y-53586160D01*
X88133302Y-53580232D01*
X88085142Y-53573680D01*
X88037978Y-53566505D01*
X87991811Y-53558705D01*
X87946639Y-53550282D01*
X87902464Y-53541234D01*
X87859284Y-53531563D01*
X87823418Y-53522555D01*
X87788725Y-53513302D01*
X87755205Y-53503802D01*
X87722859Y-53494056D01*
X87691687Y-53484064D01*
X87661688Y-53473826D01*
X87632863Y-53463342D01*
X87591825Y-53447154D01*
X87553427Y-53430412D01*
X87517670Y-53413116D01*
X87484554Y-53395267D01*
X87454077Y-53376863D01*
X87426242Y-53357906D01*
X87408928Y-53344708D01*
X87384321Y-53323849D01*
X87361349Y-53301715D01*
X87340014Y-53278305D01*
X87320314Y-53253621D01*
X87302250Y-53227661D01*
X87285821Y-53200427D01*
X87271028Y-53171917D01*
X87257872Y-53142132D01*
X87246350Y-53111072D01*
X87236465Y-53078736D01*
X87233158Y-53065547D01*
X88240303Y-53065547D01*
X88251631Y-53066855D01*
X88286362Y-53070528D01*
X88322213Y-53073827D01*
X88359185Y-53076753D01*
X88397278Y-53079305D01*
X88436491Y-53081484D01*
X88476825Y-53083289D01*
X88518279Y-53084721D01*
X88560854Y-53085780D01*
X88604549Y-53086464D01*
X88634302Y-53086713D01*
X88664553Y-53086796D01*
X88694692Y-53086731D01*
X88738548Y-53086385D01*
X88780782Y-53085743D01*
X88821393Y-53084805D01*
X88860380Y-53083571D01*
X88897745Y-53082040D01*
X88933487Y-53080213D01*
X88967606Y-53078090D01*
X89000102Y-53075671D01*
X89030976Y-53072955D01*
X89060226Y-53069944D01*
X89098156Y-53065605D01*
X89135743Y-53061014D01*
X89172986Y-53056171D01*
X89209886Y-53051076D01*
X89246442Y-53045729D01*
X89282655Y-53040131D01*
X89318525Y-53034280D01*
X89354050Y-53028178D01*
X89392244Y-53019695D01*
X89427690Y-53011096D01*
X89460388Y-53002384D01*
X89490338Y-52993557D01*
X89523912Y-52982362D01*
X89553192Y-52970988D01*
X89582662Y-52957103D01*
X89587062Y-52954677D01*
X89611688Y-52938225D01*
X89636577Y-52914929D01*
X89654618Y-52891444D01*
X89669619Y-52864714D01*
X89681580Y-52834738D01*
X89683293Y-52829378D01*
X89691043Y-52799764D01*
X89697433Y-52765464D01*
X89701566Y-52734650D01*
X89704828Y-52700835D01*
X89707221Y-52664021D01*
X89708445Y-52634442D01*
X89709179Y-52603176D01*
X89709424Y-52570223D01*
X89708986Y-52528183D01*
X89707672Y-52488615D01*
X89705483Y-52451521D01*
X89702417Y-52416899D01*
X89698476Y-52384751D01*
X89691858Y-52345733D01*
X89683684Y-52311112D01*
X89673952Y-52280887D01*
X89659598Y-52249288D01*
X89656385Y-52243661D01*
X89637359Y-52217096D01*
X89613395Y-52193143D01*
X89584494Y-52171802D01*
X89557818Y-52156609D01*
X89527982Y-52143088D01*
X89494986Y-52131238D01*
X89458831Y-52121060D01*
X88240303Y-53065547D01*
X87233158Y-53065547D01*
X87227822Y-53044261D01*
X87220030Y-53007055D01*
X87213088Y-52967118D01*
X87206996Y-52924451D01*
X87203406Y-52894490D01*
X87200195Y-52863314D01*
X87197361Y-52830925D01*
X87194906Y-52797323D01*
X87192828Y-52762507D01*
X87191127Y-52726477D01*
X87189805Y-52689234D01*
X87188860Y-52650777D01*
X87188294Y-52611107D01*
X87188105Y-52570223D01*
X87188125Y-52565826D01*
X87621147Y-52565826D01*
X87621482Y-52604168D01*
X87622487Y-52640333D01*
X87624161Y-52674321D01*
X87626506Y-52706133D01*
X87629519Y-52735767D01*
X87634580Y-52771894D01*
X87640831Y-52804151D01*
X87648273Y-52832539D01*
X87659249Y-52862581D01*
X87672941Y-52888102D01*
X87693481Y-52915373D01*
X87718502Y-52938986D01*
X87742778Y-52955870D01*
X87770165Y-52970213D01*
X87800666Y-52982016D01*
X88997212Y-52053649D01*
X88980934Y-52052141D01*
X88946885Y-52049416D01*
X88910844Y-52047080D01*
X88872811Y-52045134D01*
X88842979Y-52043930D01*
X88812026Y-52042944D01*
X88779953Y-52042178D01*
X88746759Y-52041631D01*
X88712444Y-52041302D01*
X88677009Y-52041193D01*
X88624674Y-52041422D01*
X88573546Y-52042109D01*
X88523626Y-52043254D01*
X88474914Y-52044856D01*
X88427409Y-52046917D01*
X88381113Y-52049436D01*
X88336024Y-52052413D01*
X88292144Y-52055847D01*
X88249471Y-52059740D01*
X88208006Y-52064091D01*
X88167749Y-52068899D01*
X88128699Y-52074166D01*
X88090858Y-52079890D01*
X88054224Y-52086072D01*
X88018799Y-52092713D01*
X87984581Y-52099811D01*
X87974506Y-52101918D01*
X87945380Y-52108237D01*
X87909110Y-52116664D01*
X87875771Y-52125090D01*
X87845362Y-52133517D01*
X87811474Y-52144050D01*
X87782165Y-52154583D01*
X87753039Y-52167222D01*
X87724944Y-52184312D01*
X87700285Y-52206732D01*
X87681884Y-52230191D01*
X87666007Y-52257565D01*
X87652655Y-52288855D01*
X87648839Y-52300241D01*
X87640378Y-52332162D01*
X87634717Y-52361253D01*
X87630040Y-52393505D01*
X87626347Y-52428916D01*
X87623640Y-52467488D01*
X87622255Y-52498490D01*
X87621424Y-52531269D01*
X87621147Y-52565826D01*
X87188125Y-52565826D01*
X87188294Y-52528809D01*
X87188860Y-52488650D01*
X87189805Y-52449743D01*
X87191127Y-52412091D01*
X87192828Y-52375692D01*
X87194906Y-52340547D01*
X87197361Y-52306655D01*
X87200195Y-52274017D01*
X87203406Y-52242633D01*
X87206996Y-52212502D01*
X87213088Y-52169657D01*
X87220030Y-52129633D01*
X87227822Y-52092429D01*
X87236465Y-52058046D01*
X87242865Y-52036253D01*
X87253796Y-52004615D01*
X87266324Y-51974240D01*
X87280449Y-51945127D01*
X87296171Y-51917276D01*
X87313490Y-51890687D01*
X87332407Y-51865361D01*
X87352920Y-51841297D01*
X87375031Y-51818495D01*
X87398739Y-51796955D01*
X87424043Y-51776678D01*
X87432934Y-51770117D01*
X87461321Y-51750838D01*
X87492285Y-51732164D01*
X87525824Y-51714095D01*
X87561940Y-51696632D01*
X87600631Y-51679774D01*
X87627856Y-51668872D01*
X87656227Y-51658239D01*
X87685742Y-51647875D01*
X87716402Y-51637780D01*
X87748207Y-51627954D01*
X87781157Y-51618397D01*
X87815252Y-51609109D01*
X87850491Y-51600090D01*
X87873736Y-51594426D01*
X87908527Y-51586327D01*
X87943227Y-51578704D01*
X87977838Y-51571557D01*
X88012359Y-51564888D01*
X88046789Y-51558695D01*
X88081129Y-51552978D01*
X88115379Y-51547738D01*
X88149539Y-51542975D01*
X88183609Y-51538688D01*
X88217588Y-51534877D01*
X88229003Y-51533705D01*
X88263934Y-51530412D01*
X88299894Y-51527454D01*
X88336886Y-51524831D01*
X88374908Y-51522543D01*
X88413960Y-51520589D01*
X88454042Y-51518971D01*
X88495155Y-51517687D01*
X88537299Y-51516738D01*
X88580472Y-51516124D01*
X88609827Y-51515901D01*
X88639640Y-51515826D01*
X88671391Y-51515913D01*
G37*
G36*
X87926695Y-51022700D02*
G01*
X87953735Y-50987816D01*
X87980356Y-50953506D01*
X88006560Y-50919770D01*
X88032346Y-50886607D01*
X88057713Y-50854019D01*
X88082663Y-50822004D01*
X88107195Y-50790563D01*
X88131310Y-50759696D01*
X88155006Y-50729403D01*
X88178284Y-50699684D01*
X88201145Y-50670539D01*
X88223588Y-50641968D01*
X88245612Y-50613970D01*
X88267219Y-50586546D01*
X88288408Y-50559697D01*
X88309180Y-50533421D01*
X88329533Y-50507719D01*
X88349468Y-50482590D01*
X88368986Y-50458036D01*
X88388085Y-50434056D01*
X88406767Y-50410649D01*
X88442877Y-50365558D01*
X88477315Y-50322762D01*
X88510082Y-50282261D01*
X88541177Y-50244057D01*
X88570600Y-50208147D01*
X88584685Y-50191053D01*
X88612309Y-50157851D01*
X88639491Y-50125474D01*
X88666233Y-50093921D01*
X88692534Y-50063192D01*
X88718394Y-50033288D01*
X88743814Y-50004207D01*
X88768792Y-49975952D01*
X88793330Y-49948520D01*
X88817427Y-49921913D01*
X88841083Y-49896130D01*
X88864299Y-49871171D01*
X88887073Y-49847037D01*
X88909407Y-49823727D01*
X88931300Y-49801242D01*
X88952753Y-49779580D01*
X88973764Y-49758743D01*
X89000340Y-49735019D01*
X89026486Y-49713764D01*
X89052203Y-49694977D01*
X89077491Y-49678658D01*
X89107270Y-49662335D01*
X89136430Y-49649567D01*
X89166801Y-49639357D01*
X89200212Y-49631260D01*
X89230376Y-49626126D01*
X89262651Y-49622459D01*
X89297037Y-49620258D01*
X89333534Y-49619525D01*
X89369804Y-49620155D01*
X89403876Y-49622044D01*
X89435750Y-49625192D01*
X89465425Y-49629600D01*
X89499428Y-49636881D01*
X89529997Y-49646129D01*
X89557131Y-49657346D01*
X89562145Y-49659825D01*
X89590224Y-49676672D01*
X89615108Y-49697538D01*
X89636798Y-49722422D01*
X89655293Y-49751325D01*
X89668266Y-49778480D01*
X89674986Y-49796113D01*
X89684907Y-49828287D01*
X89691633Y-49856835D01*
X89697283Y-49887879D01*
X89701857Y-49921418D01*
X89705354Y-49957454D01*
X89707776Y-49995985D01*
X89708886Y-50026521D01*
X89709390Y-50058462D01*
X89709424Y-50069420D01*
X89709102Y-50101848D01*
X89708136Y-50132910D01*
X89706526Y-50162607D01*
X89703377Y-50200079D01*
X89699084Y-50235124D01*
X89693646Y-50267742D01*
X89687063Y-50297933D01*
X89677224Y-50332258D01*
X89672787Y-50344926D01*
X89660405Y-50374339D01*
X89645696Y-50401212D01*
X89628663Y-50425544D01*
X89605152Y-50451390D01*
X89578293Y-50473578D01*
X89553353Y-50489274D01*
X89525743Y-50502876D01*
X89494663Y-50514833D01*
X89460112Y-50525145D01*
X89429973Y-50532208D01*
X89397613Y-50538219D01*
X89363031Y-50543177D01*
X89326229Y-50547081D01*
X89316681Y-50547892D01*
X89316681Y-51085715D01*
X89356850Y-51083305D01*
X89395839Y-51080288D01*
X89433649Y-51076664D01*
X89470280Y-51072434D01*
X89505731Y-51067597D01*
X89540003Y-51062153D01*
X89573096Y-51056102D01*
X89605010Y-51049445D01*
X89635744Y-51042180D01*
X89665300Y-51034309D01*
X89693676Y-51025831D01*
X89734029Y-51011977D01*
X89771729Y-50996757D01*
X89806775Y-50980172D01*
X89817868Y-50974340D01*
X89849945Y-50955587D01*
X89880233Y-50934773D01*
X89908730Y-50911898D01*
X89935436Y-50886962D01*
X89960353Y-50859966D01*
X89983479Y-50830908D01*
X90004814Y-50799790D01*
X90024360Y-50766612D01*
X90042115Y-50731372D01*
X90058079Y-50694071D01*
X90067728Y-50668060D01*
X90081085Y-50626730D01*
X90089259Y-50597524D01*
X90096850Y-50566995D01*
X90103856Y-50535144D01*
X90110279Y-50501971D01*
X90116118Y-50467476D01*
X90121373Y-50431658D01*
X90126044Y-50394518D01*
X90130132Y-50356055D01*
X90133635Y-50316270D01*
X90136554Y-50275163D01*
X90138890Y-50232734D01*
X90140642Y-50188982D01*
X90141809Y-50143907D01*
X90142393Y-50097511D01*
X90142466Y-50073817D01*
X90142177Y-50026158D01*
X90141310Y-49979901D01*
X90139865Y-49935048D01*
X90137841Y-49891596D01*
X90135239Y-49849547D01*
X90132059Y-49808901D01*
X90128301Y-49769657D01*
X90123965Y-49731816D01*
X90119051Y-49695377D01*
X90113558Y-49660340D01*
X90107487Y-49626706D01*
X90100838Y-49594475D01*
X90093611Y-49563646D01*
X90085806Y-49534219D01*
X90073014Y-49492709D01*
X90068461Y-49479574D01*
X90053657Y-49441612D01*
X90036999Y-49405763D01*
X90018486Y-49372026D01*
X89998119Y-49340401D01*
X89975897Y-49310889D01*
X89951820Y-49283489D01*
X89925888Y-49258201D01*
X89898101Y-49235026D01*
X89868460Y-49213963D01*
X89836964Y-49195012D01*
X89814937Y-49183551D01*
X89780094Y-49167707D01*
X89742611Y-49153421D01*
X89702488Y-49140693D01*
X89659724Y-49129524D01*
X89629748Y-49122944D01*
X89598599Y-49117056D01*
X89566276Y-49111861D01*
X89532779Y-49107359D01*
X89498109Y-49103550D01*
X89462265Y-49100433D01*
X89425248Y-49098008D01*
X89387058Y-49096277D01*
X89347693Y-49095238D01*
X89307156Y-49094891D01*
X89265955Y-49095445D01*
X89226158Y-49097107D01*
X89187765Y-49099876D01*
X89150776Y-49103753D01*
X89115190Y-49108737D01*
X89081009Y-49114830D01*
X89048231Y-49122029D01*
X89016858Y-49130337D01*
X88986888Y-49139752D01*
X88958323Y-49150275D01*
X88940059Y-49157906D01*
X88912841Y-49170719D01*
X88885044Y-49185529D01*
X88856667Y-49202336D01*
X88827711Y-49221138D01*
X88798175Y-49241937D01*
X88768059Y-49264733D01*
X88737364Y-49289525D01*
X88706089Y-49316313D01*
X88674235Y-49345097D01*
X88652677Y-49365396D01*
X88630861Y-49386582D01*
X88619856Y-49397508D01*
X88591981Y-49425289D01*
X88564410Y-49453127D01*
X88537141Y-49481022D01*
X88510176Y-49508975D01*
X88483515Y-49536984D01*
X88457156Y-49565051D01*
X88431102Y-49593175D01*
X88405350Y-49621357D01*
X88379902Y-49649595D01*
X88354758Y-49677891D01*
X88329916Y-49706245D01*
X88305379Y-49734655D01*
X88281144Y-49763123D01*
X88257213Y-49791647D01*
X88233585Y-49820230D01*
X88210261Y-49848869D01*
X88186708Y-49878129D01*
X88162393Y-49908758D01*
X88137317Y-49940755D01*
X88111480Y-49974120D01*
X88084882Y-50008853D01*
X88057522Y-50044954D01*
X88029400Y-50082423D01*
X88000518Y-50121261D01*
X87970874Y-50161466D01*
X87940468Y-50203040D01*
X87909302Y-50245982D01*
X87877373Y-50290292D01*
X87844684Y-50335970D01*
X87811233Y-50383017D01*
X87794222Y-50407053D01*
X87777021Y-50431431D01*
X87759630Y-50456151D01*
X87742048Y-50481214D01*
X87703946Y-50481214D01*
X87703946Y-49056789D01*
X87235000Y-49056789D01*
X87235000Y-51022700D01*
X87926695Y-51022700D01*
G37*
G36*
X88209528Y-48534354D02*
G01*
X90142466Y-47614780D01*
X90142466Y-47052044D01*
X88183883Y-48005324D01*
X88183883Y-47370781D01*
X88876311Y-47370781D01*
X88876311Y-46866664D01*
X88183883Y-46866664D01*
X88183883Y-46476120D01*
X87750840Y-46476120D01*
X87750840Y-46866664D01*
X87235000Y-46866664D01*
X87235000Y-47370781D01*
X87750840Y-47370781D01*
X87750840Y-48534354D01*
X88209528Y-48534354D01*
G37*
G36*
X87985314Y-45407801D02*
G01*
X87985314Y-44609860D01*
X87235000Y-44609860D01*
X87235000Y-45407801D01*
X87985314Y-45407801D01*
G37*
G36*
X88671391Y-41445292D02*
G01*
X88702804Y-41445552D01*
X88733879Y-41445985D01*
X88764616Y-41446591D01*
X88795016Y-41447370D01*
X88825078Y-41448322D01*
X88854802Y-41449448D01*
X88884188Y-41450747D01*
X88941948Y-41453864D01*
X88998357Y-41457673D01*
X89053414Y-41462175D01*
X89107121Y-41467370D01*
X89159477Y-41473258D01*
X89210481Y-41479838D01*
X89260135Y-41487111D01*
X89308438Y-41495077D01*
X89355390Y-41503735D01*
X89400991Y-41513086D01*
X89445241Y-41523129D01*
X89488140Y-41533866D01*
X89522383Y-41542859D01*
X89555505Y-41552069D01*
X89587505Y-41561497D01*
X89618382Y-41571143D01*
X89648138Y-41581006D01*
X89676772Y-41591087D01*
X89704283Y-41601385D01*
X89743447Y-41617241D01*
X89780086Y-41633585D01*
X89814201Y-41650419D01*
X89845791Y-41667743D01*
X89874857Y-41685556D01*
X89901399Y-41703859D01*
X89918020Y-41716438D01*
X89941738Y-41736456D01*
X89964001Y-41757851D01*
X89984809Y-41780625D01*
X90004161Y-41804778D01*
X90022058Y-41830308D01*
X90038499Y-41857216D01*
X90053485Y-41885503D01*
X90067015Y-41915168D01*
X90079090Y-41946211D01*
X90089710Y-41978632D01*
X90099138Y-42013139D01*
X90107639Y-42050442D01*
X90115212Y-42090540D01*
X90121858Y-42133432D01*
X90125774Y-42163580D01*
X90129277Y-42194970D01*
X90132368Y-42227602D01*
X90135047Y-42261476D01*
X90137314Y-42296593D01*
X90139169Y-42332952D01*
X90140612Y-42370553D01*
X90141642Y-42409396D01*
X90142260Y-42449481D01*
X90142466Y-42490809D01*
X90142260Y-42532234D01*
X90141642Y-42572428D01*
X90140612Y-42611391D01*
X90139169Y-42649124D01*
X90137314Y-42685626D01*
X90135047Y-42720897D01*
X90132368Y-42754938D01*
X90129277Y-42787747D01*
X90125774Y-42819326D01*
X90121858Y-42849674D01*
X90115212Y-42892889D01*
X90107639Y-42933334D01*
X90099138Y-42971010D01*
X90089710Y-43005917D01*
X90082786Y-43027865D01*
X90071166Y-43059627D01*
X90058065Y-43089998D01*
X90043483Y-43118978D01*
X90027419Y-43146567D01*
X90009875Y-43172765D01*
X89990849Y-43197571D01*
X89970342Y-43220987D01*
X89948353Y-43243012D01*
X89924884Y-43263646D01*
X89899933Y-43282889D01*
X89872993Y-43301191D01*
X89843553Y-43319004D01*
X89811615Y-43336328D01*
X89777178Y-43353162D01*
X89740243Y-43369507D01*
X89700808Y-43385362D01*
X89673131Y-43395660D01*
X89644343Y-43405741D01*
X89614444Y-43415604D01*
X89583435Y-43425250D01*
X89551315Y-43434678D01*
X89518084Y-43443888D01*
X89483743Y-43452882D01*
X89463029Y-43458291D01*
X89420685Y-43468595D01*
X89377122Y-43478212D01*
X89332340Y-43487142D01*
X89286338Y-43495386D01*
X89239117Y-43502942D01*
X89190677Y-43509811D01*
X89141017Y-43515994D01*
X89090139Y-43521489D01*
X89038041Y-43526298D01*
X88984723Y-43530419D01*
X88930186Y-43533854D01*
X88874430Y-43536602D01*
X88817455Y-43538662D01*
X88759260Y-43540036D01*
X88729706Y-43540466D01*
X88699846Y-43540723D01*
X88669682Y-43540809D01*
X88611562Y-43540497D01*
X88554438Y-43539561D01*
X88498309Y-43538001D01*
X88443177Y-43535817D01*
X88389041Y-43533009D01*
X88335901Y-43529578D01*
X88283757Y-43525522D01*
X88232609Y-43520842D01*
X88182458Y-43515538D01*
X88133302Y-43509611D01*
X88085142Y-43503059D01*
X88037978Y-43495884D01*
X87991811Y-43488084D01*
X87946639Y-43479661D01*
X87902464Y-43470613D01*
X87859284Y-43460942D01*
X87823418Y-43451934D01*
X87788725Y-43442681D01*
X87755205Y-43433181D01*
X87722859Y-43423435D01*
X87691687Y-43413443D01*
X87661688Y-43403205D01*
X87632863Y-43392721D01*
X87591825Y-43376533D01*
X87553427Y-43359791D01*
X87517670Y-43342495D01*
X87484554Y-43324645D01*
X87454077Y-43306242D01*
X87426242Y-43287285D01*
X87408928Y-43274087D01*
X87384321Y-43253228D01*
X87361349Y-43231094D01*
X87340014Y-43207684D01*
X87320314Y-43183000D01*
X87302250Y-43157040D01*
X87285821Y-43129806D01*
X87271028Y-43101296D01*
X87257872Y-43071511D01*
X87246350Y-43040451D01*
X87236465Y-43008115D01*
X87233158Y-42994926D01*
X88240303Y-42994926D01*
X88251631Y-42996234D01*
X88286362Y-42999906D01*
X88322213Y-43003206D01*
X88359185Y-43006132D01*
X88397278Y-43008684D01*
X88436491Y-43010863D01*
X88476825Y-43012668D01*
X88518279Y-43014100D01*
X88560854Y-43015159D01*
X88604549Y-43015843D01*
X88634302Y-43016092D01*
X88664553Y-43016175D01*
X88694692Y-43016110D01*
X88738548Y-43015764D01*
X88780782Y-43015122D01*
X88821393Y-43014184D01*
X88860380Y-43012950D01*
X88897745Y-43011419D01*
X88933487Y-43009592D01*
X88967606Y-43007469D01*
X89000102Y-43005050D01*
X89030976Y-43002334D01*
X89060226Y-42999323D01*
X89098156Y-42994983D01*
X89135743Y-42990392D01*
X89172986Y-42985550D01*
X89209886Y-42980455D01*
X89246442Y-42975108D01*
X89282655Y-42969510D01*
X89318525Y-42963659D01*
X89354050Y-42957557D01*
X89392244Y-42949073D01*
X89427690Y-42940475D01*
X89460388Y-42931763D01*
X89490338Y-42922936D01*
X89523912Y-42911741D01*
X89553192Y-42900367D01*
X89582662Y-42886482D01*
X89587062Y-42884056D01*
X89611688Y-42867604D01*
X89636577Y-42844308D01*
X89654618Y-42820823D01*
X89669619Y-42794093D01*
X89681580Y-42764117D01*
X89683293Y-42758757D01*
X89691043Y-42729143D01*
X89697433Y-42694843D01*
X89701566Y-42664028D01*
X89704828Y-42630214D01*
X89707221Y-42593400D01*
X89708445Y-42563821D01*
X89709179Y-42532555D01*
X89709424Y-42499602D01*
X89708986Y-42457561D01*
X89707672Y-42417994D01*
X89705483Y-42380900D01*
X89702417Y-42346278D01*
X89698476Y-42314130D01*
X89691858Y-42275112D01*
X89683684Y-42240491D01*
X89673952Y-42210266D01*
X89659598Y-42178667D01*
X89656385Y-42173040D01*
X89637359Y-42146475D01*
X89613395Y-42122522D01*
X89584494Y-42101181D01*
X89557818Y-42085988D01*
X89527982Y-42072467D01*
X89494986Y-42060617D01*
X89458831Y-42050439D01*
X88240303Y-42994926D01*
X87233158Y-42994926D01*
X87227822Y-42973640D01*
X87220030Y-42936434D01*
X87213088Y-42896497D01*
X87206996Y-42853830D01*
X87203406Y-42823868D01*
X87200195Y-42792693D01*
X87197361Y-42760304D01*
X87194906Y-42726702D01*
X87192828Y-42691886D01*
X87191127Y-42655856D01*
X87189805Y-42618613D01*
X87188860Y-42580156D01*
X87188294Y-42540486D01*
X87188105Y-42499602D01*
X87188125Y-42495205D01*
X87621147Y-42495205D01*
X87621482Y-42533547D01*
X87622487Y-42569712D01*
X87624161Y-42603700D01*
X87626506Y-42635511D01*
X87629519Y-42665146D01*
X87634580Y-42701273D01*
X87640831Y-42733530D01*
X87648273Y-42761918D01*
X87659249Y-42791960D01*
X87672941Y-42817481D01*
X87693481Y-42844752D01*
X87718502Y-42868365D01*
X87742778Y-42885249D01*
X87770165Y-42899592D01*
X87800666Y-42911395D01*
X88997212Y-41983028D01*
X88980934Y-41981520D01*
X88946885Y-41978795D01*
X88910844Y-41976459D01*
X88872811Y-41974513D01*
X88842979Y-41973309D01*
X88812026Y-41972323D01*
X88779953Y-41971557D01*
X88746759Y-41971010D01*
X88712444Y-41970681D01*
X88677009Y-41970572D01*
X88624674Y-41970801D01*
X88573546Y-41971488D01*
X88523626Y-41972633D01*
X88474914Y-41974235D01*
X88427409Y-41976296D01*
X88381113Y-41978815D01*
X88336024Y-41981792D01*
X88292144Y-41985226D01*
X88249471Y-41989119D01*
X88208006Y-41993469D01*
X88167749Y-41998278D01*
X88128699Y-42003545D01*
X88090858Y-42009269D01*
X88054224Y-42015451D01*
X88018799Y-42022092D01*
X87984581Y-42029190D01*
X87974506Y-42031297D01*
X87945380Y-42037616D01*
X87909110Y-42046043D01*
X87875771Y-42054469D01*
X87845362Y-42062896D01*
X87811474Y-42073428D01*
X87782165Y-42083961D01*
X87753039Y-42096601D01*
X87724944Y-42113691D01*
X87700285Y-42136111D01*
X87681884Y-42159570D01*
X87666007Y-42186944D01*
X87652655Y-42218234D01*
X87648839Y-42229620D01*
X87640378Y-42261541D01*
X87634717Y-42290632D01*
X87630040Y-42322884D01*
X87626347Y-42358295D01*
X87623640Y-42396867D01*
X87622255Y-42427869D01*
X87621424Y-42460648D01*
X87621147Y-42495205D01*
X87188125Y-42495205D01*
X87188294Y-42458188D01*
X87188860Y-42418028D01*
X87189805Y-42379122D01*
X87191127Y-42341470D01*
X87192828Y-42305071D01*
X87194906Y-42269926D01*
X87197361Y-42236034D01*
X87200195Y-42203396D01*
X87203406Y-42172012D01*
X87206996Y-42141881D01*
X87213088Y-42099036D01*
X87220030Y-42059011D01*
X87227822Y-42021808D01*
X87236465Y-41987424D01*
X87242865Y-41965632D01*
X87253796Y-41933994D01*
X87266324Y-41903619D01*
X87280449Y-41874506D01*
X87296171Y-41846655D01*
X87313490Y-41820066D01*
X87332407Y-41794740D01*
X87352920Y-41770676D01*
X87375031Y-41747874D01*
X87398739Y-41726334D01*
X87424043Y-41706057D01*
X87432934Y-41699496D01*
X87461321Y-41680217D01*
X87492285Y-41661543D01*
X87525824Y-41643474D01*
X87561940Y-41626011D01*
X87600631Y-41609153D01*
X87627856Y-41598251D01*
X87656227Y-41587618D01*
X87685742Y-41577254D01*
X87716402Y-41567159D01*
X87748207Y-41557333D01*
X87781157Y-41547776D01*
X87815252Y-41538488D01*
X87850491Y-41529469D01*
X87873736Y-41523805D01*
X87908527Y-41515705D01*
X87943227Y-41508083D01*
X87977838Y-41500936D01*
X88012359Y-41494267D01*
X88046789Y-41488074D01*
X88081129Y-41482357D01*
X88115379Y-41477117D01*
X88149539Y-41472354D01*
X88183609Y-41468067D01*
X88217588Y-41464256D01*
X88229003Y-41463084D01*
X88263934Y-41459791D01*
X88299894Y-41456833D01*
X88336886Y-41454210D01*
X88374908Y-41451922D01*
X88413960Y-41449968D01*
X88454042Y-41448350D01*
X88495155Y-41447066D01*
X88537299Y-41446117D01*
X88580472Y-41445503D01*
X88609827Y-41445280D01*
X88639640Y-41445205D01*
X88671391Y-41445292D01*
G37*
D12*
G36*
X95117620Y-66126029D02*
G01*
X95117620Y-65229658D01*
X91131577Y-65229658D01*
X91131577Y-62821423D01*
X90350000Y-62821423D01*
X90350000Y-66126029D01*
X95117620Y-66126029D01*
G37*
G36*
X95117620Y-59780600D02*
G01*
X95117620Y-61027459D01*
X90350000Y-62378122D01*
X90350000Y-61502512D01*
X91366050Y-61202093D01*
X91366050Y-59795254D01*
X92147627Y-59795254D01*
X92147627Y-60992044D01*
X94273761Y-60410746D01*
X94273761Y-60403419D01*
X92147627Y-59795254D01*
X91366050Y-59795254D01*
X91366050Y-59591311D01*
X90350000Y-59283565D01*
X90350000Y-58401849D01*
X95117620Y-59780600D01*
G37*
G36*
X95117620Y-58062351D02*
G01*
X95117620Y-57006001D01*
X92851046Y-56242742D01*
X92851046Y-56165806D01*
X95117620Y-55389113D01*
X95117620Y-54346196D01*
X90350000Y-54346196D01*
X90350000Y-55171737D01*
X92763119Y-55171737D01*
X94003872Y-55087473D01*
X94003872Y-55115561D01*
X91991311Y-55850732D01*
X91991311Y-56557815D01*
X94003872Y-57292986D01*
X94003872Y-57321074D01*
X92763119Y-57236810D01*
X90350000Y-57236810D01*
X90350000Y-58062351D01*
X95117620Y-58062351D01*
G37*
G36*
X91712308Y-50248445D02*
G01*
X91779760Y-50250377D01*
X91844400Y-50253597D01*
X91906227Y-50258105D01*
X91965243Y-50263901D01*
X92021446Y-50270985D01*
X92074837Y-50279357D01*
X92125416Y-50289017D01*
X92188480Y-50303901D01*
X92246545Y-50321074D01*
X92300584Y-50341052D01*
X92351570Y-50364351D01*
X92399502Y-50390970D01*
X92444382Y-50420908D01*
X92486209Y-50454167D01*
X92524982Y-50490747D01*
X92560703Y-50530646D01*
X92593370Y-50573866D01*
X92608821Y-50596739D01*
X92638092Y-50646008D01*
X92665188Y-50699970D01*
X92690108Y-50758627D01*
X92707371Y-50805699D01*
X92723410Y-50855413D01*
X92738226Y-50907766D01*
X92751818Y-50962760D01*
X92764186Y-51020395D01*
X92775331Y-51080669D01*
X92816852Y-51080669D01*
X92832459Y-51015740D01*
X92850426Y-50954674D01*
X92870755Y-50897473D01*
X92893445Y-50844135D01*
X92918497Y-50794662D01*
X92945910Y-50749053D01*
X92975684Y-50707307D01*
X93007820Y-50669426D01*
X93054340Y-50624928D01*
X93105059Y-50587299D01*
X93118517Y-50578884D01*
X93161941Y-50555242D01*
X93209937Y-50534004D01*
X93262505Y-50515171D01*
X93319645Y-50498742D01*
X93381359Y-50484717D01*
X93447644Y-50473096D01*
X93518502Y-50463880D01*
X93568281Y-50459071D01*
X93620092Y-50455331D01*
X93673935Y-50452660D01*
X93729810Y-50451057D01*
X93787718Y-50450523D01*
X93851827Y-50451277D01*
X93914094Y-50453538D01*
X93974520Y-50457306D01*
X94033105Y-50462582D01*
X94089849Y-50469366D01*
X94144751Y-50477657D01*
X94197812Y-50487455D01*
X94249031Y-50498761D01*
X94298409Y-50511574D01*
X94345946Y-50525895D01*
X94413799Y-50550202D01*
X94477508Y-50577901D01*
X94537074Y-50608992D01*
X94592498Y-50643475D01*
X94644619Y-50681743D01*
X94693820Y-50724647D01*
X94740102Y-50772189D01*
X94783465Y-50824367D01*
X94823908Y-50881182D01*
X94861432Y-50942634D01*
X94884826Y-50986178D01*
X94906922Y-51031783D01*
X94927721Y-51079448D01*
X94947222Y-51129175D01*
X94965426Y-51180962D01*
X94982332Y-51234810D01*
X94997941Y-51290718D01*
X95005304Y-51319562D01*
X95019329Y-51379497D01*
X95032419Y-51442428D01*
X95044574Y-51508354D01*
X95055794Y-51577277D01*
X95066078Y-51649195D01*
X95075428Y-51724109D01*
X95083843Y-51802018D01*
X95091323Y-51882924D01*
X95097868Y-51966825D01*
X95103478Y-52053722D01*
X95108153Y-52143615D01*
X95111893Y-52236503D01*
X95114698Y-52332388D01*
X95115750Y-52381453D01*
X95116568Y-52431268D01*
X95117152Y-52481831D01*
X95117503Y-52533144D01*
X95117620Y-52585205D01*
X95117620Y-53712386D01*
X90340230Y-53712386D01*
X90331948Y-53618443D01*
X90324201Y-53525598D01*
X90316989Y-53433849D01*
X90310310Y-53343198D01*
X90304166Y-53253644D01*
X90298556Y-53165187D01*
X90293480Y-53077827D01*
X90288939Y-52991564D01*
X90284932Y-52906399D01*
X90281803Y-52830669D01*
X91053419Y-52830669D01*
X92382100Y-52830669D01*
X93163677Y-52830669D01*
X94395882Y-52830669D01*
X94395882Y-52599860D01*
X94395796Y-52559808D01*
X94395346Y-52500660D01*
X94394508Y-52442629D01*
X94393285Y-52385713D01*
X94391675Y-52329914D01*
X94389678Y-52275232D01*
X94387296Y-52221665D01*
X94384526Y-52169215D01*
X94381371Y-52117881D01*
X94377829Y-52067663D01*
X94373900Y-52018562D01*
X94368949Y-51969647D01*
X94360126Y-51900030D01*
X94349629Y-51834922D01*
X94337457Y-51774321D01*
X94323611Y-51718229D01*
X94308091Y-51666645D01*
X94290896Y-51619568D01*
X94265365Y-51563812D01*
X94236857Y-51516070D01*
X94205373Y-51476343D01*
X94169290Y-51442569D01*
X94126986Y-51413298D01*
X94078462Y-51388530D01*
X94023717Y-51368265D01*
X93962752Y-51352504D01*
X93912946Y-51343638D01*
X93859640Y-51337306D01*
X93802836Y-51333506D01*
X93742533Y-51332240D01*
X93721678Y-51332346D01*
X93661646Y-51333938D01*
X93605414Y-51337440D01*
X93552982Y-51342854D01*
X93488983Y-51353043D01*
X93431738Y-51366629D01*
X93381249Y-51383612D01*
X93327636Y-51409616D01*
X93284577Y-51440928D01*
X93249748Y-51479603D01*
X93220821Y-51527701D01*
X93201931Y-51572962D01*
X93186818Y-51624253D01*
X93175484Y-51681574D01*
X93167927Y-51744924D01*
X93164740Y-51796394D01*
X93163677Y-51851256D01*
X93163677Y-52830669D01*
X92382100Y-52830669D01*
X92382100Y-52025889D01*
X92382043Y-52004145D01*
X92381184Y-51940843D01*
X92379295Y-51880440D01*
X92376376Y-51822934D01*
X92372426Y-51768326D01*
X92367445Y-51716617D01*
X92359202Y-51652179D01*
X92349127Y-51592892D01*
X92337220Y-51538758D01*
X92323482Y-51489776D01*
X92315968Y-51466988D01*
X92294221Y-51413649D01*
X92268241Y-51365499D01*
X92238027Y-51322535D01*
X92203579Y-51284760D01*
X92164897Y-51252173D01*
X92121981Y-51224773D01*
X92093878Y-51210369D01*
X92042221Y-51189510D01*
X91984541Y-51172587D01*
X91934061Y-51161883D01*
X91879727Y-51153697D01*
X91821538Y-51148029D01*
X91759494Y-51144881D01*
X91710432Y-51144173D01*
X91694292Y-51144268D01*
X91632067Y-51146558D01*
X91573582Y-51151901D01*
X91518837Y-51160296D01*
X91467833Y-51171745D01*
X91409336Y-51190350D01*
X91356683Y-51213725D01*
X91309874Y-51241870D01*
X91301176Y-51248103D01*
X91260086Y-51283100D01*
X91222990Y-51324477D01*
X91189890Y-51372234D01*
X91166286Y-51415034D01*
X91145239Y-51461917D01*
X91126749Y-51512884D01*
X91110816Y-51567934D01*
X91107285Y-51582325D01*
X91094281Y-51643777D01*
X91085705Y-51693948D01*
X91078138Y-51747618D01*
X91071580Y-51804787D01*
X91066031Y-51865456D01*
X91061490Y-51929623D01*
X91057959Y-51997290D01*
X91055437Y-52068455D01*
X91054316Y-52117843D01*
X91053643Y-52168786D01*
X91053419Y-52221284D01*
X91053419Y-52256579D01*
X91053419Y-52310221D01*
X91053419Y-52364700D01*
X91053419Y-52420016D01*
X91053419Y-52476169D01*
X91053419Y-52533159D01*
X91053419Y-52590987D01*
X91053419Y-52649652D01*
X91053419Y-52709154D01*
X91053419Y-52769493D01*
X91053419Y-52830669D01*
X90281803Y-52830669D01*
X90281459Y-52822331D01*
X90278520Y-52739360D01*
X90276116Y-52657486D01*
X90274246Y-52576709D01*
X90272910Y-52497030D01*
X90272109Y-52418448D01*
X90271842Y-52340963D01*
X90271960Y-52289663D01*
X90272314Y-52239110D01*
X90272904Y-52189304D01*
X90273731Y-52140245D01*
X90276092Y-52044365D01*
X90279398Y-51951471D01*
X90283648Y-51861564D01*
X90288843Y-51774643D01*
X90294983Y-51690709D01*
X90302067Y-51609760D01*
X90310095Y-51531798D01*
X90319068Y-51456822D01*
X90328986Y-51384833D01*
X90339848Y-51315829D01*
X90351655Y-51249812D01*
X90364406Y-51186781D01*
X90378102Y-51126737D01*
X90392742Y-51069678D01*
X90400540Y-51042146D01*
X90417132Y-50988585D01*
X90435049Y-50937026D01*
X90454293Y-50887472D01*
X90474863Y-50839921D01*
X90496759Y-50794373D01*
X90532089Y-50729809D01*
X90570404Y-50669752D01*
X90611702Y-50614204D01*
X90655984Y-50563163D01*
X90703250Y-50516631D01*
X90753500Y-50474606D01*
X90806734Y-50437090D01*
X90825295Y-50425444D01*
X90883899Y-50392725D01*
X90946882Y-50363334D01*
X91014245Y-50337270D01*
X91061586Y-50321742D01*
X91110873Y-50307693D01*
X91162107Y-50295123D01*
X91215287Y-50284032D01*
X91270413Y-50274420D01*
X91327486Y-50266286D01*
X91386505Y-50259632D01*
X91447470Y-50254456D01*
X91510382Y-50250759D01*
X91575240Y-50248541D01*
X91642044Y-50247801D01*
X91712308Y-50248445D01*
G37*
G36*
X95117620Y-49243963D02*
G01*
X95117620Y-46289846D01*
X94336043Y-46289846D01*
X94336043Y-48347592D01*
X93241835Y-48347592D01*
X93241835Y-46569504D01*
X92460258Y-46569504D01*
X92460258Y-48347592D01*
X91131577Y-48347592D01*
X91131577Y-46149406D01*
X90350000Y-46149406D01*
X90350000Y-49243963D01*
X95117620Y-49243963D01*
G37*
G36*
X95117620Y-45411793D02*
G01*
X95117620Y-44320027D01*
X91364829Y-42611549D01*
X91364829Y-42590788D01*
X92345464Y-42688485D01*
X95117620Y-42688485D01*
X95117620Y-41827529D01*
X90350000Y-41827529D01*
X90350000Y-42919295D01*
X94028297Y-44627773D01*
X94028297Y-44648534D01*
X93048883Y-44550837D01*
X90350000Y-44550837D01*
X90350000Y-45411793D01*
X95117620Y-45411793D01*
G37*
G36*
X94336043Y-39871144D02*
G01*
X94336043Y-41144870D01*
X95117620Y-41144870D01*
X95117620Y-37701046D01*
X94336043Y-37701046D01*
X94336043Y-38975994D01*
X90350000Y-38975994D01*
X90350000Y-39871144D01*
X94336043Y-39871144D01*
G37*
G36*
X95117620Y-36732623D02*
G01*
X95117620Y-33498848D01*
X94336043Y-33498848D01*
X94336043Y-35836252D01*
X93163677Y-35836252D01*
X93163677Y-33778506D01*
X92382100Y-33778506D01*
X92382100Y-35836252D01*
X90350000Y-35836252D01*
X90350000Y-36732623D01*
X95117620Y-36732623D01*
G37*
G36*
X95117620Y-32557292D02*
G01*
X95117620Y-31660921D01*
X91131577Y-31660921D01*
X91131577Y-29252686D01*
X90350000Y-29252686D01*
X90350000Y-32557292D01*
X95117620Y-32557292D01*
G37*
G36*
X95117620Y-28263503D02*
G01*
X95117620Y-25309385D01*
X94336043Y-25309385D01*
X94336043Y-27367131D01*
X93241835Y-27367131D01*
X93241835Y-25589043D01*
X92460258Y-25589043D01*
X92460258Y-27367131D01*
X91131577Y-27367131D01*
X91131577Y-25168946D01*
X90350000Y-25168946D01*
X90350000Y-28263503D01*
X95117620Y-28263503D01*
G37*
G36*
X92831507Y-23129518D02*
G01*
X95117620Y-24487508D01*
X95117620Y-23506873D01*
X93511723Y-22653244D01*
X93511723Y-22632484D01*
X95117620Y-21792288D01*
X95117620Y-20798220D01*
X92799755Y-22156210D01*
X90350000Y-20728611D01*
X90350000Y-21722679D01*
X92005966Y-22632484D01*
X92005966Y-22653244D01*
X90350000Y-23563049D01*
X90350000Y-24557117D01*
X92831507Y-23129518D01*
G37*
D13*
X96366666Y-59659580D02*
X96414285Y-59707200D01*
X96414285Y-59707200D02*
X96557142Y-59754819D01*
X96557142Y-59754819D02*
X96652380Y-59754819D01*
X96652380Y-59754819D02*
X96795237Y-59707200D01*
X96795237Y-59707200D02*
X96890475Y-59611961D01*
X96890475Y-59611961D02*
X96938094Y-59516723D01*
X96938094Y-59516723D02*
X96985713Y-59326247D01*
X96985713Y-59326247D02*
X96985713Y-59183390D01*
X96985713Y-59183390D02*
X96938094Y-58992914D01*
X96938094Y-58992914D02*
X96890475Y-58897676D01*
X96890475Y-58897676D02*
X96795237Y-58802438D01*
X96795237Y-58802438D02*
X96652380Y-58754819D01*
X96652380Y-58754819D02*
X96557142Y-58754819D01*
X96557142Y-58754819D02*
X96414285Y-58802438D01*
X96414285Y-58802438D02*
X96366666Y-58850057D01*
X95985713Y-58850057D02*
X95938094Y-58802438D01*
X95938094Y-58802438D02*
X95842856Y-58754819D01*
X95842856Y-58754819D02*
X95604761Y-58754819D01*
X95604761Y-58754819D02*
X95509523Y-58802438D01*
X95509523Y-58802438D02*
X95461904Y-58850057D01*
X95461904Y-58850057D02*
X95414285Y-58945295D01*
X95414285Y-58945295D02*
X95414285Y-59040533D01*
X95414285Y-59040533D02*
X95461904Y-59183390D01*
X95461904Y-59183390D02*
X96033332Y-59754819D01*
X96033332Y-59754819D02*
X95414285Y-59754819D01*
X96366666Y-62754819D02*
X96699999Y-62278628D01*
X96938094Y-62754819D02*
X96938094Y-61754819D01*
X96938094Y-61754819D02*
X96557142Y-61754819D01*
X96557142Y-61754819D02*
X96461904Y-61802438D01*
X96461904Y-61802438D02*
X96414285Y-61850057D01*
X96414285Y-61850057D02*
X96366666Y-61945295D01*
X96366666Y-61945295D02*
X96366666Y-62088152D01*
X96366666Y-62088152D02*
X96414285Y-62183390D01*
X96414285Y-62183390D02*
X96461904Y-62231009D01*
X96461904Y-62231009D02*
X96557142Y-62278628D01*
X96557142Y-62278628D02*
X96938094Y-62278628D01*
X95985713Y-61850057D02*
X95938094Y-61802438D01*
X95938094Y-61802438D02*
X95842856Y-61754819D01*
X95842856Y-61754819D02*
X95604761Y-61754819D01*
X95604761Y-61754819D02*
X95509523Y-61802438D01*
X95509523Y-61802438D02*
X95461904Y-61850057D01*
X95461904Y-61850057D02*
X95414285Y-61945295D01*
X95414285Y-61945295D02*
X95414285Y-62040533D01*
X95414285Y-62040533D02*
X95461904Y-62183390D01*
X95461904Y-62183390D02*
X96033332Y-62754819D01*
X96033332Y-62754819D02*
X95414285Y-62754819D01*
X86351904Y-29294819D02*
X86351904Y-28294819D01*
X86351904Y-28294819D02*
X85970952Y-28294819D01*
X85970952Y-28294819D02*
X85875714Y-28342438D01*
X85875714Y-28342438D02*
X85828095Y-28390057D01*
X85828095Y-28390057D02*
X85780476Y-28485295D01*
X85780476Y-28485295D02*
X85780476Y-28628152D01*
X85780476Y-28628152D02*
X85828095Y-28723390D01*
X85828095Y-28723390D02*
X85875714Y-28771009D01*
X85875714Y-28771009D02*
X85970952Y-28818628D01*
X85970952Y-28818628D02*
X86351904Y-28818628D01*
X84780476Y-29294819D02*
X85113809Y-28818628D01*
X85351904Y-29294819D02*
X85351904Y-28294819D01*
X85351904Y-28294819D02*
X84970952Y-28294819D01*
X84970952Y-28294819D02*
X84875714Y-28342438D01*
X84875714Y-28342438D02*
X84828095Y-28390057D01*
X84828095Y-28390057D02*
X84780476Y-28485295D01*
X84780476Y-28485295D02*
X84780476Y-28628152D01*
X84780476Y-28628152D02*
X84828095Y-28723390D01*
X84828095Y-28723390D02*
X84875714Y-28771009D01*
X84875714Y-28771009D02*
X84970952Y-28818628D01*
X84970952Y-28818628D02*
X85351904Y-28818628D01*
X84161428Y-28294819D02*
X83970952Y-28294819D01*
X83970952Y-28294819D02*
X83875714Y-28342438D01*
X83875714Y-28342438D02*
X83780476Y-28437676D01*
X83780476Y-28437676D02*
X83732857Y-28628152D01*
X83732857Y-28628152D02*
X83732857Y-28961485D01*
X83732857Y-28961485D02*
X83780476Y-29151961D01*
X83780476Y-29151961D02*
X83875714Y-29247200D01*
X83875714Y-29247200D02*
X83970952Y-29294819D01*
X83970952Y-29294819D02*
X84161428Y-29294819D01*
X84161428Y-29294819D02*
X84256666Y-29247200D01*
X84256666Y-29247200D02*
X84351904Y-29151961D01*
X84351904Y-29151961D02*
X84399523Y-28961485D01*
X84399523Y-28961485D02*
X84399523Y-28628152D01*
X84399523Y-28628152D02*
X84351904Y-28437676D01*
X84351904Y-28437676D02*
X84256666Y-28342438D01*
X84256666Y-28342438D02*
X84161428Y-28294819D01*
X82780476Y-28342438D02*
X82875714Y-28294819D01*
X82875714Y-28294819D02*
X83018571Y-28294819D01*
X83018571Y-28294819D02*
X83161428Y-28342438D01*
X83161428Y-28342438D02*
X83256666Y-28437676D01*
X83256666Y-28437676D02*
X83304285Y-28532914D01*
X83304285Y-28532914D02*
X83351904Y-28723390D01*
X83351904Y-28723390D02*
X83351904Y-28866247D01*
X83351904Y-28866247D02*
X83304285Y-29056723D01*
X83304285Y-29056723D02*
X83256666Y-29151961D01*
X83256666Y-29151961D02*
X83161428Y-29247200D01*
X83161428Y-29247200D02*
X83018571Y-29294819D01*
X83018571Y-29294819D02*
X82923333Y-29294819D01*
X82923333Y-29294819D02*
X82780476Y-29247200D01*
X82780476Y-29247200D02*
X82732857Y-29199580D01*
X82732857Y-29199580D02*
X82732857Y-28866247D01*
X82732857Y-28866247D02*
X82923333Y-28866247D01*
X81780476Y-29294819D02*
X82351904Y-29294819D01*
X82066190Y-29294819D02*
X82066190Y-28294819D01*
X82066190Y-28294819D02*
X82161428Y-28437676D01*
X82161428Y-28437676D02*
X82256666Y-28532914D01*
X82256666Y-28532914D02*
X82351904Y-28580533D01*
X96366666Y-61254819D02*
X96699999Y-60778628D01*
X96938094Y-61254819D02*
X96938094Y-60254819D01*
X96938094Y-60254819D02*
X96557142Y-60254819D01*
X96557142Y-60254819D02*
X96461904Y-60302438D01*
X96461904Y-60302438D02*
X96414285Y-60350057D01*
X96414285Y-60350057D02*
X96366666Y-60445295D01*
X96366666Y-60445295D02*
X96366666Y-60588152D01*
X96366666Y-60588152D02*
X96414285Y-60683390D01*
X96414285Y-60683390D02*
X96461904Y-60731009D01*
X96461904Y-60731009D02*
X96557142Y-60778628D01*
X96557142Y-60778628D02*
X96938094Y-60778628D01*
X95414285Y-61254819D02*
X95985713Y-61254819D01*
X95699999Y-61254819D02*
X95699999Y-60254819D01*
X95699999Y-60254819D02*
X95795237Y-60397676D01*
X95795237Y-60397676D02*
X95890475Y-60492914D01*
X95890475Y-60492914D02*
X95985713Y-60540533D01*
X96466666Y-58259580D02*
X96514285Y-58307200D01*
X96514285Y-58307200D02*
X96657142Y-58354819D01*
X96657142Y-58354819D02*
X96752380Y-58354819D01*
X96752380Y-58354819D02*
X96895237Y-58307200D01*
X96895237Y-58307200D02*
X96990475Y-58211961D01*
X96990475Y-58211961D02*
X97038094Y-58116723D01*
X97038094Y-58116723D02*
X97085713Y-57926247D01*
X97085713Y-57926247D02*
X97085713Y-57783390D01*
X97085713Y-57783390D02*
X97038094Y-57592914D01*
X97038094Y-57592914D02*
X96990475Y-57497676D01*
X96990475Y-57497676D02*
X96895237Y-57402438D01*
X96895237Y-57402438D02*
X96752380Y-57354819D01*
X96752380Y-57354819D02*
X96657142Y-57354819D01*
X96657142Y-57354819D02*
X96514285Y-57402438D01*
X96514285Y-57402438D02*
X96466666Y-57450057D01*
X95514285Y-58354819D02*
X96085713Y-58354819D01*
X95799999Y-58354819D02*
X95799999Y-57354819D01*
X95799999Y-57354819D02*
X95895237Y-57497676D01*
X95895237Y-57497676D02*
X95990475Y-57592914D01*
X95990475Y-57592914D02*
X96085713Y-57640533D01*
D10*
X98865580Y-59810000D02*
X98584420Y-59810000D01*
X98865580Y-58790000D02*
X98584420Y-58790000D01*
X98912258Y-62822500D02*
X98437742Y-62822500D01*
X98912258Y-61777500D02*
X98437742Y-61777500D01*
X79660000Y-32390000D02*
X79660000Y-33025000D01*
X80295000Y-32390000D02*
X79660000Y-32390000D01*
X98912258Y-61322500D02*
X98437742Y-61322500D01*
X98912258Y-60277500D02*
X98437742Y-60277500D01*
X98865580Y-58310000D02*
X98584420Y-58310000D01*
X98865580Y-57290000D02*
X98584420Y-57290000D01*
%LPC*%
D14*
X79800000Y-26500000D03*
X99700000Y-20700000D03*
X79900000Y-69300000D03*
D15*
X97750000Y-39837500D03*
D16*
X97750000Y-35877500D03*
X97750000Y-31917500D03*
D15*
X97760000Y-52700000D03*
D16*
X97760000Y-48740000D03*
X97760000Y-44780000D03*
D17*
X100690000Y-57710000D03*
X100690000Y-63490000D03*
D18*
X101210000Y-56280000D03*
D19*
X97010000Y-56280000D03*
D18*
X101210000Y-64920000D03*
D19*
X97010000Y-64920000D03*
D14*
X100400000Y-69300000D03*
D20*
X81000000Y-64680000D03*
D21*
X81000000Y-62140000D03*
X81000000Y-59600000D03*
D22*
X99500000Y-59300000D03*
X97950000Y-59300000D03*
D23*
X99500000Y-62300000D03*
X97850000Y-62300000D03*
D24*
X79025000Y-31120000D03*
D25*
X79025000Y-33660000D03*
D24*
X79025000Y-36200000D03*
X82200000Y-31120000D03*
X82200000Y-36200000D03*
D25*
X84105000Y-32644000D03*
X84105000Y-34676000D03*
D26*
X80295000Y-33025000D03*
X80295000Y-34295000D03*
X81565000Y-33025000D03*
X81565000Y-34295000D03*
X82835000Y-33025000D03*
X82835000Y-34295000D03*
D23*
X99500000Y-60800000D03*
X97850000Y-60800000D03*
D22*
X99500000Y-57800000D03*
X97950000Y-57800000D03*
%LPD*%
M02*
