G04 #@! TF.GenerationSoftware,KiCad,Pcbnew,7.0.9+1*
G04 #@! TF.CreationDate,2024-01-15T22:22:17-05:00*
G04 #@! TF.ProjectId,2812-32-mini,32383132-2d33-4322-9d6d-696e692e6b69,rev?*
G04 #@! TF.SameCoordinates,Original*
G04 #@! TF.FileFunction,Soldermask,Bot*
G04 #@! TF.FilePolarity,Negative*
%FSLAX46Y46*%
G04 Gerber Fmt 4.6, Leading zero omitted, Abs format (unit mm)*
G04 Created by KiCad (PCBNEW 7.0.9+1) date 2024-01-15 22:22:17*
%MOMM*%
%LPD*%
G01*
G04 APERTURE LIST*
G04 Aperture macros list*
%AMRoundRect*
0 Rectangle with rounded corners*
0 $1 Rounding radius*
0 $2 $3 $4 $5 $6 $7 $8 $9 X,Y pos of 4 corners*
0 Add a 4 corners polygon primitive as box body*
4,1,4,$2,$3,$4,$5,$6,$7,$8,$9,$2,$3,0*
0 Add four circle primitives for the rounded corners*
1,1,$1+$1,$2,$3*
1,1,$1+$1,$4,$5*
1,1,$1+$1,$6,$7*
1,1,$1+$1,$8,$9*
0 Add four rect primitives between the rounded corners*
20,1,$1+$1,$2,$3,$4,$5,0*
20,1,$1+$1,$4,$5,$6,$7,0*
20,1,$1+$1,$6,$7,$8,$9,0*
20,1,$1+$1,$8,$9,$2,$3,0*%
G04 Aperture macros list end*
%ADD10C,5.000000*%
%ADD11RoundRect,0.250001X1.099999X-1.099999X1.099999X1.099999X-1.099999X1.099999X-1.099999X-1.099999X0*%
%ADD12C,2.700000*%
%ADD13C,0.650000*%
%ADD14O,2.100000X1.000000*%
%ADD15O,1.800000X1.000000*%
%ADD16R,1.700000X1.700000*%
%ADD17O,1.700000X1.700000*%
%ADD18RoundRect,0.225000X0.225000X0.250000X-0.225000X0.250000X-0.225000X-0.250000X0.225000X-0.250000X0*%
%ADD19RoundRect,0.200000X0.200000X0.275000X-0.200000X0.275000X-0.200000X-0.275000X0.200000X-0.275000X0*%
%ADD20C,2.374900*%
%ADD21C,0.990600*%
%ADD22C,0.787400*%
G04 APERTURE END LIST*
D10*
X79800000Y-26500000D03*
X99700000Y-20700000D03*
X79900000Y-69300000D03*
D11*
X97750000Y-39837500D03*
D12*
X97750000Y-35877500D03*
X97750000Y-31917500D03*
D11*
X97760000Y-52700000D03*
D12*
X97760000Y-48740000D03*
X97760000Y-44780000D03*
D13*
X100690000Y-57710000D03*
X100690000Y-63490000D03*
D14*
X101210000Y-56280000D03*
D15*
X97010000Y-56280000D03*
D14*
X101210000Y-64920000D03*
D15*
X97010000Y-64920000D03*
D10*
X100400000Y-69300000D03*
D16*
X81000000Y-64680000D03*
D17*
X81000000Y-62140000D03*
X81000000Y-59600000D03*
D18*
X99500000Y-59300000D03*
X97950000Y-59300000D03*
D19*
X99500000Y-62300000D03*
X97850000Y-62300000D03*
D20*
X79025000Y-31120000D03*
D21*
X79025000Y-33660000D03*
D20*
X79025000Y-36200000D03*
X82200000Y-31120000D03*
X82200000Y-36200000D03*
D21*
X84105000Y-32644000D03*
X84105000Y-34676000D03*
D22*
X80295000Y-33025000D03*
X80295000Y-34295000D03*
X81565000Y-33025000D03*
X81565000Y-34295000D03*
X82835000Y-33025000D03*
X82835000Y-34295000D03*
D19*
X99500000Y-60800000D03*
X97850000Y-60800000D03*
D18*
X99500000Y-57800000D03*
X97950000Y-57800000D03*
M02*
