G04 #@! TF.GenerationSoftware,KiCad,Pcbnew,7.0.9+1*
G04 #@! TF.CreationDate,2024-01-15T22:22:16-05:00*
G04 #@! TF.ProjectId,2812-32-mini,32383132-2d33-4322-9d6d-696e692e6b69,rev?*
G04 #@! TF.SameCoordinates,Original*
G04 #@! TF.FileFunction,Copper,L2,Bot*
G04 #@! TF.FilePolarity,Positive*
%FSLAX46Y46*%
G04 Gerber Fmt 4.6, Leading zero omitted, Abs format (unit mm)*
G04 Created by KiCad (PCBNEW 7.0.9+1) date 2024-01-15 22:22:16*
%MOMM*%
%LPD*%
G01*
G04 APERTURE LIST*
G04 Aperture macros list*
%AMRoundRect*
0 Rectangle with rounded corners*
0 $1 Rounding radius*
0 $2 $3 $4 $5 $6 $7 $8 $9 X,Y pos of 4 corners*
0 Add a 4 corners polygon primitive as box body*
4,1,4,$2,$3,$4,$5,$6,$7,$8,$9,$2,$3,0*
0 Add four circle primitives for the rounded corners*
1,1,$1+$1,$2,$3*
1,1,$1+$1,$4,$5*
1,1,$1+$1,$6,$7*
1,1,$1+$1,$8,$9*
0 Add four rect primitives between the rounded corners*
20,1,$1+$1,$2,$3,$4,$5,0*
20,1,$1+$1,$4,$5,$6,$7,0*
20,1,$1+$1,$6,$7,$8,$9,0*
20,1,$1+$1,$8,$9,$2,$3,0*%
G04 Aperture macros list end*
G04 #@! TA.AperFunction,ComponentPad*
%ADD10C,5.000000*%
G04 #@! TD*
G04 #@! TA.AperFunction,ComponentPad*
%ADD11RoundRect,0.250001X1.099999X-1.099999X1.099999X1.099999X-1.099999X1.099999X-1.099999X-1.099999X0*%
G04 #@! TD*
G04 #@! TA.AperFunction,ComponentPad*
%ADD12C,2.700000*%
G04 #@! TD*
G04 #@! TA.AperFunction,ComponentPad*
%ADD13O,2.100000X1.000000*%
G04 #@! TD*
G04 #@! TA.AperFunction,ComponentPad*
%ADD14O,1.800000X1.000000*%
G04 #@! TD*
G04 #@! TA.AperFunction,ComponentPad*
%ADD15R,1.700000X1.700000*%
G04 #@! TD*
G04 #@! TA.AperFunction,ComponentPad*
%ADD16O,1.700000X1.700000*%
G04 #@! TD*
G04 #@! TA.AperFunction,SMDPad,CuDef*
%ADD17RoundRect,0.225000X0.225000X0.250000X-0.225000X0.250000X-0.225000X-0.250000X0.225000X-0.250000X0*%
G04 #@! TD*
G04 #@! TA.AperFunction,SMDPad,CuDef*
%ADD18RoundRect,0.200000X0.200000X0.275000X-0.200000X0.275000X-0.200000X-0.275000X0.200000X-0.275000X0*%
G04 #@! TD*
G04 #@! TA.AperFunction,ConnectorPad*
%ADD19C,0.787400*%
G04 #@! TD*
G04 #@! TA.AperFunction,ViaPad*
%ADD20C,0.800000*%
G04 #@! TD*
G04 #@! TA.AperFunction,ViaPad*
%ADD21C,1.000000*%
G04 #@! TD*
G04 #@! TA.AperFunction,ViaPad*
%ADD22C,0.450000*%
G04 #@! TD*
G04 #@! TA.AperFunction,Conductor*
%ADD23C,0.127000*%
G04 #@! TD*
G04 #@! TA.AperFunction,Conductor*
%ADD24C,0.250000*%
G04 #@! TD*
G04 APERTURE END LIST*
D10*
X79800000Y-26500000D03*
X99700000Y-20700000D03*
X79900000Y-69300000D03*
D11*
X97750000Y-39837500D03*
D12*
X97750000Y-35877500D03*
X97750000Y-31917500D03*
D11*
X97760000Y-52700000D03*
D12*
X97760000Y-48740000D03*
X97760000Y-44780000D03*
D13*
X101210000Y-56280000D03*
D14*
X97010000Y-56280000D03*
D13*
X101210000Y-64920000D03*
D14*
X97010000Y-64920000D03*
D10*
X100400000Y-69300000D03*
D15*
X81000000Y-64680000D03*
D16*
X81000000Y-62140000D03*
X81000000Y-59600000D03*
D17*
X99500000Y-59300000D03*
X97950000Y-59300000D03*
D18*
X99500000Y-62300000D03*
X97850000Y-62300000D03*
D19*
X80295000Y-33025000D03*
X80295000Y-34295000D03*
X81565000Y-33025000D03*
X81565000Y-34295000D03*
X82835000Y-33025000D03*
X82835000Y-34295000D03*
D18*
X99500000Y-60800000D03*
X97850000Y-60800000D03*
D17*
X99500000Y-57800000D03*
X97950000Y-57800000D03*
D20*
X97350000Y-18630000D03*
D21*
X89000000Y-22600000D03*
D22*
X102600000Y-64000000D03*
X93450000Y-58300000D03*
X98255000Y-27400000D03*
D21*
X87400000Y-50500000D03*
D22*
X101810000Y-57400000D03*
D20*
X95950000Y-28540000D03*
D21*
X89100000Y-24500000D03*
D20*
X84070000Y-28480000D03*
D21*
X84470000Y-41520000D03*
D22*
X83400000Y-59400000D03*
X85450000Y-63450000D03*
X97950000Y-57800000D03*
X93640000Y-62420000D03*
D21*
X87400000Y-54000000D03*
X91000000Y-24500000D03*
X91000000Y-22600000D03*
D22*
X77475000Y-20625000D03*
X99500000Y-60800000D03*
X102636500Y-56700000D03*
X99500000Y-59300000D03*
X99500000Y-62300000D03*
D20*
X92050000Y-56825000D03*
X92304017Y-60286860D03*
D22*
X90000000Y-59300000D03*
X87650000Y-59300000D03*
X98600000Y-55700000D03*
X99300000Y-55700000D03*
X98255000Y-26400000D03*
X89200000Y-19900000D03*
X78000000Y-34600000D03*
X82700000Y-21200000D03*
X88400000Y-29900000D03*
X95900000Y-22800000D03*
X95900000Y-23600000D03*
X85200000Y-34500000D03*
X98255000Y-25400000D03*
X91600000Y-27800000D03*
X90800000Y-28500000D03*
X98255000Y-24500000D03*
X101810000Y-63000000D03*
X102046500Y-58275498D03*
X92449635Y-61200000D03*
X89100000Y-63800000D03*
D23*
X101553000Y-58794000D02*
X101283500Y-59063500D01*
X101810000Y-57400000D02*
X101553000Y-57657000D01*
X102110000Y-64000000D02*
X102600000Y-64000000D01*
X101283500Y-59063500D02*
X101283500Y-63173500D01*
X101283500Y-63173500D02*
X102110000Y-64000000D01*
X81565000Y-34295000D02*
X80670000Y-35190000D01*
X80670000Y-35190000D02*
X80670000Y-35300000D01*
X101553000Y-57657000D02*
X101553000Y-58794000D01*
X99500000Y-57800000D02*
X99510000Y-57800000D01*
X100343748Y-55516500D02*
X102076252Y-55516500D01*
X99520000Y-56340248D02*
X100343748Y-55516500D01*
X99520000Y-57810000D02*
X99520000Y-56340248D01*
X102636500Y-56076748D02*
X102636500Y-56700000D01*
X102076252Y-55516500D02*
X102636500Y-56076748D01*
X99510000Y-57800000D02*
X99520000Y-57810000D01*
D24*
X92304017Y-60286860D02*
X92304017Y-57079017D01*
X92304017Y-57079017D02*
X92050000Y-56825000D01*
D23*
X87650000Y-59300000D02*
X90000000Y-59300000D01*
D24*
X97010000Y-64920000D02*
X96921000Y-64831000D01*
X96921000Y-56369000D02*
X97010000Y-56280000D01*
D23*
X97738500Y-57061500D02*
X98600000Y-56200000D01*
X98600000Y-56200000D02*
X98600000Y-55700000D01*
X97850000Y-60800000D02*
X97236500Y-60186500D01*
X97236500Y-60186500D02*
X97236500Y-57341422D01*
X97236500Y-57341422D02*
X97516422Y-57061500D01*
X97516422Y-57061500D02*
X97738500Y-57061500D01*
X97850000Y-62300000D02*
X98786500Y-61363500D01*
X98786500Y-61363500D02*
X98786500Y-56372710D01*
X99300000Y-55859210D02*
X99300000Y-55700000D01*
X98786500Y-56372710D02*
X99300000Y-55859210D01*
D24*
X79990000Y-34600000D02*
X78000000Y-34600000D01*
X98255000Y-26400000D02*
X98810000Y-25845000D01*
X98810000Y-25845000D02*
X98810000Y-24270111D01*
X96830000Y-19900000D02*
X89200000Y-19900000D01*
X96830000Y-22290111D02*
X96830000Y-19900000D01*
X98810000Y-24270111D02*
X96830000Y-22290111D01*
X80295000Y-34295000D02*
X79990000Y-34600000D01*
X77458550Y-31768845D02*
X78376155Y-32686450D01*
X78376155Y-32686450D02*
X79956450Y-32686450D01*
X82700000Y-27700000D02*
X80846450Y-29553550D01*
X79956450Y-32686450D02*
X80295000Y-33025000D01*
X82700000Y-21200000D02*
X82700000Y-27700000D01*
X78376155Y-29553550D02*
X77458550Y-30471155D01*
X77458550Y-30471155D02*
X77458550Y-31768845D01*
X80846450Y-29553550D02*
X78376155Y-29553550D01*
X100300000Y-46220000D02*
X100300000Y-39367400D01*
X97750000Y-48770000D02*
X100300000Y-46220000D01*
X100300000Y-39367400D02*
X99095100Y-38162500D01*
X99095100Y-38162500D02*
X96662500Y-38162500D01*
X96662500Y-38162500D02*
X88400000Y-29900000D01*
X80633550Y-32093550D02*
X80633550Y-30471155D01*
X94875000Y-21775000D02*
X95900000Y-22800000D01*
X83766450Y-27338255D02*
X83766450Y-24548661D01*
X83766450Y-24548661D02*
X86540111Y-21775000D01*
X80633550Y-30471155D02*
X83766450Y-27338255D01*
X81565000Y-33025000D02*
X80633550Y-32093550D01*
X86540111Y-21775000D02*
X94875000Y-21775000D01*
X93915111Y-23600000D02*
X95900000Y-23600000D01*
X83328300Y-33518300D02*
X84467147Y-33518300D01*
X84467147Y-33518300D02*
X86900000Y-31085447D01*
X86900000Y-31085447D02*
X86900000Y-30615111D01*
X86900000Y-30615111D02*
X93915111Y-23600000D01*
X82835000Y-33025000D02*
X83328300Y-33518300D01*
D23*
X85200000Y-34800000D02*
X85200000Y-34500000D01*
X83768327Y-35488800D02*
X84511200Y-35488800D01*
X84511200Y-35488800D02*
X85200000Y-34800000D01*
X82835000Y-34295000D02*
X82835000Y-34555473D01*
X82835000Y-34555473D02*
X83768327Y-35488800D01*
D24*
X98255000Y-25400000D02*
X94000000Y-25400000D01*
X94000000Y-25400000D02*
X91600000Y-27800000D01*
X98255000Y-24500000D02*
X97955000Y-24200000D01*
X97955000Y-24200000D02*
X94200000Y-24200000D01*
X94200000Y-24200000D02*
X90800000Y-27600000D01*
X90800000Y-27600000D02*
X90800000Y-28500000D01*
D23*
X102046500Y-58275498D02*
X102636500Y-58865498D01*
X102636500Y-58865498D02*
X102636500Y-62810000D01*
X102446500Y-63000000D02*
X101810000Y-63000000D01*
X102636500Y-62810000D02*
X102446500Y-63000000D01*
D24*
X89100000Y-63800000D02*
X89550000Y-63800000D01*
X89550000Y-63800000D02*
X89550000Y-63558705D01*
X89550000Y-63558705D02*
X90090930Y-63558705D01*
X90090930Y-63558705D02*
X92449635Y-61200000D01*
G04 #@! TA.AperFunction,Conductor*
G36*
X102538983Y-19130308D02*
G01*
X102549779Y-19142016D01*
X102585480Y-19186102D01*
X102587862Y-19189243D01*
X102680019Y-19319127D01*
X102733758Y-19401875D01*
X102768106Y-19454767D01*
X102770364Y-19458531D01*
X102847488Y-19598078D01*
X102920604Y-19741575D01*
X102922643Y-19745997D01*
X102983877Y-19893829D01*
X103041221Y-20043217D01*
X103042916Y-20048273D01*
X103087579Y-20203297D01*
X103128541Y-20356171D01*
X103129778Y-20361835D01*
X103157394Y-20524369D01*
X103181530Y-20676758D01*
X103182196Y-20682985D01*
X103192509Y-20866617D01*
X103199415Y-20998377D01*
X103199500Y-21001623D01*
X103199500Y-55542769D01*
X103179815Y-55609808D01*
X103127011Y-55655563D01*
X103057853Y-55665507D01*
X102994297Y-55636482D01*
X102987819Y-55630450D01*
X102750452Y-55393083D01*
X102504069Y-55146700D01*
X102498729Y-55140610D01*
X102478502Y-55114250D01*
X102448920Y-55091551D01*
X102360686Y-55023847D01*
X102263668Y-54983661D01*
X102223486Y-54967017D01*
X102113220Y-54952500D01*
X102094736Y-54950066D01*
X102076253Y-54947633D01*
X102076252Y-54947633D01*
X102043315Y-54951969D01*
X102035218Y-54952500D01*
X100384789Y-54952500D01*
X100376690Y-54951969D01*
X100343748Y-54947632D01*
X100343747Y-54947632D01*
X100310806Y-54951969D01*
X100213621Y-54964764D01*
X100202216Y-54966266D01*
X100196513Y-54967017D01*
X100156328Y-54983661D01*
X100059317Y-55023844D01*
X100059314Y-55023846D01*
X99971080Y-55091551D01*
X99941497Y-55114249D01*
X99941496Y-55114251D01*
X99940194Y-55115948D01*
X99938733Y-55117014D01*
X99935756Y-55119992D01*
X99935291Y-55119527D01*
X99883763Y-55157145D01*
X99814016Y-55161293D01*
X99761642Y-55132285D01*
X99760647Y-55133533D01*
X99755204Y-55129192D01*
X99616774Y-55042210D01*
X99462455Y-54988212D01*
X99300004Y-54969909D01*
X99299996Y-54969909D01*
X99137544Y-54988212D01*
X98990954Y-55039506D01*
X98921175Y-55043067D01*
X98909046Y-55039506D01*
X98762455Y-54988212D01*
X98600004Y-54969909D01*
X98599996Y-54969909D01*
X98437544Y-54988212D01*
X98283225Y-55042210D01*
X98144795Y-55129192D01*
X98029192Y-55244795D01*
X97980610Y-55322114D01*
X97928275Y-55368405D01*
X97859222Y-55379053D01*
X97826716Y-55370093D01*
X97711058Y-55320460D01*
X97511741Y-55279500D01*
X96559258Y-55279500D01*
X96559257Y-55279500D01*
X96407560Y-55294925D01*
X96213420Y-55355837D01*
X96213405Y-55355844D01*
X96035500Y-55454589D01*
X96035495Y-55454592D01*
X95881106Y-55587132D01*
X95881104Y-55587134D01*
X95756554Y-55748037D01*
X95756553Y-55748040D01*
X95666940Y-55930728D01*
X95615937Y-56127714D01*
X95605631Y-56330936D01*
X95636442Y-56532063D01*
X95636445Y-56532075D01*
X95707111Y-56722881D01*
X95707115Y-56722888D01*
X95814745Y-56895567D01*
X95814749Y-56895572D01*
X95926869Y-57013522D01*
X95954941Y-57043053D01*
X96083344Y-57132424D01*
X96121949Y-57159294D01*
X96121950Y-57159294D01*
X96121951Y-57159295D01*
X96308942Y-57239540D01*
X96508259Y-57280500D01*
X96548500Y-57280500D01*
X96615539Y-57300185D01*
X96661294Y-57352989D01*
X96672500Y-57404500D01*
X96672500Y-60145463D01*
X96671969Y-60153564D01*
X96667633Y-60186498D01*
X96667633Y-60186500D01*
X96679350Y-60275499D01*
X96687017Y-60333732D01*
X96687017Y-60333734D01*
X96743847Y-60470934D01*
X96834249Y-60588749D01*
X96834250Y-60588750D01*
X96860610Y-60608977D01*
X96866700Y-60614317D01*
X96890876Y-60638493D01*
X96913181Y-60660798D01*
X96946666Y-60722121D01*
X96949500Y-60748479D01*
X96949500Y-61131613D01*
X96955913Y-61202192D01*
X97006522Y-61364606D01*
X97079817Y-61485850D01*
X97097653Y-61553405D01*
X97079817Y-61614150D01*
X97006522Y-61735393D01*
X96955913Y-61897807D01*
X96949500Y-61968386D01*
X96949500Y-62631613D01*
X96955913Y-62702192D01*
X96955913Y-62702194D01*
X96955914Y-62702196D01*
X97006522Y-62864606D01*
X97092130Y-63006219D01*
X97094530Y-63010188D01*
X97214811Y-63130469D01*
X97214813Y-63130470D01*
X97214815Y-63130472D01*
X97360394Y-63218478D01*
X97522804Y-63269086D01*
X97593384Y-63275500D01*
X97593387Y-63275500D01*
X98106613Y-63275500D01*
X98106616Y-63275500D01*
X98177196Y-63269086D01*
X98339606Y-63218478D01*
X98485185Y-63130472D01*
X98536108Y-63079549D01*
X98587319Y-63028339D01*
X98648642Y-62994854D01*
X98718334Y-62999838D01*
X98762681Y-63028339D01*
X98864811Y-63130469D01*
X98864813Y-63130470D01*
X98864815Y-63130472D01*
X99010394Y-63218478D01*
X99172804Y-63269086D01*
X99243384Y-63275500D01*
X99243387Y-63275500D01*
X99756613Y-63275500D01*
X99756616Y-63275500D01*
X99827196Y-63269086D01*
X99966801Y-63225583D01*
X100036659Y-63224432D01*
X100096051Y-63261233D01*
X100126119Y-63324302D01*
X100126628Y-63360154D01*
X100109534Y-63489998D01*
X100109534Y-63490000D01*
X100129312Y-63640234D01*
X100129313Y-63640236D01*
X100187300Y-63780230D01*
X100187302Y-63780233D01*
X100238505Y-63846962D01*
X100263699Y-63912131D01*
X100249661Y-63980576D01*
X100200847Y-64030565D01*
X100200307Y-64030867D01*
X100085496Y-64094592D01*
X100085495Y-64094592D01*
X99931106Y-64227132D01*
X99931104Y-64227134D01*
X99806554Y-64388037D01*
X99806553Y-64388040D01*
X99716940Y-64570728D01*
X99665937Y-64767714D01*
X99655631Y-64970936D01*
X99686442Y-65172063D01*
X99686445Y-65172075D01*
X99757111Y-65362881D01*
X99757115Y-65362888D01*
X99864745Y-65535567D01*
X99864747Y-65535569D01*
X99864748Y-65535571D01*
X100004941Y-65683053D01*
X100132859Y-65772086D01*
X100171949Y-65799294D01*
X100171950Y-65799294D01*
X100171951Y-65799295D01*
X100358942Y-65879540D01*
X100558259Y-65920500D01*
X101810743Y-65920500D01*
X101962439Y-65905074D01*
X102156579Y-65844162D01*
X102156580Y-65844161D01*
X102156588Y-65844159D01*
X102334502Y-65745409D01*
X102488895Y-65612866D01*
X102613448Y-65451958D01*
X102703060Y-65269271D01*
X102754063Y-65072285D01*
X102764369Y-64869064D01*
X102733556Y-64667929D01*
X102662886Y-64477113D01*
X102555252Y-64304429D01*
X102469155Y-64213856D01*
X102415061Y-64156949D01*
X102415060Y-64156948D01*
X102415059Y-64156947D01*
X102305358Y-64080593D01*
X102248050Y-64040705D01*
X102061056Y-63960459D01*
X101997005Y-63947297D01*
X101935300Y-63914520D01*
X101901111Y-63853587D01*
X101905293Y-63783842D01*
X101946517Y-63727430D01*
X101981007Y-63708795D01*
X102126775Y-63657789D01*
X102245791Y-63583005D01*
X102311763Y-63564000D01*
X102405466Y-63564000D01*
X102413563Y-63564530D01*
X102446500Y-63568867D01*
X102446501Y-63568867D01*
X102461844Y-63566846D01*
X102593734Y-63549483D01*
X102730933Y-63492653D01*
X102819168Y-63424949D01*
X102819168Y-63424948D01*
X102842106Y-63407348D01*
X102842106Y-63407347D01*
X102848750Y-63402250D01*
X102868976Y-63375888D01*
X102874312Y-63369803D01*
X102987821Y-63256294D01*
X103049142Y-63222812D01*
X103118834Y-63227796D01*
X103174767Y-63269668D01*
X103199184Y-63335133D01*
X103199500Y-63343978D01*
X103199500Y-67685101D01*
X103179815Y-67752140D01*
X103127011Y-67797895D01*
X103057853Y-67807839D01*
X102994297Y-67778814D01*
X102968113Y-67747101D01*
X102911129Y-67648402D01*
X102702415Y-67368050D01*
X102702410Y-67368044D01*
X102586433Y-67245117D01*
X102462558Y-67113817D01*
X102314488Y-66989572D01*
X102194813Y-66889152D01*
X102194805Y-66889146D01*
X101902796Y-66697088D01*
X101590458Y-66540226D01*
X101590452Y-66540223D01*
X101262012Y-66420681D01*
X101262009Y-66420680D01*
X100921915Y-66340077D01*
X100878519Y-66335004D01*
X100574759Y-66299500D01*
X100225241Y-66299500D01*
X99921480Y-66335004D01*
X99878085Y-66340077D01*
X99878083Y-66340077D01*
X99537990Y-66420680D01*
X99537987Y-66420681D01*
X99209547Y-66540223D01*
X99209541Y-66540226D01*
X98897203Y-66697088D01*
X98605194Y-66889146D01*
X98605186Y-66889152D01*
X98337442Y-67113817D01*
X98337440Y-67113819D01*
X98097589Y-67368044D01*
X98097584Y-67368050D01*
X97888870Y-67648402D01*
X97714113Y-67951091D01*
X97714107Y-67951104D01*
X97575674Y-68272027D01*
X97475430Y-68606865D01*
X97475428Y-68606872D01*
X97414739Y-68951061D01*
X97414738Y-68951072D01*
X97394415Y-69299996D01*
X97394415Y-69300003D01*
X97414738Y-69648927D01*
X97414739Y-69648938D01*
X97475428Y-69993127D01*
X97475430Y-69993134D01*
X97575674Y-70327972D01*
X97714107Y-70648895D01*
X97714113Y-70648908D01*
X97888870Y-70951597D01*
X98097584Y-71231949D01*
X98097589Y-71231955D01*
X98221463Y-71363253D01*
X98337442Y-71486183D01*
X98513903Y-71634251D01*
X98605186Y-71710847D01*
X98605194Y-71710853D01*
X98850053Y-71871900D01*
X98895247Y-71925185D01*
X98904458Y-71994444D01*
X98874763Y-72057690D01*
X98815588Y-72094840D01*
X98781914Y-72099500D01*
X81518086Y-72099500D01*
X81451047Y-72079815D01*
X81405292Y-72027011D01*
X81395348Y-71957853D01*
X81424373Y-71894297D01*
X81449947Y-71871900D01*
X81694805Y-71710853D01*
X81694805Y-71710852D01*
X81694811Y-71710849D01*
X81962558Y-71486183D01*
X82202412Y-71231953D01*
X82411130Y-70951596D01*
X82585889Y-70648904D01*
X82724326Y-70327971D01*
X82824569Y-69993136D01*
X82885262Y-69648927D01*
X82905585Y-69300000D01*
X82885262Y-68951073D01*
X82885260Y-68951061D01*
X82824571Y-68606872D01*
X82824569Y-68606865D01*
X82724325Y-68272027D01*
X82700500Y-68216794D01*
X82585889Y-67951096D01*
X82411130Y-67648404D01*
X82411129Y-67648402D01*
X82202415Y-67368050D01*
X82202410Y-67368044D01*
X82086433Y-67245117D01*
X81962558Y-67113817D01*
X81814488Y-66989572D01*
X81694813Y-66889152D01*
X81694805Y-66889146D01*
X81402796Y-66697088D01*
X81090458Y-66540226D01*
X81090452Y-66540223D01*
X80762012Y-66420681D01*
X80762009Y-66420680D01*
X80421915Y-66340077D01*
X80378519Y-66335004D01*
X80074759Y-66299500D01*
X79725241Y-66299500D01*
X79421480Y-66335004D01*
X79378085Y-66340077D01*
X79378083Y-66340077D01*
X79037990Y-66420680D01*
X79037987Y-66420681D01*
X78709547Y-66540223D01*
X78709541Y-66540226D01*
X78397203Y-66697088D01*
X78105194Y-66889146D01*
X78105186Y-66889152D01*
X77837442Y-67113817D01*
X77837440Y-67113819D01*
X77597589Y-67368044D01*
X77597584Y-67368050D01*
X77388870Y-67648402D01*
X77231887Y-67920307D01*
X77181320Y-67968523D01*
X77112713Y-67981746D01*
X77047848Y-67955778D01*
X77007320Y-67898864D01*
X77000500Y-67858307D01*
X77000500Y-62140000D01*
X79644341Y-62140000D01*
X79664936Y-62375403D01*
X79664938Y-62375413D01*
X79726094Y-62603655D01*
X79726096Y-62603659D01*
X79726097Y-62603663D01*
X79772044Y-62702196D01*
X79825965Y-62817830D01*
X79825967Y-62817834D01*
X79923577Y-62957234D01*
X79961501Y-63011396D01*
X79961506Y-63011402D01*
X80083818Y-63133714D01*
X80117303Y-63195037D01*
X80112319Y-63264729D01*
X80070447Y-63320662D01*
X80039471Y-63337577D01*
X79907912Y-63386646D01*
X79907906Y-63386649D01*
X79792812Y-63472809D01*
X79792809Y-63472812D01*
X79706649Y-63587906D01*
X79706645Y-63587913D01*
X79656403Y-63722620D01*
X79656401Y-63722627D01*
X79650000Y-63782155D01*
X79650000Y-64430000D01*
X80566314Y-64430000D01*
X80540507Y-64470156D01*
X80500000Y-64608111D01*
X80500000Y-64751889D01*
X80540507Y-64889844D01*
X80566314Y-64930000D01*
X79650000Y-64930000D01*
X79650000Y-65577844D01*
X79656401Y-65637372D01*
X79656403Y-65637379D01*
X79706645Y-65772086D01*
X79706649Y-65772093D01*
X79792809Y-65887187D01*
X79792812Y-65887190D01*
X79907906Y-65973350D01*
X79907913Y-65973354D01*
X80042620Y-66023596D01*
X80042627Y-66023598D01*
X80102155Y-66029999D01*
X80102172Y-66030000D01*
X80750000Y-66030000D01*
X80750000Y-65115501D01*
X80857685Y-65164680D01*
X80964237Y-65180000D01*
X81035763Y-65180000D01*
X81142315Y-65164680D01*
X81250000Y-65115501D01*
X81250000Y-66030000D01*
X81897828Y-66030000D01*
X81897844Y-66029999D01*
X81957372Y-66023598D01*
X81957379Y-66023596D01*
X82092086Y-65973354D01*
X82092093Y-65973350D01*
X82207187Y-65887190D01*
X82207190Y-65887187D01*
X82293350Y-65772093D01*
X82293354Y-65772086D01*
X82343596Y-65637379D01*
X82343598Y-65637372D01*
X82349999Y-65577844D01*
X82350000Y-65577827D01*
X82350000Y-64970936D01*
X95605631Y-64970936D01*
X95636442Y-65172063D01*
X95636445Y-65172075D01*
X95707111Y-65362881D01*
X95707115Y-65362888D01*
X95814745Y-65535567D01*
X95814747Y-65535569D01*
X95814748Y-65535571D01*
X95954941Y-65683053D01*
X96082859Y-65772086D01*
X96121949Y-65799294D01*
X96121950Y-65799294D01*
X96121951Y-65799295D01*
X96308942Y-65879540D01*
X96508259Y-65920500D01*
X97460743Y-65920500D01*
X97612439Y-65905074D01*
X97806579Y-65844162D01*
X97806580Y-65844161D01*
X97806588Y-65844159D01*
X97984502Y-65745409D01*
X98138895Y-65612866D01*
X98263448Y-65451958D01*
X98353060Y-65269271D01*
X98404063Y-65072285D01*
X98414369Y-64869064D01*
X98383556Y-64667929D01*
X98312886Y-64477113D01*
X98205252Y-64304429D01*
X98119155Y-64213856D01*
X98065061Y-64156949D01*
X98065060Y-64156948D01*
X98065059Y-64156947D01*
X97955358Y-64080593D01*
X97898050Y-64040705D01*
X97711056Y-63960459D01*
X97511741Y-63919500D01*
X96559258Y-63919500D01*
X96559257Y-63919500D01*
X96407560Y-63934925D01*
X96213420Y-63995837D01*
X96213405Y-63995844D01*
X96035500Y-64094589D01*
X96035495Y-64094592D01*
X95881106Y-64227132D01*
X95881104Y-64227134D01*
X95756554Y-64388037D01*
X95756553Y-64388040D01*
X95666940Y-64570728D01*
X95615937Y-64767714D01*
X95605631Y-64970936D01*
X82350000Y-64970936D01*
X82350000Y-64930000D01*
X81433686Y-64930000D01*
X81459493Y-64889844D01*
X81500000Y-64751889D01*
X81500000Y-64608111D01*
X81459493Y-64470156D01*
X81433686Y-64430000D01*
X82350000Y-64430000D01*
X82350000Y-63800003D01*
X88369909Y-63800003D01*
X88388212Y-63962455D01*
X88442210Y-64116774D01*
X88484580Y-64184205D01*
X88529192Y-64255204D01*
X88644796Y-64370808D01*
X88783225Y-64457789D01*
X88937539Y-64511786D01*
X88937542Y-64511786D01*
X88937544Y-64511787D01*
X89099996Y-64530091D01*
X89100000Y-64530091D01*
X89100004Y-64530091D01*
X89262457Y-64511787D01*
X89262459Y-64511786D01*
X89262461Y-64511786D01*
X89416775Y-64457789D01*
X89432760Y-64447744D01*
X89499995Y-64428743D01*
X89506521Y-64428982D01*
X89510403Y-64429225D01*
X89510412Y-64429227D01*
X89567724Y-64425621D01*
X89571597Y-64425500D01*
X89589342Y-64425500D01*
X89589350Y-64425500D01*
X89606990Y-64423271D01*
X89610807Y-64422910D01*
X89668138Y-64419304D01*
X89675905Y-64416780D01*
X89698680Y-64411688D01*
X89706792Y-64410664D01*
X89760195Y-64389519D01*
X89763835Y-64388209D01*
X89818441Y-64370467D01*
X89825337Y-64366090D01*
X89846133Y-64355494D01*
X89853732Y-64352486D01*
X89900191Y-64318730D01*
X89903390Y-64316555D01*
X89951877Y-64285786D01*
X89957466Y-64279833D01*
X89974979Y-64264394D01*
X89981587Y-64259594D01*
X90006751Y-64229174D01*
X90064648Y-64190069D01*
X90098550Y-64184273D01*
X90099078Y-64184257D01*
X90100822Y-64184205D01*
X90130277Y-64184205D01*
X90130280Y-64184205D01*
X90137158Y-64183335D01*
X90142971Y-64182877D01*
X90189557Y-64181414D01*
X90208799Y-64175822D01*
X90227842Y-64171879D01*
X90247722Y-64169369D01*
X90291052Y-64152212D01*
X90296576Y-64150322D01*
X90300326Y-64149232D01*
X90341320Y-64137323D01*
X90358559Y-64127127D01*
X90376033Y-64118567D01*
X90394657Y-64111193D01*
X90394657Y-64111192D01*
X90394662Y-64111191D01*
X90432379Y-64083787D01*
X90437235Y-64080597D01*
X90477350Y-64056875D01*
X90491519Y-64042704D01*
X90506309Y-64030073D01*
X90522517Y-64018299D01*
X90552229Y-63982381D01*
X90556142Y-63978081D01*
X92607994Y-61926229D01*
X92654718Y-61896871D01*
X92766410Y-61857789D01*
X92904839Y-61770808D01*
X93020443Y-61655204D01*
X93107424Y-61516775D01*
X93161421Y-61362461D01*
X93179726Y-61200000D01*
X93172021Y-61131613D01*
X93161422Y-61037542D01*
X93155853Y-61021628D01*
X93107424Y-60883225D01*
X93090937Y-60856987D01*
X93071937Y-60789753D01*
X93088543Y-60729019D01*
X93131196Y-60655144D01*
X93189691Y-60475116D01*
X93209477Y-60286860D01*
X93189691Y-60098604D01*
X93131196Y-59918576D01*
X93036550Y-59754644D01*
X92961367Y-59671144D01*
X92931137Y-59608152D01*
X92929517Y-59588172D01*
X92929517Y-57161754D01*
X92931241Y-57146140D01*
X92930955Y-57146113D01*
X92931689Y-57138350D01*
X92929517Y-57069220D01*
X92929517Y-57051845D01*
X92934611Y-57019679D01*
X92934322Y-57019618D01*
X92935497Y-57014086D01*
X92935586Y-57013525D01*
X92935674Y-57013256D01*
X92955460Y-56825000D01*
X92935674Y-56636744D01*
X92877179Y-56456716D01*
X92782533Y-56292784D01*
X92655871Y-56152112D01*
X92655870Y-56152111D01*
X92502734Y-56040851D01*
X92502729Y-56040848D01*
X92329807Y-55963857D01*
X92329802Y-55963855D01*
X92173951Y-55930729D01*
X92144646Y-55924500D01*
X91955354Y-55924500D01*
X91931765Y-55929514D01*
X91770197Y-55963855D01*
X91770192Y-55963857D01*
X91597270Y-56040848D01*
X91597265Y-56040851D01*
X91444129Y-56152111D01*
X91317466Y-56292785D01*
X91222821Y-56456715D01*
X91222818Y-56456722D01*
X91164327Y-56636740D01*
X91164326Y-56636744D01*
X91144540Y-56825000D01*
X91164326Y-57013256D01*
X91164327Y-57013259D01*
X91222818Y-57193277D01*
X91222821Y-57193284D01*
X91317467Y-57357216D01*
X91386755Y-57434168D01*
X91444129Y-57497888D01*
X91597268Y-57609150D01*
X91597273Y-57609153D01*
X91604948Y-57612570D01*
X91658187Y-57657818D01*
X91678511Y-57724666D01*
X91678517Y-57725851D01*
X91678517Y-59588172D01*
X91658832Y-59655211D01*
X91646667Y-59671144D01*
X91571483Y-59754644D01*
X91476838Y-59918575D01*
X91476835Y-59918582D01*
X91418344Y-60098600D01*
X91418343Y-60098604D01*
X91398557Y-60286860D01*
X91418343Y-60475116D01*
X91418344Y-60475119D01*
X91476835Y-60655137D01*
X91476837Y-60655142D01*
X91476838Y-60655144D01*
X91571484Y-60819076D01*
X91605621Y-60856989D01*
X91670175Y-60928684D01*
X91700405Y-60991676D01*
X91691780Y-61061011D01*
X91665706Y-61099337D01*
X89868158Y-62896886D01*
X89806835Y-62930371D01*
X89780477Y-62933205D01*
X89620847Y-62933205D01*
X89597615Y-62931009D01*
X89589588Y-62929478D01*
X89589586Y-62929478D01*
X89580633Y-62930041D01*
X89532275Y-62933083D01*
X89528403Y-62933205D01*
X89510643Y-62933205D01*
X89493032Y-62935430D01*
X89489164Y-62935795D01*
X89457375Y-62937795D01*
X89431859Y-62939401D01*
X89424085Y-62941927D01*
X89401320Y-62947015D01*
X89393218Y-62948038D01*
X89393205Y-62948042D01*
X89339810Y-62969182D01*
X89336154Y-62970497D01*
X89284440Y-62987302D01*
X89281556Y-62988239D01*
X89274652Y-62992620D01*
X89253880Y-63003204D01*
X89246273Y-63006216D01*
X89246263Y-63006222D01*
X89199815Y-63039968D01*
X89196596Y-63042155D01*
X89181798Y-63051547D01*
X89114648Y-63070852D01*
X89101466Y-63070074D01*
X89100002Y-63069909D01*
X89099996Y-63069909D01*
X88937544Y-63088212D01*
X88783225Y-63142210D01*
X88644795Y-63229192D01*
X88529192Y-63344795D01*
X88442210Y-63483225D01*
X88388212Y-63637544D01*
X88369909Y-63799996D01*
X88369909Y-63800003D01*
X82350000Y-63800003D01*
X82350000Y-63782172D01*
X82349999Y-63782155D01*
X82343598Y-63722627D01*
X82343596Y-63722620D01*
X82293354Y-63587913D01*
X82293350Y-63587906D01*
X82207190Y-63472812D01*
X82207187Y-63472809D01*
X82092093Y-63386649D01*
X82092088Y-63386646D01*
X81960528Y-63337577D01*
X81904595Y-63295705D01*
X81880178Y-63230241D01*
X81895030Y-63161968D01*
X81916175Y-63133720D01*
X82038495Y-63011401D01*
X82174035Y-62817830D01*
X82273903Y-62603663D01*
X82335063Y-62375408D01*
X82355659Y-62140000D01*
X82335063Y-61904592D01*
X82273903Y-61676337D01*
X82174035Y-61462171D01*
X82105719Y-61364604D01*
X82038494Y-61268597D01*
X81871402Y-61101506D01*
X81871396Y-61101501D01*
X81685842Y-60971575D01*
X81642217Y-60916998D01*
X81635023Y-60847500D01*
X81666546Y-60785145D01*
X81685842Y-60768425D01*
X81714328Y-60748479D01*
X81871401Y-60638495D01*
X82038495Y-60471401D01*
X82174035Y-60277830D01*
X82273903Y-60063663D01*
X82335063Y-59835408D01*
X82355659Y-59600000D01*
X82335063Y-59364592D01*
X82317757Y-59300003D01*
X86919909Y-59300003D01*
X86938212Y-59462455D01*
X86992210Y-59616774D01*
X87016362Y-59655211D01*
X87079192Y-59755204D01*
X87194796Y-59870808D01*
X87333225Y-59957789D01*
X87487539Y-60011786D01*
X87487542Y-60011786D01*
X87487544Y-60011787D01*
X87649996Y-60030091D01*
X87650000Y-60030091D01*
X87650004Y-60030091D01*
X87812455Y-60011787D01*
X87812456Y-60011786D01*
X87812461Y-60011786D01*
X87966775Y-59957789D01*
X88085791Y-59883005D01*
X88151763Y-59864000D01*
X89498237Y-59864000D01*
X89564208Y-59883005D01*
X89683225Y-59957789D01*
X89837539Y-60011786D01*
X89837542Y-60011786D01*
X89837544Y-60011787D01*
X89999996Y-60030091D01*
X90000000Y-60030091D01*
X90000004Y-60030091D01*
X90162455Y-60011787D01*
X90162456Y-60011786D01*
X90162461Y-60011786D01*
X90316775Y-59957789D01*
X90455204Y-59870808D01*
X90570808Y-59755204D01*
X90657789Y-59616775D01*
X90711786Y-59462461D01*
X90711787Y-59462455D01*
X90730091Y-59300003D01*
X90730091Y-59299996D01*
X90711787Y-59137544D01*
X90711786Y-59137542D01*
X90711786Y-59137539D01*
X90657789Y-58983225D01*
X90570808Y-58844796D01*
X90455204Y-58729192D01*
X90435791Y-58716994D01*
X90316774Y-58642210D01*
X90162455Y-58588212D01*
X90000004Y-58569909D01*
X89999996Y-58569909D01*
X89837544Y-58588212D01*
X89683225Y-58642210D01*
X89564209Y-58716994D01*
X89498237Y-58736000D01*
X88151763Y-58736000D01*
X88085791Y-58716994D01*
X87966774Y-58642210D01*
X87812455Y-58588212D01*
X87650004Y-58569909D01*
X87649996Y-58569909D01*
X87487544Y-58588212D01*
X87333225Y-58642210D01*
X87194795Y-58729192D01*
X87079192Y-58844795D01*
X86992210Y-58983225D01*
X86938212Y-59137544D01*
X86919909Y-59299996D01*
X86919909Y-59300003D01*
X82317757Y-59300003D01*
X82277692Y-59150477D01*
X82273905Y-59136344D01*
X82273904Y-59136343D01*
X82273903Y-59136337D01*
X82174035Y-58922171D01*
X82160238Y-58902466D01*
X82038494Y-58728597D01*
X81871402Y-58561506D01*
X81871395Y-58561501D01*
X81851692Y-58547705D01*
X81773322Y-58492829D01*
X81677834Y-58425967D01*
X81677830Y-58425965D01*
X81663322Y-58419200D01*
X81463663Y-58326097D01*
X81463659Y-58326096D01*
X81463655Y-58326094D01*
X81235413Y-58264938D01*
X81235403Y-58264936D01*
X81000001Y-58244341D01*
X80999999Y-58244341D01*
X80764596Y-58264936D01*
X80764586Y-58264938D01*
X80536344Y-58326094D01*
X80536335Y-58326098D01*
X80322171Y-58425964D01*
X80322169Y-58425965D01*
X80128597Y-58561505D01*
X79961505Y-58728597D01*
X79825965Y-58922169D01*
X79825964Y-58922171D01*
X79726098Y-59136335D01*
X79726094Y-59136344D01*
X79664938Y-59364586D01*
X79664936Y-59364596D01*
X79644341Y-59599999D01*
X79644341Y-59600000D01*
X79664936Y-59835403D01*
X79664938Y-59835413D01*
X79726094Y-60063655D01*
X79726096Y-60063659D01*
X79726097Y-60063663D01*
X79763884Y-60144697D01*
X79825965Y-60277830D01*
X79825967Y-60277834D01*
X79865108Y-60333732D01*
X79961177Y-60470933D01*
X79961501Y-60471395D01*
X79961506Y-60471402D01*
X80128597Y-60638493D01*
X80128603Y-60638498D01*
X80314158Y-60768425D01*
X80357783Y-60823002D01*
X80364977Y-60892500D01*
X80333454Y-60954855D01*
X80314158Y-60971575D01*
X80128597Y-61101505D01*
X79961505Y-61268597D01*
X79825965Y-61462169D01*
X79825964Y-61462171D01*
X79726098Y-61676335D01*
X79726094Y-61676344D01*
X79664938Y-61904586D01*
X79664936Y-61904596D01*
X79644341Y-62139999D01*
X79644341Y-62140000D01*
X77000500Y-62140000D01*
X77000500Y-53850015D01*
X95909500Y-53850015D01*
X95920000Y-53952795D01*
X95920001Y-53952796D01*
X95975186Y-54119335D01*
X95975187Y-54119337D01*
X96067286Y-54268651D01*
X96067289Y-54268655D01*
X96191344Y-54392710D01*
X96191348Y-54392713D01*
X96340662Y-54484812D01*
X96340664Y-54484813D01*
X96340666Y-54484814D01*
X96507203Y-54539999D01*
X96609992Y-54550500D01*
X96609997Y-54550500D01*
X98910003Y-54550500D01*
X98910008Y-54550500D01*
X99012797Y-54539999D01*
X99179334Y-54484814D01*
X99328655Y-54392711D01*
X99452711Y-54268655D01*
X99544814Y-54119334D01*
X99599999Y-53952797D01*
X99610500Y-53850008D01*
X99610500Y-51549992D01*
X99599999Y-51447203D01*
X99544814Y-51280666D01*
X99452711Y-51131345D01*
X99328655Y-51007289D01*
X99328651Y-51007286D01*
X99179337Y-50915187D01*
X99179335Y-50915186D01*
X99096065Y-50887593D01*
X99012797Y-50860001D01*
X99012795Y-50860000D01*
X98910015Y-50849500D01*
X98910008Y-50849500D01*
X96609992Y-50849500D01*
X96609984Y-50849500D01*
X96507204Y-50860000D01*
X96507203Y-50860001D01*
X96340664Y-50915186D01*
X96340662Y-50915187D01*
X96191348Y-51007286D01*
X96191344Y-51007289D01*
X96067289Y-51131344D01*
X96067286Y-51131348D01*
X95975187Y-51280662D01*
X95975186Y-51280664D01*
X95920001Y-51447203D01*
X95920000Y-51447204D01*
X95909500Y-51549984D01*
X95909500Y-53850015D01*
X77000500Y-53850015D01*
X77000500Y-32494747D01*
X77020185Y-32427708D01*
X77072989Y-32381953D01*
X77142147Y-32372009D01*
X77205703Y-32401034D01*
X77212178Y-32407063D01*
X77557636Y-32752522D01*
X77875352Y-33070238D01*
X77885177Y-33082501D01*
X77885398Y-33082319D01*
X77890369Y-33088328D01*
X77916372Y-33112745D01*
X77940790Y-33135676D01*
X77961684Y-33156570D01*
X77967166Y-33160823D01*
X77971598Y-33164607D01*
X78005573Y-33196512D01*
X78023131Y-33206164D01*
X78039390Y-33216845D01*
X78055219Y-33229123D01*
X78097993Y-33247632D01*
X78103211Y-33250188D01*
X78144063Y-33272647D01*
X78163471Y-33277630D01*
X78181872Y-33283930D01*
X78200259Y-33291887D01*
X78209551Y-33293358D01*
X78272686Y-33323286D01*
X78309619Y-33382596D01*
X78308947Y-33451395D01*
X78285532Y-33529607D01*
X78285530Y-33529616D01*
X78275393Y-33703659D01*
X78275393Y-33703660D01*
X78282085Y-33741617D01*
X78274340Y-33811057D01*
X78230283Y-33865285D01*
X78163901Y-33887086D01*
X78146086Y-33886368D01*
X78000004Y-33869909D01*
X77999996Y-33869909D01*
X77837544Y-33888212D01*
X77683225Y-33942210D01*
X77544795Y-34029192D01*
X77429192Y-34144795D01*
X77342210Y-34283225D01*
X77288212Y-34437544D01*
X77269909Y-34599996D01*
X77269909Y-34600003D01*
X77288212Y-34762455D01*
X77342210Y-34916774D01*
X77429192Y-35055204D01*
X77544796Y-35170808D01*
X77627025Y-35222476D01*
X77683225Y-35257789D01*
X77728024Y-35273465D01*
X77784800Y-35314187D01*
X77810548Y-35379139D01*
X77797092Y-35447701D01*
X77796125Y-35449524D01*
X77703654Y-35620396D01*
X77703648Y-35620410D01*
X77626274Y-35845791D01*
X77618722Y-35891050D01*
X77587050Y-36080848D01*
X77587050Y-36319152D01*
X77600570Y-36400173D01*
X77626274Y-36554208D01*
X77703648Y-36779589D01*
X77703654Y-36779603D01*
X77817069Y-36989176D01*
X77817076Y-36989187D01*
X77963433Y-37177227D01*
X77963436Y-37177230D01*
X77963440Y-37177235D01*
X78138766Y-37338633D01*
X78338266Y-37468973D01*
X78556498Y-37564699D01*
X78787510Y-37623199D01*
X78965528Y-37637950D01*
X78965530Y-37637950D01*
X79084470Y-37637950D01*
X79084472Y-37637950D01*
X79262490Y-37623199D01*
X79493502Y-37564699D01*
X79711734Y-37468973D01*
X79911234Y-37338633D01*
X80086560Y-37177235D01*
X80232929Y-36989179D01*
X80346349Y-36779597D01*
X80423726Y-36554206D01*
X80462950Y-36319152D01*
X80462950Y-36080848D01*
X80423726Y-35845794D01*
X80346349Y-35620403D01*
X80232929Y-35410821D01*
X80232928Y-35410819D01*
X80216227Y-35389362D01*
X80190585Y-35324368D01*
X80204152Y-35255828D01*
X80252620Y-35205503D01*
X80314081Y-35189200D01*
X80388984Y-35189200D01*
X80572845Y-35150120D01*
X80572848Y-35150118D01*
X80572850Y-35150118D01*
X80670118Y-35106811D01*
X80744563Y-35073666D01*
X80857542Y-34991581D01*
X80923345Y-34968103D01*
X80991399Y-34983928D01*
X81003310Y-34991583D01*
X81100875Y-35062468D01*
X81143541Y-35117798D01*
X81149520Y-35187411D01*
X81125844Y-35238948D01*
X80992071Y-35410819D01*
X80992069Y-35410823D01*
X80878654Y-35620396D01*
X80878648Y-35620410D01*
X80801274Y-35845791D01*
X80793722Y-35891050D01*
X80762050Y-36080848D01*
X80762050Y-36319152D01*
X80775570Y-36400173D01*
X80801274Y-36554208D01*
X80878648Y-36779589D01*
X80878654Y-36779603D01*
X80992069Y-36989176D01*
X80992076Y-36989187D01*
X81138433Y-37177227D01*
X81138436Y-37177230D01*
X81138440Y-37177235D01*
X81313766Y-37338633D01*
X81513266Y-37468973D01*
X81731498Y-37564699D01*
X81962510Y-37623199D01*
X82140528Y-37637950D01*
X82140530Y-37637950D01*
X82259470Y-37637950D01*
X82259472Y-37637950D01*
X82437490Y-37623199D01*
X82668502Y-37564699D01*
X82886734Y-37468973D01*
X83086234Y-37338633D01*
X83261560Y-37177235D01*
X83407929Y-36989179D01*
X83521349Y-36779597D01*
X83598726Y-36554206D01*
X83637950Y-36319152D01*
X83637950Y-36181668D01*
X83657635Y-36114629D01*
X83710439Y-36068874D01*
X83761950Y-36057668D01*
X83768327Y-36057668D01*
X83801269Y-36053330D01*
X83809370Y-36052800D01*
X84470166Y-36052800D01*
X84478263Y-36053330D01*
X84511200Y-36057667D01*
X84511201Y-36057667D01*
X84526544Y-36055646D01*
X84658434Y-36038283D01*
X84795633Y-35981453D01*
X84883868Y-35913749D01*
X84883868Y-35913748D01*
X84906806Y-35896148D01*
X84906806Y-35896147D01*
X84913450Y-35891050D01*
X84933678Y-35864686D01*
X84939012Y-35858603D01*
X85569799Y-35227815D01*
X85575884Y-35222479D01*
X85602250Y-35202250D01*
X85692653Y-35084433D01*
X85719330Y-35020028D01*
X85746211Y-34979800D01*
X85770808Y-34955204D01*
X85857789Y-34816775D01*
X85911786Y-34662461D01*
X85911984Y-34660707D01*
X85930091Y-34500003D01*
X85930091Y-34499996D01*
X85911787Y-34337544D01*
X85911786Y-34337542D01*
X85911786Y-34337539D01*
X85857789Y-34183225D01*
X85770808Y-34044796D01*
X85655204Y-33929192D01*
X85588193Y-33887086D01*
X85516774Y-33842210D01*
X85362452Y-33788211D01*
X85355665Y-33786662D01*
X85356169Y-33784450D01*
X85301686Y-33761550D01*
X85262137Y-33703951D01*
X85260006Y-33634114D01*
X85292310Y-33577725D01*
X87283786Y-31586249D01*
X87296048Y-31576427D01*
X87295865Y-31576206D01*
X87301867Y-31571239D01*
X87301877Y-31571233D01*
X87349241Y-31520795D01*
X87370120Y-31499917D01*
X87374373Y-31494433D01*
X87378150Y-31490010D01*
X87410062Y-31456029D01*
X87419714Y-31438470D01*
X87430389Y-31422219D01*
X87442674Y-31406383D01*
X87461186Y-31363599D01*
X87463742Y-31358382D01*
X87486197Y-31317539D01*
X87491180Y-31298127D01*
X87497477Y-31279738D01*
X87505438Y-31261342D01*
X87512729Y-31215300D01*
X87513908Y-31209609D01*
X87525500Y-31164466D01*
X87525500Y-31144430D01*
X87527027Y-31125029D01*
X87530160Y-31105251D01*
X87525775Y-31058862D01*
X87525500Y-31053024D01*
X87525500Y-30925562D01*
X87545185Y-30858523D01*
X87561815Y-30837885D01*
X87865107Y-30534592D01*
X87926428Y-30501109D01*
X87996119Y-30506093D01*
X88018759Y-30517282D01*
X88083222Y-30557788D01*
X88083225Y-30557789D01*
X88194915Y-30596870D01*
X88241641Y-30626231D01*
X95928125Y-38312715D01*
X95961610Y-38374038D01*
X95958150Y-38439400D01*
X95910001Y-38584703D01*
X95910000Y-38584704D01*
X95899500Y-38687484D01*
X95899500Y-40987515D01*
X95910000Y-41090295D01*
X95910001Y-41090296D01*
X95965186Y-41256835D01*
X95965187Y-41256837D01*
X96057286Y-41406151D01*
X96057289Y-41406155D01*
X96181344Y-41530210D01*
X96181348Y-41530213D01*
X96330662Y-41622312D01*
X96330664Y-41622313D01*
X96330666Y-41622314D01*
X96497203Y-41677499D01*
X96599992Y-41688000D01*
X96599997Y-41688000D01*
X98900003Y-41688000D01*
X98900008Y-41688000D01*
X99002797Y-41677499D01*
X99169334Y-41622314D01*
X99318655Y-41530211D01*
X99442711Y-41406155D01*
X99444961Y-41402506D01*
X99447158Y-41400530D01*
X99447192Y-41400488D01*
X99447199Y-41400493D01*
X99496907Y-41355782D01*
X99565870Y-41344559D01*
X99629952Y-41372402D01*
X99668809Y-41430470D01*
X99674500Y-41467603D01*
X99674500Y-43940110D01*
X99654815Y-44007149D01*
X99602011Y-44052904D01*
X99532853Y-44062848D01*
X99469297Y-44033823D01*
X99441668Y-43999537D01*
X99320298Y-43777264D01*
X99320293Y-43777256D01*
X99232960Y-43660593D01*
X99232959Y-43660592D01*
X98511232Y-44382319D01*
X98467684Y-44300178D01*
X98347991Y-44159265D01*
X98200805Y-44047377D01*
X98158596Y-44027849D01*
X98879406Y-43307039D01*
X98879406Y-43307038D01*
X98762743Y-43219706D01*
X98762735Y-43219701D01*
X98530486Y-43092884D01*
X98530487Y-43092884D01*
X98282528Y-43000400D01*
X98023960Y-42944152D01*
X97760001Y-42925274D01*
X97759999Y-42925274D01*
X97496039Y-42944152D01*
X97237471Y-43000400D01*
X96989512Y-43092884D01*
X96757264Y-43219701D01*
X96640593Y-43307039D01*
X97361391Y-44027837D01*
X97242569Y-44099331D01*
X97108342Y-44226477D01*
X97005138Y-44378692D01*
X96287039Y-43660593D01*
X96199701Y-43777264D01*
X96072884Y-44009512D01*
X95980400Y-44257471D01*
X95924152Y-44516039D01*
X95905274Y-44779998D01*
X95905274Y-44780001D01*
X95924152Y-45043960D01*
X95980400Y-45302528D01*
X96072884Y-45550487D01*
X96199701Y-45782735D01*
X96199706Y-45782743D01*
X96287038Y-45899406D01*
X96287039Y-45899406D01*
X97008766Y-45177679D01*
X97052316Y-45259822D01*
X97172009Y-45400735D01*
X97319195Y-45512623D01*
X97361402Y-45532150D01*
X96640592Y-46252959D01*
X96640593Y-46252960D01*
X96757256Y-46340293D01*
X96757264Y-46340298D01*
X96989513Y-46467115D01*
X96989512Y-46467115D01*
X97237471Y-46559599D01*
X97496039Y-46615847D01*
X97759999Y-46634726D01*
X97760001Y-46634726D01*
X98023960Y-46615847D01*
X98282528Y-46559599D01*
X98530487Y-46467115D01*
X98762735Y-46340298D01*
X98762736Y-46340297D01*
X98879406Y-46252959D01*
X98158609Y-45532161D01*
X98277431Y-45460669D01*
X98411658Y-45333523D01*
X98514861Y-45181308D01*
X99232959Y-45899406D01*
X99320297Y-45782736D01*
X99320298Y-45782736D01*
X99441668Y-45560462D01*
X99491073Y-45511057D01*
X99559346Y-45496205D01*
X99624810Y-45520622D01*
X99666682Y-45576555D01*
X99674500Y-45619889D01*
X99674500Y-45909546D01*
X99654815Y-45976585D01*
X99638181Y-45997227D01*
X98625125Y-47010282D01*
X98563802Y-47043767D01*
X98494111Y-47038783D01*
X98282673Y-46959921D01*
X98024034Y-46903658D01*
X98024027Y-46903657D01*
X97760001Y-46884773D01*
X97759999Y-46884773D01*
X97495972Y-46903657D01*
X97495965Y-46903658D01*
X97237326Y-46959921D01*
X96989309Y-47052426D01*
X96989305Y-47052428D01*
X96756994Y-47179280D01*
X96756986Y-47179285D01*
X96545092Y-47337906D01*
X96545074Y-47337922D01*
X96357922Y-47525074D01*
X96357906Y-47525092D01*
X96199285Y-47736986D01*
X96199280Y-47736994D01*
X96072428Y-47969305D01*
X96072426Y-47969309D01*
X95979921Y-48217326D01*
X95923658Y-48475965D01*
X95923657Y-48475972D01*
X95904773Y-48739998D01*
X95904773Y-48740001D01*
X95923657Y-49004027D01*
X95923658Y-49004034D01*
X95979921Y-49262673D01*
X96072426Y-49510690D01*
X96072428Y-49510694D01*
X96199280Y-49743005D01*
X96199285Y-49743013D01*
X96357906Y-49954907D01*
X96357922Y-49954925D01*
X96545074Y-50142077D01*
X96545092Y-50142093D01*
X96756986Y-50300714D01*
X96756994Y-50300719D01*
X96989305Y-50427571D01*
X96989309Y-50427573D01*
X96989311Y-50427574D01*
X97237322Y-50520077D01*
X97237325Y-50520077D01*
X97237326Y-50520078D01*
X97432552Y-50562546D01*
X97495974Y-50576343D01*
X97739660Y-50593772D01*
X97759999Y-50595227D01*
X97760000Y-50595227D01*
X97760001Y-50595227D01*
X97778885Y-50593876D01*
X98024026Y-50576343D01*
X98282678Y-50520077D01*
X98530689Y-50427574D01*
X98763011Y-50300716D01*
X98974915Y-50142087D01*
X99162087Y-49954915D01*
X99320716Y-49743011D01*
X99447574Y-49510689D01*
X99540077Y-49262678D01*
X99596343Y-49004026D01*
X99615227Y-48740000D01*
X99596343Y-48475974D01*
X99540077Y-48217322D01*
X99472082Y-48035019D01*
X99467098Y-47965327D01*
X99500581Y-47904007D01*
X100683786Y-46720802D01*
X100696048Y-46710980D01*
X100695865Y-46710759D01*
X100701867Y-46705792D01*
X100701877Y-46705786D01*
X100749241Y-46655348D01*
X100770120Y-46634470D01*
X100774373Y-46628986D01*
X100778150Y-46624563D01*
X100810062Y-46590582D01*
X100819714Y-46573023D01*
X100830389Y-46556772D01*
X100842674Y-46540936D01*
X100861186Y-46498152D01*
X100863742Y-46492935D01*
X100886197Y-46452092D01*
X100891180Y-46432680D01*
X100897477Y-46414291D01*
X100905438Y-46395895D01*
X100912729Y-46349853D01*
X100913908Y-46344162D01*
X100925500Y-46299019D01*
X100925500Y-46278983D01*
X100927027Y-46259582D01*
X100928076Y-46252959D01*
X100930160Y-46239804D01*
X100925775Y-46193415D01*
X100925500Y-46187577D01*
X100925500Y-39450142D01*
X100927224Y-39434522D01*
X100926939Y-39434496D01*
X100927671Y-39426740D01*
X100927673Y-39426733D01*
X100925500Y-39357585D01*
X100925500Y-39328050D01*
X100924631Y-39321172D01*
X100924172Y-39315343D01*
X100922709Y-39268772D01*
X100917122Y-39249544D01*
X100913174Y-39230484D01*
X100910663Y-39210604D01*
X100893512Y-39167287D01*
X100891619Y-39161758D01*
X100878618Y-39117009D01*
X100878616Y-39117006D01*
X100868423Y-39099771D01*
X100859861Y-39082294D01*
X100852487Y-39063670D01*
X100852486Y-39063668D01*
X100825079Y-39025945D01*
X100821888Y-39021086D01*
X100798172Y-38980983D01*
X100798165Y-38980974D01*
X100784006Y-38966815D01*
X100771368Y-38952019D01*
X100759594Y-38935813D01*
X100723688Y-38906109D01*
X100719376Y-38902186D01*
X99595903Y-37778712D01*
X99586080Y-37766450D01*
X99585859Y-37766634D01*
X99580886Y-37760623D01*
X99530464Y-37713273D01*
X99520019Y-37702828D01*
X99509575Y-37692383D01*
X99504086Y-37688125D01*
X99499661Y-37684347D01*
X99465682Y-37652438D01*
X99465680Y-37652436D01*
X99465677Y-37652435D01*
X99448129Y-37642788D01*
X99431863Y-37632104D01*
X99416033Y-37619825D01*
X99373268Y-37601318D01*
X99368022Y-37598748D01*
X99327193Y-37576303D01*
X99327192Y-37576302D01*
X99307793Y-37571322D01*
X99289381Y-37565018D01*
X99270998Y-37557062D01*
X99270992Y-37557060D01*
X99224974Y-37549772D01*
X99219252Y-37548587D01*
X99174121Y-37537000D01*
X99174119Y-37537000D01*
X99154084Y-37537000D01*
X99134686Y-37535473D01*
X99127262Y-37534297D01*
X99114905Y-37532340D01*
X99114904Y-37532340D01*
X99068516Y-37536725D01*
X99062678Y-37537000D01*
X98993612Y-37537000D01*
X98926573Y-37517315D01*
X98880818Y-37464511D01*
X98870874Y-37395353D01*
X98899899Y-37331797D01*
X98919302Y-37313733D01*
X98964907Y-37279593D01*
X98964907Y-37279592D01*
X98964915Y-37279587D01*
X99152087Y-37092415D01*
X99310716Y-36880511D01*
X99437574Y-36648189D01*
X99530077Y-36400178D01*
X99586343Y-36141526D01*
X99605227Y-35877500D01*
X99586343Y-35613474D01*
X99550678Y-35449524D01*
X99530078Y-35354826D01*
X99516212Y-35317650D01*
X99437574Y-35106811D01*
X99419475Y-35073666D01*
X99310719Y-34874494D01*
X99310714Y-34874486D01*
X99152093Y-34662592D01*
X99152077Y-34662574D01*
X98964925Y-34475422D01*
X98964907Y-34475406D01*
X98753013Y-34316785D01*
X98753005Y-34316780D01*
X98520694Y-34189928D01*
X98520690Y-34189926D01*
X98272673Y-34097421D01*
X98014034Y-34041158D01*
X98014027Y-34041157D01*
X97750001Y-34022273D01*
X97749999Y-34022273D01*
X97485972Y-34041157D01*
X97485965Y-34041158D01*
X97227326Y-34097421D01*
X96979309Y-34189926D01*
X96979305Y-34189928D01*
X96746994Y-34316780D01*
X96746986Y-34316785D01*
X96535092Y-34475406D01*
X96535074Y-34475422D01*
X96347922Y-34662574D01*
X96347906Y-34662592D01*
X96189285Y-34874486D01*
X96189280Y-34874494D01*
X96062428Y-35106805D01*
X96062426Y-35106809D01*
X95969921Y-35354826D01*
X95913658Y-35613465D01*
X95913657Y-35613472D01*
X95894773Y-35877498D01*
X95894773Y-35877501D01*
X95913657Y-36141527D01*
X95913658Y-36141534D01*
X95931631Y-36224155D01*
X95926647Y-36293847D01*
X95884775Y-36349780D01*
X95819311Y-36374197D01*
X95751038Y-36359345D01*
X95722784Y-36338194D01*
X92601436Y-33216846D01*
X91302091Y-31917501D01*
X95895274Y-31917501D01*
X95914152Y-32181460D01*
X95970400Y-32440028D01*
X96062884Y-32687987D01*
X96189701Y-32920235D01*
X96189706Y-32920243D01*
X96277038Y-33036906D01*
X96998766Y-32315177D01*
X97042316Y-32397322D01*
X97162009Y-32538235D01*
X97309195Y-32650123D01*
X97351402Y-32669650D01*
X96630592Y-33390459D01*
X96630593Y-33390460D01*
X96747256Y-33477793D01*
X96747264Y-33477798D01*
X96979513Y-33604615D01*
X96979512Y-33604615D01*
X97227471Y-33697099D01*
X97486039Y-33753347D01*
X97749999Y-33772226D01*
X97750001Y-33772226D01*
X98013960Y-33753347D01*
X98272528Y-33697099D01*
X98520487Y-33604615D01*
X98752735Y-33477798D01*
X98752736Y-33477797D01*
X98869406Y-33390459D01*
X98148609Y-32669661D01*
X98267431Y-32598169D01*
X98401658Y-32471023D01*
X98504861Y-32318808D01*
X99222959Y-33036906D01*
X99310297Y-32920236D01*
X99310298Y-32920235D01*
X99437115Y-32687987D01*
X99529599Y-32440028D01*
X99585847Y-32181460D01*
X99604726Y-31917501D01*
X99604726Y-31917498D01*
X99585847Y-31653539D01*
X99529599Y-31394971D01*
X99437115Y-31147012D01*
X99310298Y-30914764D01*
X99310293Y-30914756D01*
X99222960Y-30798093D01*
X99222959Y-30798092D01*
X98501232Y-31519819D01*
X98457684Y-31437678D01*
X98337991Y-31296765D01*
X98190805Y-31184877D01*
X98148596Y-31165349D01*
X98869406Y-30444539D01*
X98869406Y-30444538D01*
X98752743Y-30357206D01*
X98752735Y-30357201D01*
X98520486Y-30230384D01*
X98520487Y-30230384D01*
X98272528Y-30137900D01*
X98013960Y-30081652D01*
X97750001Y-30062774D01*
X97749999Y-30062774D01*
X97486039Y-30081652D01*
X97227471Y-30137900D01*
X96979512Y-30230384D01*
X96747264Y-30357201D01*
X96630593Y-30444539D01*
X97351391Y-31165337D01*
X97232569Y-31236831D01*
X97098342Y-31363977D01*
X96995138Y-31516192D01*
X96277039Y-30798093D01*
X96189701Y-30914764D01*
X96062884Y-31147012D01*
X95970400Y-31394971D01*
X95914152Y-31653539D01*
X95895274Y-31917498D01*
X95895274Y-31917501D01*
X91302091Y-31917501D01*
X89126232Y-29741641D01*
X89096871Y-29694915D01*
X89057788Y-29583222D01*
X89017282Y-29518759D01*
X88998281Y-29451522D01*
X89018648Y-29384687D01*
X89034589Y-29365110D01*
X89870603Y-28529096D01*
X89931924Y-28495613D01*
X90001616Y-28500597D01*
X90057549Y-28542469D01*
X90081502Y-28602896D01*
X90088212Y-28662455D01*
X90088213Y-28662460D01*
X90088214Y-28662461D01*
X90095379Y-28682939D01*
X90142210Y-28816774D01*
X90142211Y-28816775D01*
X90229192Y-28955204D01*
X90344796Y-29070808D01*
X90483225Y-29157789D01*
X90637539Y-29211786D01*
X90637542Y-29211786D01*
X90637544Y-29211787D01*
X90799996Y-29230091D01*
X90800000Y-29230091D01*
X90800004Y-29230091D01*
X90962455Y-29211787D01*
X90962456Y-29211786D01*
X90962461Y-29211786D01*
X91116775Y-29157789D01*
X91255204Y-29070808D01*
X91370808Y-28955204D01*
X91457789Y-28816775D01*
X91463171Y-28801393D01*
X91511784Y-28662468D01*
X91511784Y-28662465D01*
X91511786Y-28662461D01*
X91514686Y-28636721D01*
X91541750Y-28572309D01*
X91599344Y-28532752D01*
X91624020Y-28527384D01*
X91684567Y-28520562D01*
X91762455Y-28511787D01*
X91762456Y-28511786D01*
X91762461Y-28511786D01*
X91916775Y-28457789D01*
X92055204Y-28370808D01*
X92170808Y-28255204D01*
X92257789Y-28116775D01*
X92296871Y-28005083D01*
X92326229Y-27958359D01*
X94222771Y-26061819D01*
X94284094Y-26028334D01*
X94310452Y-26025500D01*
X97442648Y-26025500D01*
X97509687Y-26045185D01*
X97555442Y-26097989D01*
X97565386Y-26167147D01*
X97559690Y-26190454D01*
X97543212Y-26237544D01*
X97524909Y-26399996D01*
X97524909Y-26400003D01*
X97543212Y-26562455D01*
X97597210Y-26716774D01*
X97597211Y-26716775D01*
X97684192Y-26855204D01*
X97799796Y-26970808D01*
X97938225Y-27057789D01*
X98092539Y-27111786D01*
X98092542Y-27111786D01*
X98092544Y-27111787D01*
X98254996Y-27130091D01*
X98255000Y-27130091D01*
X98255004Y-27130091D01*
X98417455Y-27111787D01*
X98417456Y-27111786D01*
X98417461Y-27111786D01*
X98571775Y-27057789D01*
X98710204Y-26970808D01*
X98825808Y-26855204D01*
X98912789Y-26716775D01*
X98951871Y-26605083D01*
X98981229Y-26558359D01*
X99193786Y-26345802D01*
X99206048Y-26335980D01*
X99205865Y-26335759D01*
X99211867Y-26330792D01*
X99211877Y-26330786D01*
X99259241Y-26280348D01*
X99280120Y-26259470D01*
X99284373Y-26253986D01*
X99288150Y-26249563D01*
X99320062Y-26215582D01*
X99329714Y-26198023D01*
X99340389Y-26181772D01*
X99352674Y-26165936D01*
X99371186Y-26123152D01*
X99373742Y-26117935D01*
X99396197Y-26077092D01*
X99401180Y-26057680D01*
X99407477Y-26039291D01*
X99415438Y-26020895D01*
X99422729Y-25974853D01*
X99423908Y-25969162D01*
X99435500Y-25924019D01*
X99435500Y-25903983D01*
X99437027Y-25884582D01*
X99440160Y-25864804D01*
X99435775Y-25818415D01*
X99435500Y-25812577D01*
X99435500Y-24352853D01*
X99437224Y-24337233D01*
X99436939Y-24337207D01*
X99437671Y-24329451D01*
X99437673Y-24329444D01*
X99435500Y-24260296D01*
X99435500Y-24230761D01*
X99434631Y-24223883D01*
X99434172Y-24218054D01*
X99432709Y-24171483D01*
X99427122Y-24152255D01*
X99423174Y-24133195D01*
X99420663Y-24113315D01*
X99403512Y-24069998D01*
X99401619Y-24064469D01*
X99388618Y-24019720D01*
X99388616Y-24019717D01*
X99378423Y-24002482D01*
X99369861Y-23985005D01*
X99362487Y-23966381D01*
X99362486Y-23966379D01*
X99335079Y-23928656D01*
X99331888Y-23923797D01*
X99330730Y-23921839D01*
X99308170Y-23883691D01*
X99304198Y-23876974D01*
X99306556Y-23875578D01*
X99285819Y-23822755D01*
X99299502Y-23754239D01*
X99348055Y-23703996D01*
X99416064Y-23687979D01*
X99423699Y-23688631D01*
X99525241Y-23700500D01*
X99525249Y-23700500D01*
X99874752Y-23700500D01*
X99874759Y-23700500D01*
X100221914Y-23659923D01*
X100562011Y-23579319D01*
X100890451Y-23459777D01*
X101202793Y-23302913D01*
X101459566Y-23134030D01*
X101494805Y-23110853D01*
X101494805Y-23110852D01*
X101494811Y-23110849D01*
X101762558Y-22886183D01*
X102002412Y-22631953D01*
X102211130Y-22351596D01*
X102385889Y-22048904D01*
X102524326Y-21727971D01*
X102624569Y-21393136D01*
X102624909Y-21391212D01*
X102685260Y-21048938D01*
X102685259Y-21048938D01*
X102685262Y-21048927D01*
X102705585Y-20700000D01*
X102685262Y-20351073D01*
X102685260Y-20351061D01*
X102624571Y-20006872D01*
X102624569Y-20006865D01*
X102592576Y-19900000D01*
X102524326Y-19672029D01*
X102385889Y-19351096D01*
X102346026Y-19282051D01*
X102329553Y-19214150D01*
X102352406Y-19148124D01*
X102407327Y-19104933D01*
X102476881Y-19098292D01*
X102538983Y-19130308D01*
G37*
G04 #@! TD.AperFunction*
G04 #@! TA.AperFunction,Conductor*
G36*
X101289601Y-58106605D02*
G01*
X101322360Y-58168319D01*
X101324112Y-58207127D01*
X101319248Y-58250299D01*
X101317033Y-58269965D01*
X101316409Y-58275501D01*
X101334712Y-58437953D01*
X101388710Y-58592272D01*
X101420089Y-58642211D01*
X101475692Y-58730702D01*
X101591296Y-58846306D01*
X101680397Y-58902292D01*
X101729727Y-58933288D01*
X101884031Y-58987282D01*
X101884036Y-58987283D01*
X101884039Y-58987284D01*
X101927282Y-58992156D01*
X101991695Y-59019221D01*
X102001080Y-59027695D01*
X102036181Y-59062796D01*
X102069666Y-59124119D01*
X102072500Y-59150477D01*
X102072500Y-62160729D01*
X102052815Y-62227768D01*
X102000011Y-62273523D01*
X101934617Y-62283949D01*
X101810004Y-62269909D01*
X101809996Y-62269909D01*
X101647544Y-62288212D01*
X101493225Y-62342210D01*
X101354795Y-62429192D01*
X101239192Y-62544795D01*
X101152210Y-62683225D01*
X101098212Y-62837543D01*
X101095278Y-62863586D01*
X101068209Y-62927999D01*
X101010614Y-62967553D01*
X100940777Y-62969688D01*
X100924605Y-62964260D01*
X100907643Y-62957234D01*
X100840236Y-62929313D01*
X100826171Y-62927461D01*
X100727727Y-62914500D01*
X100727720Y-62914500D01*
X100652280Y-62914500D01*
X100652272Y-62914500D01*
X100539764Y-62929313D01*
X100539757Y-62929315D01*
X100535829Y-62930942D01*
X100532251Y-62931326D01*
X100531913Y-62931417D01*
X100531898Y-62931364D01*
X100466359Y-62938405D01*
X100403883Y-62907125D01*
X100368235Y-62847033D01*
X100370000Y-62779489D01*
X100394086Y-62702196D01*
X100400500Y-62631616D01*
X100400500Y-61968384D01*
X100394086Y-61897804D01*
X100343478Y-61735394D01*
X100270180Y-61614146D01*
X100252346Y-61546596D01*
X100270180Y-61485854D01*
X100343478Y-61364606D01*
X100394086Y-61202196D01*
X100400500Y-61131616D01*
X100400500Y-60468384D01*
X100394086Y-60397804D01*
X100343478Y-60235394D01*
X100288648Y-60144695D01*
X100270813Y-60077143D01*
X100292330Y-60010669D01*
X100297499Y-60003638D01*
X100297968Y-60003044D01*
X100350069Y-59918576D01*
X100387003Y-59858697D01*
X100440349Y-59697708D01*
X100450500Y-59598345D01*
X100450499Y-59001656D01*
X100449528Y-58992155D01*
X100440349Y-58902292D01*
X100440348Y-58902289D01*
X100421297Y-58844796D01*
X100387003Y-58741303D01*
X100386999Y-58741297D01*
X100386998Y-58741294D01*
X100309158Y-58615097D01*
X100290717Y-58547705D01*
X100309158Y-58484903D01*
X100387003Y-58358697D01*
X100389447Y-58351322D01*
X100429218Y-58293876D01*
X100493734Y-58267051D01*
X100531662Y-58269965D01*
X100531707Y-58269626D01*
X100537956Y-58270448D01*
X100539248Y-58270548D01*
X100539758Y-58270684D01*
X100539764Y-58270687D01*
X100652280Y-58285500D01*
X100652287Y-58285500D01*
X100727713Y-58285500D01*
X100727720Y-58285500D01*
X100840236Y-58270687D01*
X100980233Y-58212698D01*
X101100451Y-58120451D01*
X101102511Y-58117765D01*
X101104829Y-58116072D01*
X101106198Y-58114704D01*
X101106411Y-58114917D01*
X101158932Y-58076560D01*
X101228678Y-58072398D01*
X101289601Y-58106605D01*
G37*
G04 #@! TD.AperFunction*
G04 #@! TA.AperFunction,Conductor*
G36*
X98143039Y-57569685D02*
G01*
X98188794Y-57622489D01*
X98200000Y-57674000D01*
X98200000Y-59426000D01*
X98180315Y-59493039D01*
X98127511Y-59538794D01*
X98076000Y-59550000D01*
X97924500Y-59550000D01*
X97857461Y-59530315D01*
X97811706Y-59477511D01*
X97800500Y-59426000D01*
X97800500Y-57728969D01*
X97820185Y-57661930D01*
X97872989Y-57616175D01*
X97878297Y-57614268D01*
X97878225Y-57614093D01*
X97885732Y-57610983D01*
X97885734Y-57610983D01*
X98010172Y-57559438D01*
X98057623Y-57550000D01*
X98076000Y-57550000D01*
X98143039Y-57569685D01*
G37*
G04 #@! TD.AperFunction*
G04 #@! TA.AperFunction,Conductor*
G36*
X102177785Y-57267297D02*
G01*
X102181297Y-57270809D01*
X102283250Y-57334871D01*
X102329540Y-57387205D01*
X102340188Y-57456259D01*
X102311813Y-57520107D01*
X102253423Y-57558479D01*
X102203394Y-57563084D01*
X102046504Y-57545407D01*
X102046496Y-57545407D01*
X101884044Y-57563710D01*
X101729725Y-57617708D01*
X101591297Y-57704689D01*
X101480929Y-57815057D01*
X101419606Y-57848541D01*
X101349914Y-57843557D01*
X101293981Y-57801685D01*
X101269564Y-57736221D01*
X101270310Y-57711184D01*
X101270466Y-57709999D01*
X101251207Y-57563712D01*
X101250687Y-57559764D01*
X101206030Y-57451953D01*
X101198561Y-57382483D01*
X101229836Y-57320004D01*
X101289925Y-57284352D01*
X101320591Y-57280500D01*
X101810743Y-57280500D01*
X101940577Y-57267297D01*
X101962438Y-57265074D01*
X102052983Y-57236664D01*
X102122840Y-57235377D01*
X102177785Y-57267297D01*
G37*
G04 #@! TD.AperFunction*
G04 #@! TA.AperFunction,Conductor*
G36*
X94631587Y-22420185D02*
G01*
X94652229Y-22436819D01*
X94978228Y-22762819D01*
X95011713Y-22824142D01*
X95006729Y-22893834D01*
X94964857Y-22949767D01*
X94899393Y-22974184D01*
X94890547Y-22974500D01*
X93997849Y-22974500D01*
X93982232Y-22972776D01*
X93982205Y-22973062D01*
X93974443Y-22972327D01*
X93905315Y-22974500D01*
X93875761Y-22974500D01*
X93875040Y-22974590D01*
X93868868Y-22975369D01*
X93863056Y-22975826D01*
X93816484Y-22977290D01*
X93816483Y-22977290D01*
X93797240Y-22982881D01*
X93778190Y-22986825D01*
X93758322Y-22989334D01*
X93758320Y-22989335D01*
X93714995Y-23006488D01*
X93709468Y-23008380D01*
X93664721Y-23021381D01*
X93664720Y-23021382D01*
X93647478Y-23031579D01*
X93630010Y-23040137D01*
X93611380Y-23047513D01*
X93611378Y-23047514D01*
X93573687Y-23074898D01*
X93568805Y-23078105D01*
X93528690Y-23101830D01*
X93514519Y-23116000D01*
X93499734Y-23128628D01*
X93483523Y-23140407D01*
X93453820Y-23176310D01*
X93449888Y-23180631D01*
X86516208Y-30114310D01*
X86503951Y-30124131D01*
X86504134Y-30124352D01*
X86498123Y-30129324D01*
X86450772Y-30179747D01*
X86429889Y-30200630D01*
X86429877Y-30200643D01*
X86425621Y-30206128D01*
X86421837Y-30210558D01*
X86389937Y-30244529D01*
X86389936Y-30244531D01*
X86380284Y-30262087D01*
X86369610Y-30278337D01*
X86357329Y-30294172D01*
X86357324Y-30294179D01*
X86338815Y-30336949D01*
X86336245Y-30342195D01*
X86313803Y-30383017D01*
X86308822Y-30402418D01*
X86302521Y-30420821D01*
X86294562Y-30439213D01*
X86294561Y-30439216D01*
X86287271Y-30485238D01*
X86286087Y-30490957D01*
X86274501Y-30536083D01*
X86274500Y-30536093D01*
X86274500Y-30556127D01*
X86272973Y-30575526D01*
X86269840Y-30595305D01*
X86269840Y-30595306D01*
X86274225Y-30641694D01*
X86274500Y-30647532D01*
X86274500Y-30774993D01*
X86254815Y-30842032D01*
X86238181Y-30862674D01*
X84889605Y-32211249D01*
X84828282Y-32244734D01*
X84758590Y-32239750D01*
X84702657Y-32197878D01*
X84702570Y-32197762D01*
X84651168Y-32128717D01*
X84584263Y-32072577D01*
X84517614Y-32016651D01*
X84517612Y-32016650D01*
X84361818Y-31938407D01*
X84361816Y-31938406D01*
X84361815Y-31938406D01*
X84192171Y-31898200D01*
X84061564Y-31898200D01*
X83948052Y-31911467D01*
X83931835Y-31913363D01*
X83931832Y-31913364D01*
X83768008Y-31972991D01*
X83768004Y-31972993D01*
X83622348Y-32068792D01*
X83622347Y-32068793D01*
X83502705Y-32195605D01*
X83502704Y-32195607D01*
X83486466Y-32223732D01*
X83435898Y-32271947D01*
X83367291Y-32285169D01*
X83306192Y-32262048D01*
X83299430Y-32257135D01*
X83256765Y-32201805D01*
X83250787Y-32132191D01*
X83274464Y-32080656D01*
X83407923Y-31909187D01*
X83407924Y-31909185D01*
X83407929Y-31909179D01*
X83521349Y-31699597D01*
X83598726Y-31474206D01*
X83637950Y-31239152D01*
X83637950Y-31000848D01*
X83598726Y-30765794D01*
X83521349Y-30540403D01*
X83407929Y-30330821D01*
X83407927Y-30330819D01*
X83407923Y-30330812D01*
X83261566Y-30142772D01*
X83261563Y-30142769D01*
X83261560Y-30142765D01*
X83086234Y-29981367D01*
X83086231Y-29981365D01*
X83086230Y-29981364D01*
X83009090Y-29930966D01*
X82886734Y-29851027D01*
X82886731Y-29851025D01*
X82886730Y-29851025D01*
X82668502Y-29755301D01*
X82533346Y-29721075D01*
X82473190Y-29685535D01*
X82441798Y-29623115D01*
X82449136Y-29553632D01*
X82476102Y-29513191D01*
X84150236Y-27839057D01*
X84162498Y-27829235D01*
X84162315Y-27829014D01*
X84168317Y-27824047D01*
X84168327Y-27824041D01*
X84215691Y-27773603D01*
X84236570Y-27752725D01*
X84240823Y-27747241D01*
X84244600Y-27742818D01*
X84276512Y-27708837D01*
X84286164Y-27691278D01*
X84296839Y-27675027D01*
X84309124Y-27659191D01*
X84327636Y-27616407D01*
X84330192Y-27611190D01*
X84352647Y-27570347D01*
X84357630Y-27550935D01*
X84363927Y-27532546D01*
X84371888Y-27514150D01*
X84379179Y-27468108D01*
X84380358Y-27462417D01*
X84391950Y-27417274D01*
X84391950Y-27397238D01*
X84393477Y-27377837D01*
X84396610Y-27358059D01*
X84392225Y-27311670D01*
X84391950Y-27305832D01*
X84391950Y-24859113D01*
X84411635Y-24792074D01*
X84428269Y-24771432D01*
X86762883Y-22436819D01*
X86824206Y-22403334D01*
X86850564Y-22400500D01*
X94564548Y-22400500D01*
X94631587Y-22420185D01*
G37*
G04 #@! TD.AperFunction*
G04 #@! TA.AperFunction,Conductor*
G36*
X97996911Y-18020185D02*
G01*
X98042666Y-18072989D01*
X98052610Y-18142147D01*
X98023585Y-18205703D01*
X97998011Y-18228100D01*
X97905194Y-18289146D01*
X97905186Y-18289152D01*
X97637442Y-18513817D01*
X97637440Y-18513819D01*
X97397589Y-18768044D01*
X97397584Y-18768050D01*
X97188873Y-19048399D01*
X97086117Y-19226376D01*
X97035550Y-19274591D01*
X96966942Y-19287813D01*
X96947895Y-19284480D01*
X96909023Y-19274500D01*
X96909019Y-19274500D01*
X96900847Y-19274500D01*
X96877615Y-19272304D01*
X96869588Y-19270773D01*
X96869586Y-19270773D01*
X96860633Y-19271336D01*
X96812275Y-19274378D01*
X96808403Y-19274500D01*
X89603886Y-19274500D01*
X89537915Y-19255494D01*
X89516774Y-19242210D01*
X89362457Y-19188212D01*
X89200004Y-19169909D01*
X89199996Y-19169909D01*
X89037544Y-19188212D01*
X88883225Y-19242210D01*
X88744795Y-19329192D01*
X88629192Y-19444795D01*
X88542210Y-19583225D01*
X88488212Y-19737544D01*
X88469909Y-19899996D01*
X88469909Y-19900003D01*
X88488212Y-20062455D01*
X88542210Y-20216774D01*
X88626589Y-20351061D01*
X88629192Y-20355204D01*
X88744796Y-20470808D01*
X88883225Y-20557789D01*
X89037539Y-20611786D01*
X89037542Y-20611786D01*
X89037544Y-20611787D01*
X89199996Y-20630091D01*
X89200000Y-20630091D01*
X89200004Y-20630091D01*
X89362457Y-20611787D01*
X89362459Y-20611786D01*
X89362461Y-20611786D01*
X89516775Y-20557789D01*
X89537915Y-20544506D01*
X89603886Y-20525500D01*
X96080500Y-20525500D01*
X96147539Y-20545185D01*
X96193294Y-20597989D01*
X96204500Y-20649500D01*
X96204500Y-21920547D01*
X96184815Y-21987586D01*
X96132011Y-22033341D01*
X96062853Y-22043285D01*
X95999297Y-22014260D01*
X95992819Y-22008228D01*
X95375803Y-21391212D01*
X95365980Y-21378950D01*
X95365759Y-21379134D01*
X95360786Y-21373123D01*
X95342159Y-21355631D01*
X95310364Y-21325773D01*
X95299919Y-21315328D01*
X95289475Y-21304883D01*
X95283986Y-21300625D01*
X95279561Y-21296847D01*
X95245582Y-21264938D01*
X95245580Y-21264936D01*
X95245577Y-21264935D01*
X95228029Y-21255288D01*
X95211763Y-21244604D01*
X95195933Y-21232325D01*
X95153168Y-21213818D01*
X95147922Y-21211248D01*
X95107093Y-21188803D01*
X95107092Y-21188802D01*
X95087693Y-21183822D01*
X95069281Y-21177518D01*
X95050898Y-21169562D01*
X95050892Y-21169560D01*
X95004874Y-21162272D01*
X94999152Y-21161087D01*
X94954021Y-21149500D01*
X94954019Y-21149500D01*
X94933984Y-21149500D01*
X94914586Y-21147973D01*
X94907162Y-21146797D01*
X94894805Y-21144840D01*
X94894804Y-21144840D01*
X94848416Y-21149225D01*
X94842578Y-21149500D01*
X86622854Y-21149500D01*
X86607233Y-21147775D01*
X86607207Y-21148061D01*
X86599445Y-21147327D01*
X86599444Y-21147327D01*
X86530297Y-21149500D01*
X86500760Y-21149500D01*
X86493877Y-21150369D01*
X86488060Y-21150826D01*
X86441484Y-21152290D01*
X86422240Y-21157881D01*
X86403190Y-21161825D01*
X86383322Y-21164334D01*
X86339995Y-21181488D01*
X86334469Y-21183379D01*
X86289725Y-21196379D01*
X86289721Y-21196381D01*
X86272477Y-21206579D01*
X86255016Y-21215133D01*
X86236385Y-21222510D01*
X86236373Y-21222517D01*
X86198681Y-21249902D01*
X86193798Y-21253109D01*
X86153691Y-21276829D01*
X86139525Y-21290995D01*
X86124735Y-21303627D01*
X86108525Y-21315404D01*
X86108522Y-21315407D01*
X86078821Y-21351309D01*
X86074888Y-21355631D01*
X83537181Y-23893338D01*
X83475858Y-23926823D01*
X83406166Y-23921839D01*
X83350233Y-23879967D01*
X83325816Y-23814503D01*
X83325500Y-23805657D01*
X83325500Y-21603885D01*
X83344506Y-21537913D01*
X83357789Y-21516775D01*
X83411786Y-21362461D01*
X83411786Y-21362459D01*
X83411787Y-21362457D01*
X83430091Y-21200003D01*
X83430091Y-21199996D01*
X83411787Y-21037544D01*
X83411786Y-21037542D01*
X83411786Y-21037539D01*
X83357789Y-20883225D01*
X83270808Y-20744796D01*
X83155204Y-20629192D01*
X83105545Y-20597989D01*
X83016774Y-20542210D01*
X82862455Y-20488212D01*
X82700004Y-20469909D01*
X82699996Y-20469909D01*
X82537544Y-20488212D01*
X82383225Y-20542210D01*
X82244795Y-20629192D01*
X82129192Y-20744795D01*
X82042210Y-20883225D01*
X81988212Y-21037544D01*
X81969909Y-21199996D01*
X81969909Y-21200003D01*
X81988212Y-21362457D01*
X82042210Y-21516773D01*
X82042211Y-21516775D01*
X82055493Y-21537913D01*
X82074500Y-21603885D01*
X82074500Y-24226336D01*
X82054815Y-24293375D01*
X82002011Y-24339130D01*
X81932853Y-24349074D01*
X81869297Y-24320049D01*
X81865275Y-24316197D01*
X81865184Y-24316295D01*
X81862566Y-24313825D01*
X81862558Y-24313817D01*
X81670016Y-24152255D01*
X81594813Y-24089152D01*
X81594805Y-24089146D01*
X81302796Y-23897088D01*
X80990458Y-23740226D01*
X80990452Y-23740223D01*
X80662012Y-23620681D01*
X80662009Y-23620680D01*
X80321915Y-23540077D01*
X80278519Y-23535004D01*
X79974759Y-23499500D01*
X79625241Y-23499500D01*
X79321480Y-23535004D01*
X79278085Y-23540077D01*
X79278083Y-23540077D01*
X78937990Y-23620680D01*
X78937987Y-23620681D01*
X78609547Y-23740223D01*
X78609541Y-23740226D01*
X78297203Y-23897088D01*
X78005194Y-24089146D01*
X78005186Y-24089152D01*
X77737442Y-24313817D01*
X77737440Y-24313819D01*
X77497589Y-24568044D01*
X77497584Y-24568050D01*
X77288870Y-24848402D01*
X77231887Y-24947101D01*
X77181320Y-24995317D01*
X77112713Y-25008540D01*
X77047848Y-24982572D01*
X77007320Y-24925657D01*
X77000500Y-24885101D01*
X77000500Y-21001622D01*
X77000585Y-20998376D01*
X77007490Y-20866625D01*
X77007490Y-20866617D01*
X77017803Y-20682972D01*
X77018464Y-20676789D01*
X77042611Y-20524331D01*
X77070227Y-20361796D01*
X77071451Y-20356196D01*
X77112425Y-20203279D01*
X77157083Y-20048268D01*
X77158764Y-20043254D01*
X77216127Y-19893815D01*
X77277366Y-19745972D01*
X77279379Y-19741606D01*
X77352511Y-19598078D01*
X77360720Y-19583225D01*
X77429655Y-19458494D01*
X77431867Y-19454808D01*
X77519980Y-19319127D01*
X77551731Y-19274378D01*
X77612154Y-19189220D01*
X77614486Y-19186143D01*
X77715655Y-19061209D01*
X77717537Y-19058998D01*
X77822773Y-18941239D01*
X77825092Y-18938787D01*
X77938787Y-18825092D01*
X77941239Y-18822773D01*
X78058998Y-18717537D01*
X78061209Y-18715655D01*
X78186143Y-18614486D01*
X78189220Y-18612154D01*
X78319127Y-18519980D01*
X78329046Y-18513537D01*
X78454808Y-18431867D01*
X78458494Y-18429655D01*
X78598078Y-18352511D01*
X78610063Y-18346403D01*
X78741606Y-18279379D01*
X78745972Y-18277366D01*
X78893815Y-18216127D01*
X79043254Y-18158764D01*
X79048268Y-18157083D01*
X79203279Y-18112425D01*
X79356196Y-18071451D01*
X79361796Y-18070227D01*
X79524284Y-18042618D01*
X79676791Y-18018464D01*
X79682968Y-18017803D01*
X79866566Y-18007493D01*
X79998380Y-18000584D01*
X80001622Y-18000500D01*
X97929872Y-18000500D01*
X97996911Y-18020185D01*
G37*
G04 #@! TD.AperFunction*
M02*
